<?xml version="1.0" encoding="utf-8"?>
<!-- Generator: Adobe Illustrator 22.0.1, SVG Export Plug-In . SVG Version: 6.00 Build 0)  -->
<svg version="1.1" id="Layer_5" xmlns="http://www.w3.org/2000/svg" xmlns:xlink="http://www.w3.org/1999/xlink" x="0px" y="0px"
	 viewBox="0 0 56.9 32" enable-background="new 0 0 56.9 32" xml:space="preserve">
<g>
	<defs>
		<rect id="SVGID_1_" x="0" width="57" height="32"/>
	</defs>
	<clipPath id="SVGID_2_">
		<use xlink:href="#SVGID_1_"  overflow="visible"/>
	</clipPath>
	<g clip-path="url(#SVGID_2_)">
		<g id="Layer_25_1_">
			<g id="Layer_22_1_">
				<path fill="none" stroke="#FFF6ED" stroke-width="0.15" stroke-miterlimit="10" d="M21.8,14.8c-0.1-0.1-0.3-0.1-0.4-0.2
					c-0.8-0.4-1-1.4-1.8-1.8c-0.7-0.4-1.6-0.4-2.2,0.1c-0.7,0.5-1,1.3-0.8,2.1c0.2,0.9,1.1,1.4,1.1,2.3c0,0.1,0,0.3,0,0.5
					c0.3,1.8,2,3.5,3.6,4.1c0,0,0.5,0.1,1.8-0.8s1.3-1.5,1.3-1.5C24.5,17.9,23.5,15.7,21.8,14.8z"/>
			</g>
			<g id="Layer_23_1_">
				<path fill="none" stroke="#FFF6ED" stroke-width="0.15" stroke-miterlimit="10" d="M19.7,13.6c0.6,0.7,0.2,1.5-0.4,1.9
					c-0.6,0.5-1.5,0.5-1.9-0.3c-0.4-0.7-0.3-1.6,0.3-2S19.1,13,19.7,13.6z"/>
				<g>
					<path fill="none" stroke="#FFF6ED" stroke-width="0.15" stroke-miterlimit="10" d="M17.7,13.3c0.1,0.2,0.3,0.3,0.5,0.4
						c0.2,0.1,0.4,0,0.6,0c0.2-0.1,0.8-0.3,1,0"/>
					<path fill="none" stroke="#FFF6ED" stroke-width="0.15" stroke-miterlimit="10" d="M17.7,13.3c0.1,0.2,0.2,0.4,0.2,0.6
						c0,0.2-0.1,0.4-0.2,0.5c-0.1,0.2-0.5,0.7-0.3,0.9"/>
				</g>
				<path fill="none" stroke="#FFF6ED" stroke-width="0.15" stroke-linecap="round" stroke-miterlimit="10" d="M18.7,14.3
					c0,0,0.1-0.3,0.4-0.3"/>
				<path fill="none" stroke="#FFF6ED" stroke-width="0.15" stroke-linecap="round" stroke-miterlimit="10" d="M17.9,15
					c0,0,0.1-0.3,0.4-0.3"/>
				<path fill="none" stroke="#FFF6ED" stroke-width="0.15" stroke-linecap="round" stroke-miterlimit="10" d="M18.8,15.2
					c0.1,0,0.3-0.1,0.3-0.2"/>
				<g>
					<path fill="none" stroke="#FFF6ED" stroke-width="0.1" stroke-linecap="round" stroke-miterlimit="10" d="M21.2,17.5
						c-0.1,0.1-0.2,0.2-0.2,0.4l0,0c0-0.1,0-0.3,0-0.4c0,0,0-0.1-0.1,0c-0.1,0-0.1,0.1-0.1,0.2c0,0,0,0,0,0c0,0-0.1,0-0.1,0
						c0,0,0,0-0.1,0c-0.1,0.1,0,0.2,0,0.2c0.1,0.1,0.2,0.1,0.3,0.1l0,0l0,0c0,0,0,0,0,0c0,0,0,0,0,0c-0.1,0-0.3,0-0.4,0.1
						c-0.1,0-0.2,0.2-0.1,0.2c0,0,0,0,0.1,0c0.2,0,0.3-0.2,0.4-0.3c0.1-0.1,0.3-0.2,0.4-0.3c0,0,0-0.1,0-0.1
						C21.4,17.4,21.2,17.5,21.2,17.5z"/>
				</g>
				<path fill="none" stroke="#FFF6ED" stroke-width="0.1" stroke-linecap="round" stroke-miterlimit="10" d="M21.9,18.5
					c-0.1,0.1-0.2,0.2-0.2,0.4l0,0c0-0.1,0-0.3,0-0.4c0,0,0-0.1-0.1,0c-0.1,0-0.1,0.1-0.1,0.2c0,0,0,0,0,0c0,0-0.1,0-0.1,0
					c0,0,0,0-0.1,0c-0.1,0.1,0,0.2,0,0.2c0.1,0.1,0.2,0.1,0.3,0.1l0,0l0,0c0,0,0,0,0,0c0,0,0,0,0,0c-0.1,0-0.3,0-0.4,0.1
					c-0.1,0-0.2,0.2-0.1,0.2c0,0,0,0,0.1,0c0.2,0,0.3-0.2,0.4-0.3c0.1-0.1,0.3-0.2,0.4-0.3c0,0,0-0.1,0-0.1
					C22,18.4,21.9,18.4,21.9,18.5z"/>
				<path fill="none" stroke="#FFF6ED" stroke-width="0.1" stroke-linecap="round" stroke-miterlimit="10" d="M22.6,19.4
					c-0.1,0.1-0.2,0.2-0.2,0.4l0,0c0-0.1,0-0.3,0-0.4c0,0,0-0.1-0.1,0c-0.1,0-0.1,0.1-0.1,0.2c0,0,0,0,0,0c0,0-0.1,0-0.1,0
					c0,0,0,0-0.1,0c-0.1,0.1,0,0.2,0,0.2c0.1,0.1,0.2,0.1,0.3,0.1l0,0l0,0c0,0,0,0,0,0c0,0,0,0,0,0c-0.1,0-0.3,0-0.4,0.1
					c-0.1,0-0.2,0.2-0.1,0.2c0,0,0,0,0.1,0c0.2,0,0.3-0.2,0.4-0.3c0.1-0.1,0.3-0.2,0.4-0.3c0,0,0-0.1,0-0.1
					C22.7,19.3,22.6,19.4,22.6,19.4z"/>
				<path fill="none" stroke="#FFF6ED" stroke-width="0.1" stroke-linecap="round" stroke-miterlimit="10" d="M23.2,20.4
					c-0.1,0.1-0.2,0.2-0.2,0.4l0,0c0-0.1,0-0.3,0-0.4c0,0,0-0.1-0.1,0c-0.1,0-0.1,0.1-0.1,0.2c0,0,0,0,0,0c0,0-0.1,0-0.1,0
					c0,0,0,0-0.1,0c-0.1,0.1,0,0.2,0,0.2c0.1,0.1,0.2,0.1,0.3,0.1l0,0l0,0c0,0,0,0,0,0c0,0,0,0,0,0c-0.1,0-0.3,0-0.4,0.1
					c-0.1,0-0.2,0.2-0.1,0.2c0,0,0,0,0.1,0c0.2,0,0.3-0.2,0.4-0.3c0.1-0.1,0.3-0.2,0.4-0.3c0,0,0-0.1,0-0.1
					C23.4,20.3,23.3,20.4,23.2,20.4z"/>
				
					<circle fill="none" stroke="#FFF6ED" stroke-width="0.15" stroke-linecap="round" stroke-miterlimit="10" cx="19.4" cy="15.7" r="0.2"/>
				<path fill="none" stroke="#FFF6ED" stroke-width="0.15" stroke-miterlimit="10" d="M19.3,15.9c0,0-0.4,0.5,0,1
					c0,0,0.5-0.4,0.1-1"/>
				<path fill="none" stroke="#FFF6ED" stroke-width="0.15" stroke-miterlimit="10" d="M19.6,15.7c0,0,0.6-0.2,0.9,0.3
					c0,0-0.5,0.3-1-0.2"/>
				<circle fill="#FFF6ED" stroke="#FFF6ED" stroke-width="0.15" stroke-miterlimit="10" cx="20.1" cy="16.7" r="0"/>
				<circle fill="#FFF6ED" stroke="#FFF6ED" stroke-width="0.15" stroke-miterlimit="10" cx="20.3" cy="17" r="0"/>
				<path fill="none" stroke="#FFF6ED" stroke-width="0.15" stroke-linecap="round" stroke-miterlimit="10" d="M19.3,15.9
					c-0.5,0.3-0.9,0.5-1.3,0.5"/>
				<path fill="none" stroke="#FFF6ED" stroke-width="0.15" stroke-linecap="round" stroke-miterlimit="10" d="M20.5,14.7
					c-0.2,0.3-0.5,0.7-0.9,1"/>
				
					<line fill="none" stroke="#FFF6ED" stroke-width="0.1" stroke-linecap="round" stroke-miterlimit="10" x1="22.5" y1="21.6" x2="18.7" y2="16.2"/>
				
					<line fill="none" stroke="#FFF6ED" stroke-width="0.1" stroke-linecap="round" stroke-miterlimit="10" x1="23.9" y1="20.6" x2="20.1" y2="15.3"/>
				<g>
					<path fill="none" stroke="#FFF6ED" stroke-width="0.1" stroke-linecap="round" stroke-miterlimit="10" d="M22,20.9
						c-0.1,0.1-0.3,0-0.4-0.2c-0.1-0.2-0.1-0.3,0-0.4"/>
					<path fill="none" stroke="#FFF6ED" stroke-width="0.1" stroke-linecap="round" stroke-miterlimit="10" d="M22.4,21.5
						c-0.1,0.1-0.3,0-0.4-0.2c-0.1-0.2-0.1-0.3,0-0.4"/>
					<path fill="none" stroke="#FFF6ED" stroke-width="0.1" stroke-linecap="round" stroke-miterlimit="10" d="M20.2,18.4
						c-0.1,0.1-0.3,0-0.4-0.2c-0.1-0.2-0.1-0.3,0-0.4"/>
					<path fill="none" stroke="#FFF6ED" stroke-width="0.1" stroke-linecap="round" stroke-miterlimit="10" d="M20.7,19.1
						c-0.1,0.1-0.3,0-0.4-0.2c-0.1-0.2-0.1-0.3,0-0.4"/>
					<path fill="none" stroke="#FFF6ED" stroke-width="0.1" stroke-linecap="round" stroke-miterlimit="10" d="M21.1,19.7
						c-0.1,0.1-0.3,0-0.4-0.2c-0.1-0.2-0.1-0.3,0-0.4"/>
					<path fill="none" stroke="#FFF6ED" stroke-width="0.1" stroke-linecap="round" stroke-miterlimit="10" d="M21.6,20.3
						c-0.1,0.1-0.3,0-0.4-0.2c-0.1-0.2-0.1-0.3,0-0.4"/>
				</g>
				<g>
					<path fill="none" stroke="#FFF6ED" stroke-width="0.1" stroke-linecap="round" stroke-miterlimit="10" d="M23.4,19.9
						c0.1-0.1,0.1-0.2,0-0.4c-0.1-0.2-0.3-0.2-0.4-0.2"/>
					<path fill="none" stroke="#FFF6ED" stroke-width="0.1" stroke-linecap="round" stroke-miterlimit="10" d="M23.8,20.5
						c0.1-0.1,0.1-0.2,0-0.4c-0.1-0.2-0.3-0.2-0.4-0.2"/>
					<path fill="none" stroke="#FFF6ED" stroke-width="0.1" stroke-linecap="round" stroke-miterlimit="10" d="M21.6,17.4
						c0.1-0.1,0.1-0.2,0-0.4c-0.1-0.2-0.3-0.2-0.4-0.2"/>
					<path fill="none" stroke="#FFF6ED" stroke-width="0.1" stroke-linecap="round" stroke-miterlimit="10" d="M22.1,18
						c0.1-0.1,0.1-0.2,0-0.4c-0.1-0.2-0.3-0.2-0.4-0.2"/>
					<path fill="none" stroke="#FFF6ED" stroke-width="0.1" stroke-linecap="round" stroke-miterlimit="10" d="M22.5,18.6
						c0.1-0.1,0.1-0.2,0-0.4c-0.1-0.2-0.3-0.2-0.4-0.2"/>
					<path fill="none" stroke="#FFF6ED" stroke-width="0.1" stroke-linecap="round" stroke-miterlimit="10" d="M22.9,19.3
						c0.1-0.1,0.1-0.2,0-0.4c-0.1-0.2-0.3-0.2-0.4-0.2"/>
				</g>
				<path fill="none" stroke="#FFF6ED" stroke-width="0.15" stroke-linecap="round" stroke-miterlimit="10" d="M19.2,19.6
					c0.1,0.1,0.5,0.4,0.7,0.3c0.1-0.1-0.2-0.5-0.3-0.6"/>
				<path fill="none" stroke="#FFF6ED" stroke-width="0.15" stroke-linecap="round" stroke-miterlimit="10" d="M23.2,16.8
					c0.1,0.1,0.2,0.6,0,0.7c-0.2,0-0.5-0.4-0.5-0.5"/>
			</g>
		</g>
		<g id="Layer_25_5_">
			<g id="Layer_22_5_">
				<path fill="none" stroke="#FFF6ED" stroke-width="0.15" stroke-miterlimit="10" d="M5.5,6.4C5.4,6.5,5.3,6.6,5.1,6.7
					C4.3,7.1,3.4,6.6,2.6,6.9c-0.7,0.3-1.3,1-1.3,1.8c0,0.8,0.4,1.6,1.1,1.9c0.8,0.4,1.7,0,2.5,0.5c0.1,0.1,0.3,0.2,0.4,0.2
					c1.6,0.9,4,0.6,5.5-0.3c0,0,0.4-0.3,0.5-1.9C11.4,7.7,11,7.3,11,7.3C9.6,6.2,7.2,5.7,5.5,6.4z"/>
			</g>
			<g id="Layer_23_5_">
				<path fill="none" stroke="#FFF6ED" stroke-width="0.15" stroke-miterlimit="10" d="M3.3,7.4c0.9,0,1.3,0.7,1.3,1.5
					c0,0.8-0.5,1.5-1.4,1.4c-0.8-0.1-1.4-0.7-1.4-1.5C1.8,8,2.4,7.4,3.3,7.4z"/>
				<g>
					<path fill="none" stroke="#FFF6ED" stroke-width="0.15" stroke-miterlimit="10" d="M1.7,8.8c0.2,0,0.4,0,0.6-0.2
						c0.2-0.1,0.3-0.3,0.3-0.4C2.7,8,2.9,7.4,3.3,7.4"/>
					<path fill="none" stroke="#FFF6ED" stroke-width="0.15" stroke-miterlimit="10" d="M1.7,8.8c0.2,0,0.4,0.1,0.6,0.2
						s0.2,0.3,0.3,0.5c0.1,0.2,0.2,0.8,0.5,0.8"/>
				</g>
				<path fill="none" stroke="#FFF6ED" stroke-width="0.15" stroke-linecap="round" stroke-miterlimit="10" d="M3.2,8.6
					c0,0-0.1-0.3,0-0.5"/>
				<path fill="none" stroke="#FFF6ED" stroke-width="0.15" stroke-linecap="round" stroke-miterlimit="10" d="M3.2,9.7
					c0,0-0.1-0.3,0-0.5"/>
				<path fill="none" stroke="#FFF6ED" stroke-width="0.15" stroke-linecap="round" stroke-miterlimit="10" d="M3.9,9.1
					C4,9,4,8.8,3.9,8.7"/>
				<g>
					<path fill="none" stroke="#FFF6ED" stroke-width="0.1" stroke-linecap="round" stroke-miterlimit="10" d="M7.2,8.6
						c0,0.1,0.1,0.3,0.1,0.4l0,0C7.3,8.9,7.2,8.8,7,8.8c0,0-0.1,0-0.1,0C6.9,8.9,7,9,7,9c0,0,0,0,0,0c0,0-0.1,0-0.1,0c0,0,0,0,0,0.1
						c0,0.1,0.1,0.1,0.2,0.1c0.1,0,0.2-0.1,0.3-0.2l0,0l0,0c0,0,0,0,0,0c0,0,0,0,0,0C7.3,9.1,7.3,9.3,7.2,9.4c0,0.1,0,0.2,0.1,0.2
						c0,0,0,0,0.1-0.1c0.1-0.2,0-0.3,0.1-0.5c0-0.2,0-0.4,0-0.5c0,0,0-0.1-0.1-0.1C7.3,8.4,7.2,8.6,7.2,8.6z"/>
				</g>
				<path fill="none" stroke="#FFF6ED" stroke-width="0.1" stroke-linecap="round" stroke-miterlimit="10" d="M8.4,8.7
					c0,0.1,0.1,0.3,0.1,0.4l0,0C8.4,9,8.3,8.9,8.2,8.9c0,0-0.1,0-0.1,0C8.1,9,8.1,9.1,8.2,9.1c0,0,0,0,0,0c0,0-0.1,0-0.1,0
					c0,0,0,0,0,0.1c0,0.1,0.1,0.1,0.2,0.1c0.1,0,0.2-0.1,0.3-0.2l0,0l0,0c0,0,0,0,0,0c0,0,0,0,0,0C8.5,9.2,8.4,9.4,8.4,9.5
					c0,0.1,0,0.2,0.1,0.2c0,0,0,0,0.1-0.1c0.1-0.2,0-0.3,0.1-0.5c0-0.2,0-0.4,0-0.5c0,0,0-0.1-0.1-0.1C8.4,8.5,8.4,8.6,8.4,8.7z"/>
				<path fill="none" stroke="#FFF6ED" stroke-width="0.1" stroke-linecap="round" stroke-miterlimit="10" d="M9.6,8.7
					c0,0.1,0.1,0.3,0.1,0.4l0,0C9.6,9,9.5,8.9,9.4,8.9c0,0-0.1,0-0.1,0C9.3,9,9.3,9.1,9.4,9.1c0,0,0,0,0,0c0,0-0.1,0-0.1,0
					c0,0,0,0,0,0.1c0,0.1,0.1,0.1,0.2,0.1c0.1,0,0.2-0.1,0.3-0.2l0,0l0,0c0,0,0,0,0,0c0,0,0,0,0,0C9.7,9.3,9.6,9.4,9.6,9.5
					c0,0.1,0,0.2,0.1,0.2c0,0,0,0,0.1-0.1c0.1-0.2,0-0.3,0.1-0.5c0-0.2,0-0.4,0-0.5c0,0,0-0.1-0.1-0.1C9.6,8.5,9.6,8.7,9.6,8.7z"/>
				<path fill="none" stroke="#FFF6ED" stroke-width="0.1" stroke-linecap="round" stroke-miterlimit="10" d="M10.8,8.8
					c0,0.1,0.1,0.3,0.1,0.4l0,0C10.8,9.1,10.7,9,10.6,9c0,0-0.1,0-0.1,0c-0.1,0.1,0,0.2,0.1,0.2c0,0,0,0,0,0c0,0-0.1,0-0.1,0
					c0,0,0,0,0,0.1c0,0.1,0.1,0.1,0.2,0.1c0.1,0,0.2-0.1,0.3-0.2l0,0l0,0c0,0,0,0,0,0c0,0,0,0,0,0c-0.1,0.1-0.1,0.3-0.2,0.4
					c0,0.1,0,0.2,0.1,0.2c0,0,0,0,0.1-0.1C11,9.5,11,9.4,11,9.2c0-0.2,0-0.4,0-0.5c0,0,0-0.1-0.1-0.1C10.8,8.6,10.8,8.7,10.8,8.8z"
					/>
				
					<circle fill="none" stroke="#FFF6ED" stroke-width="0.15" stroke-linecap="round" stroke-miterlimit="10" cx="4.7" cy="8.9" r="0.2"/>
				<path fill="none" stroke="#FFF6ED" stroke-width="0.15" stroke-miterlimit="10" d="M4.8,9.1c0,0,0.2,0.7,0.8,0.6
					c0,0,0-0.6-0.7-0.7"/>
				<path fill="none" stroke="#FFF6ED" stroke-width="0.15" stroke-miterlimit="10" d="M4.8,8.7c0,0,0.2-0.6,0.8-0.5
					c0,0-0.1,0.6-0.8,0.7"/>
				<circle fill="#FFF6ED" stroke="#FFF6ED" stroke-width="0.15" stroke-miterlimit="10" cx="5.9" cy="9" r="0"/>
				<circle fill="#FFF6ED" stroke="#FFF6ED" stroke-width="0.15" stroke-miterlimit="10" cx="6.3" cy="9" r="0"/>
				<path fill="none" stroke="#FFF6ED" stroke-width="0.15" stroke-linecap="round" stroke-miterlimit="10" d="M4.8,9.1
					c-0.1,0.6-0.2,1-0.5,1.3"/>
				<path fill="none" stroke="#FFF6ED" stroke-width="0.15" stroke-linecap="round" stroke-miterlimit="10" d="M4.6,7.4
					c0.1,0.3,0.3,0.8,0.3,1.3"/>
				
					<line fill="none" stroke="#FFF6ED" stroke-width="0.1" stroke-linecap="round" stroke-miterlimit="10" x1="11.2" y1="10.1" x2="4.7" y2="9.8"/>
				
					<line fill="none" stroke="#FFF6ED" stroke-width="0.1" stroke-linecap="round" stroke-miterlimit="10" x1="11.3" y1="8.4" x2="4.8" y2="8.1"/>
				<g>
					<path fill="none" stroke="#FFF6ED" stroke-width="0.1" stroke-linecap="round" stroke-miterlimit="10" d="M10.4,10.1
						c0,0.1-0.2,0.2-0.4,0.2c-0.2,0-0.4-0.1-0.3-0.2"/>
					<path fill="none" stroke="#FFF6ED" stroke-width="0.1" stroke-linecap="round" stroke-miterlimit="10" d="M11.2,10.1
						c0,0.1-0.2,0.2-0.4,0.2c-0.2,0-0.4-0.1-0.3-0.2"/>
					<path fill="none" stroke="#FFF6ED" stroke-width="0.1" stroke-linecap="round" stroke-miterlimit="10" d="M7.4,9.9
						c0,0.1-0.2,0.2-0.4,0.2c-0.2,0-0.4-0.1-0.3-0.2"/>
					<path fill="none" stroke="#FFF6ED" stroke-width="0.1" stroke-linecap="round" stroke-miterlimit="10" d="M8.1,10
						c0,0.1-0.2,0.2-0.4,0.2c-0.2,0-0.4-0.1-0.3-0.2"/>
					<path fill="none" stroke="#FFF6ED" stroke-width="0.1" stroke-linecap="round" stroke-miterlimit="10" d="M8.9,10
						c0,0.1-0.2,0.2-0.4,0.2c-0.2,0-0.4-0.1-0.3-0.2"/>
					<path fill="none" stroke="#FFF6ED" stroke-width="0.1" stroke-linecap="round" stroke-miterlimit="10" d="M9.7,10
						c0,0.1-0.2,0.2-0.4,0.2C9.1,10.2,9,10.1,9,10"/>
				</g>
				<g>
					<path fill="none" stroke="#FFF6ED" stroke-width="0.1" stroke-linecap="round" stroke-miterlimit="10" d="M10.5,8.3
						c0-0.1-0.2-0.2-0.3-0.2c-0.2,0-0.4,0.1-0.4,0.2"/>
					<path fill="none" stroke="#FFF6ED" stroke-width="0.1" stroke-linecap="round" stroke-miterlimit="10" d="M11.2,8.4
						c0-0.1-0.2-0.2-0.3-0.2c-0.2,0-0.4,0.1-0.4,0.2"/>
					<path fill="none" stroke="#FFF6ED" stroke-width="0.1" stroke-linecap="round" stroke-miterlimit="10" d="M7.4,8.2
						C7.5,8.1,7.3,8,7.1,8C6.9,8,6.7,8.1,6.7,8.2"/>
					<path fill="none" stroke="#FFF6ED" stroke-width="0.1" stroke-linecap="round" stroke-miterlimit="10" d="M8.2,8.2
						C8.2,8.1,8,8,7.8,8C7.7,8,7.5,8.1,7.5,8.2"/>
					<path fill="none" stroke="#FFF6ED" stroke-width="0.1" stroke-linecap="round" stroke-miterlimit="10" d="M8.9,8.3
						c0-0.1-0.2-0.2-0.3-0.2c-0.2,0-0.4,0.1-0.4,0.2"/>
					<path fill="none" stroke="#FFF6ED" stroke-width="0.1" stroke-linecap="round" stroke-miterlimit="10" d="M9.7,8.3
						c0-0.1-0.2-0.2-0.3-0.2C9.2,8.1,9,8.2,9,8.3"/>
				</g>
				<path fill="none" stroke="#FFF6ED" stroke-width="0.15" stroke-linecap="round" stroke-miterlimit="10" d="M7.7,11.5
					c0.1,0,0.7-0.1,0.6-0.4C8.2,11,7.7,11,7.6,11"/>
				<path fill="none" stroke="#FFF6ED" stroke-width="0.15" stroke-linecap="round" stroke-miterlimit="10" d="M7.9,6.6
					c0.1,0,0.6,0.2,0.6,0.4C8.4,7.2,8,7.2,7.9,7.1"/>
			</g>
		</g>
		<g id="Layer_25_2_">
			<g id="Layer_22_2_">
				<path fill="none" stroke="#FFF6ED" stroke-width="0.15" stroke-miterlimit="10" d="M11,21.9c0-0.1-0.1-0.3-0.1-0.4
					c-0.2-0.9,0.5-1.7,0.4-2.5c-0.1-0.8-0.7-1.5-1.5-1.7c-0.8-0.2-1.6,0-2.2,0.6c-0.6,0.7-0.5,1.7-1.1,2.3c-0.1,0.1-0.2,0.2-0.3,0.3
					c-1.3,1.3-1.6,3.7-1.1,5.4c0,0,0.2,0.5,1.7,1c1.5,0.5,2,0.2,2,0.2C10.1,25.9,11.3,23.7,11,21.9z"/>
			</g>
			<g id="Layer_23_2_">
				<path fill="none" stroke="#FFF6ED" stroke-width="0.15" stroke-miterlimit="10" d="M10.6,19.5c-0.2,0.9-1,1.1-1.8,0.9
					c-0.7-0.2-1.3-0.9-1-1.7c0.3-0.8,1.1-1.2,1.8-1C10.4,17.9,10.8,18.7,10.6,19.5z"/>
				<g>
					<path fill="none" stroke="#FFF6ED" stroke-width="0.15" stroke-miterlimit="10" d="M9.7,17.6c-0.1,0.2-0.1,0.4,0,0.6
						c0.1,0.2,0.2,0.3,0.3,0.4c0.2,0.1,0.7,0.5,0.6,0.8"/>
					<path fill="none" stroke="#FFF6ED" stroke-width="0.15" stroke-miterlimit="10" d="M9.7,17.6c-0.1,0.2-0.2,0.4-0.4,0.5
						c-0.2,0.1-0.4,0.2-0.5,0.2c-0.2,0-0.8,0-0.9,0.3"/>
				</g>
				<path fill="none" stroke="#FFF6ED" stroke-width="0.15" stroke-linecap="round" stroke-miterlimit="10" d="M9.5,19.1
					c0,0,0.3-0.1,0.5,0.2"/>
				<path fill="none" stroke="#FFF6ED" stroke-width="0.15" stroke-linecap="round" stroke-miterlimit="10" d="M8.4,18.8
					c0,0,0.3-0.1,0.5,0.2"/>
				<path fill="none" stroke="#FFF6ED" stroke-width="0.15" stroke-linecap="round" stroke-miterlimit="10" d="M8.8,19.7
					c0.1,0.1,0.2,0.2,0.4,0.1"/>
				<g>
					<path fill="none" stroke="#FFF6ED" stroke-width="0.1" stroke-linecap="round" stroke-miterlimit="10" d="M8.4,23
						c-0.1,0-0.3,0-0.4,0l0,0c0.1-0.1,0.2-0.1,0.3-0.3c0,0,0-0.1,0-0.1c0-0.1-0.2,0-0.2,0c0,0,0,0,0,0c0,0,0-0.1,0-0.1
						c0,0,0,0-0.1-0.1c-0.1,0-0.2,0.1-0.1,0.1c0,0.1,0,0.2,0.1,0.3l0,0l0,0c0,0,0,0,0,0c0,0,0,0,0,0c-0.1-0.1-0.2-0.2-0.3-0.3
						c-0.1,0-0.2,0-0.2,0c0,0,0,0,0,0.1C7.6,23,7.8,23,8,23.1c0.2,0,0.3,0.1,0.5,0.1c0,0,0.1,0,0.1,0C8.6,23.1,8.5,23,8.4,23z"/>
				</g>
				<path fill="none" stroke="#FFF6ED" stroke-width="0.1" stroke-linecap="round" stroke-miterlimit="10" d="M8.1,24.1
					c-0.1,0-0.3,0-0.4,0l0,0C7.8,24.1,7.9,24,8,23.9c0,0,0-0.1,0-0.1c0-0.1-0.2,0-0.2,0c0,0,0,0,0,0c0,0,0-0.1,0-0.1
					c0,0,0,0-0.1-0.1c-0.1,0-0.2,0.1-0.1,0.1c0,0.1,0,0.2,0.1,0.3l0,0l0,0c0,0,0,0,0,0c0,0,0,0,0,0c-0.1-0.1-0.2-0.2-0.3-0.3
					c-0.1,0-0.2,0-0.2,0c0,0,0,0,0,0.1c0.1,0.1,0.3,0.1,0.5,0.2c0.2,0,0.3,0.1,0.5,0.1c0,0,0.1,0,0.1,0C8.3,24.2,8.1,24.1,8.1,24.1z
					"/>
				<path fill="none" stroke="#FFF6ED" stroke-width="0.1" stroke-linecap="round" stroke-miterlimit="10" d="M7.7,25.3
					c-0.1,0-0.3,0-0.4,0l0,0c0.1-0.1,0.2-0.1,0.3-0.3c0,0,0-0.1,0-0.1c0-0.1-0.2,0-0.2,0c0,0,0,0,0,0c0,0,0-0.1,0-0.1
					c0,0,0,0-0.1-0.1c-0.1,0-0.2,0.1-0.1,0.1c0,0.1,0,0.2,0.1,0.3l0,0l0,0c0,0,0,0,0,0c0,0,0,0,0,0c-0.1-0.1-0.2-0.2-0.3-0.3
					c-0.1,0-0.2,0-0.2,0c0,0,0,0,0,0.1c0.1,0.1,0.3,0.1,0.5,0.2c0.2,0,0.3,0.1,0.5,0.1c0,0,0.1,0,0.1,0C7.9,25.3,7.8,25.3,7.7,25.3z
					"/>
				<path fill="none" stroke="#FFF6ED" stroke-width="0.1" stroke-linecap="round" stroke-miterlimit="10" d="M7.4,26.4
					c-0.1,0-0.3,0-0.4,0l0,0c0.1-0.1,0.2-0.1,0.3-0.3c0,0,0-0.1,0-0.1c0-0.1-0.2,0-0.2,0c0,0,0,0,0,0c0,0,0-0.1,0-0.1
					C7,26,7,26,7,26c-0.1,0-0.2,0.1-0.1,0.1c0,0.1,0,0.2,0.1,0.3l0,0l0,0c0,0,0,0,0,0c0,0,0,0,0,0c-0.1-0.1-0.2-0.2-0.3-0.3
					c-0.1,0-0.2,0-0.2,0c0,0,0,0,0,0.1c0.1,0.1,0.3,0.1,0.5,0.2c0.2,0,0.3,0.1,0.5,0.1c0,0,0.1,0,0.1,0C7.6,26.5,7.4,26.4,7.4,26.4z
					"/>
				
					<circle fill="none" stroke="#FFF6ED" stroke-width="0.15" stroke-linecap="round" stroke-miterlimit="10" cx="8.8" cy="20.5" r="0.2"/>
				<path fill="none" stroke="#FFF6ED" stroke-width="0.15" stroke-miterlimit="10" d="M8.6,20.5c0,0-0.7,0-0.8,0.6
					c0,0,0.6,0.1,0.9-0.5"/>
				<path fill="none" stroke="#FFF6ED" stroke-width="0.15" stroke-miterlimit="10" d="M8.9,20.7c0,0,0.6,0.4,0.3,0.9
					c0,0-0.6-0.2-0.4-0.9"/>
				<circle fill="#FFF6ED" stroke="#FFF6ED" stroke-width="0.15" stroke-miterlimit="10" cx="8.4" cy="21.7" r="0"/>
				<circle fill="#FFF6ED" stroke="#FFF6ED" stroke-width="0.15" stroke-miterlimit="10" cx="8.3" cy="22" r="0"/>
				<path fill="none" stroke="#FFF6ED" stroke-width="0.15" stroke-linecap="round" stroke-miterlimit="10" d="M8.6,20.5
					c-0.5-0.2-0.9-0.5-1.2-0.8"/>
				<path fill="none" stroke="#FFF6ED" stroke-width="0.15" stroke-linecap="round" stroke-miterlimit="10" d="M10.3,20.7
					c-0.4,0.1-0.8,0-1.3-0.1"/>
				
					<line fill="none" stroke="#FFF6ED" stroke-width="0.1" stroke-linecap="round" stroke-miterlimit="10" x1="6" y1="26.5" x2="7.9" y2="20.2"/>
				
					<line fill="none" stroke="#FFF6ED" stroke-width="0.1" stroke-linecap="round" stroke-miterlimit="10" x1="7.6" y1="27" x2="9.6" y2="20.8"/>
				<g>
					<path fill="none" stroke="#FFF6ED" stroke-width="0.1" stroke-linecap="round" stroke-miterlimit="10" d="M6.2,25.7
						c-0.1,0-0.1-0.2-0.1-0.4C6.2,25.1,6.3,25,6.4,25"/>
					<path fill="none" stroke="#FFF6ED" stroke-width="0.1" stroke-linecap="round" stroke-miterlimit="10" d="M6,26.5
						c-0.1,0-0.1-0.2-0.1-0.4c0.1-0.2,0.2-0.3,0.3-0.3"/>
					<path fill="none" stroke="#FFF6ED" stroke-width="0.1" stroke-linecap="round" stroke-miterlimit="10" d="M7.1,22.8
						C7,22.8,7,22.6,7,22.4c0.1-0.2,0.2-0.3,0.3-0.3"/>
					<path fill="none" stroke="#FFF6ED" stroke-width="0.1" stroke-linecap="round" stroke-miterlimit="10" d="M6.9,23.5
						c-0.1,0-0.1-0.2-0.1-0.4C6.9,23,7,22.8,7.1,22.9"/>
					<path fill="none" stroke="#FFF6ED" stroke-width="0.1" stroke-linecap="round" stroke-miterlimit="10" d="M6.7,24.3
						c-0.1,0-0.1-0.2-0.1-0.4c0.1-0.2,0.2-0.3,0.3-0.3"/>
					<path fill="none" stroke="#FFF6ED" stroke-width="0.1" stroke-linecap="round" stroke-miterlimit="10" d="M6.4,25
						c-0.1,0-0.1-0.2-0.1-0.4c0.1-0.2,0.2-0.3,0.3-0.3"/>
				</g>
				<g>
					<path fill="none" stroke="#FFF6ED" stroke-width="0.1" stroke-linecap="round" stroke-miterlimit="10" d="M7.9,26.2
						c0.1,0,0.2-0.1,0.3-0.3c0.1-0.2,0-0.4-0.1-0.4"/>
					<path fill="none" stroke="#FFF6ED" stroke-width="0.1" stroke-linecap="round" stroke-miterlimit="10" d="M7.7,26.9
						c0.1,0,0.2-0.1,0.3-0.3c0.1-0.2,0-0.4-0.1-0.4"/>
					<path fill="none" stroke="#FFF6ED" stroke-width="0.1" stroke-linecap="round" stroke-miterlimit="10" d="M8.8,23.3
						c0.1,0,0.2-0.1,0.3-0.3c0.1-0.2,0-0.4-0.1-0.4"/>
					<path fill="none" stroke="#FFF6ED" stroke-width="0.1" stroke-linecap="round" stroke-miterlimit="10" d="M8.6,24
						c0.1,0,0.2-0.1,0.3-0.3c0.1-0.2,0-0.4-0.1-0.4"/>
					<path fill="none" stroke="#FFF6ED" stroke-width="0.1" stroke-linecap="round" stroke-miterlimit="10" d="M8.3,24.7
						c0.1,0,0.2-0.1,0.3-0.3c0.1-0.2,0-0.4-0.1-0.4"/>
					<path fill="none" stroke="#FFF6ED" stroke-width="0.1" stroke-linecap="round" stroke-miterlimit="10" d="M8.1,25.5
						c0.1,0,0.2-0.1,0.3-0.3c0.1-0.2,0-0.4-0.1-0.4"/>
				</g>
				<path fill="none" stroke="#FFF6ED" stroke-width="0.15" stroke-linecap="round" stroke-miterlimit="10" d="M5.5,22.7
					c0,0.1,0,0.7,0.2,0.7c0.2,0,0.3-0.5,0.3-0.6"/>
				<path fill="none" stroke="#FFF6ED" stroke-width="0.15" stroke-linecap="round" stroke-miterlimit="10" d="M10.2,24.2
					c0,0.1-0.3,0.6-0.5,0.4c-0.1-0.1,0-0.6,0.1-0.7"/>
			</g>
		</g>
		<g id="Layer_25_4_">
			<g id="Layer_22_4_">
				<path fill="none" stroke="#FFF6ED" stroke-width="0.15" stroke-miterlimit="10" d="M34.7,21.7c0.1,0,0.3,0,0.4,0.1
					c0.9,0.2,1.3,1.1,2.2,1.3c0.8,0.2,1.6,0,2.1-0.7c0.5-0.6,0.6-1.5,0.3-2.2c-0.4-0.8-1.4-1.1-1.7-1.9C38,18.1,38,18,37.9,17.8
					c-0.7-1.7-2.8-2.9-4.5-3.1c0,0-0.6,0-1.6,1.2c-1,1.2-0.9,1.7-0.9,1.7C31.4,19.4,32.9,21.3,34.7,21.7z"/>
			</g>
			<g id="Layer_23_4_">
				<path fill="none" stroke="#FFF6ED" stroke-width="0.15" stroke-miterlimit="10" d="M37.1,22.3c-0.7-0.5-0.6-1.4-0.1-2
					s1.3-0.9,2-0.2c0.6,0.6,0.7,1.4,0.2,2C38.6,22.7,37.7,22.8,37.1,22.3z"/>
				<g>
					<path fill="none" stroke="#FFF6ED" stroke-width="0.15" stroke-miterlimit="10" d="M39.1,22.1c-0.1-0.1-0.4-0.2-0.6-0.2
						S38.2,22,38,22.1c-0.2,0.1-0.7,0.5-0.9,0.2"/>
					<path fill="none" stroke="#FFF6ED" stroke-width="0.15" stroke-miterlimit="10" d="M39.1,22.1c-0.1-0.1-0.3-0.3-0.3-0.5
						s0-0.4,0-0.6c0.1-0.2,0.4-0.8,0.1-1"/>
				</g>
				<path fill="none" stroke="#FFF6ED" stroke-width="0.15" stroke-linecap="round" stroke-miterlimit="10" d="M37.8,21.4
					c0,0-0.1,0.3-0.3,0.4"/>
				<path fill="none" stroke="#FFF6ED" stroke-width="0.15" stroke-linecap="round" stroke-miterlimit="10" d="M38.5,20.5
					c0,0-0.1,0.3-0.3,0.4"/>
				<path fill="none" stroke="#FFF6ED" stroke-width="0.15" stroke-linecap="round" stroke-miterlimit="10" d="M37.6,20.6
					c-0.1,0-0.2,0.1-0.3,0.3"/>
				<g>
					<path fill="none" stroke="#FFF6ED" stroke-width="0.1" stroke-linecap="round" stroke-miterlimit="10" d="M34.7,18.9
						c0.1-0.1,0.1-0.2,0.1-0.4l0,0c0,0.1,0,0.3,0.1,0.4c0,0,0,0,0.1,0c0.1,0,0.1-0.1,0.1-0.2c0,0,0,0,0,0c0,0,0.1,0,0.1,0
						c0,0,0,0,0.1,0c0.1-0.1,0-0.2-0.1-0.2c-0.1,0-0.2-0.1-0.3,0l0,0l0,0c0,0,0,0,0,0c0,0,0,0,0,0c0.1,0,0.3-0.1,0.4-0.2
						c0,0,0.1-0.2,0-0.2c0,0,0,0-0.1,0c-0.2,0.1-0.2,0.2-0.4,0.4c-0.1,0.1-0.3,0.3-0.3,0.4c0,0,0,0.1,0,0.1
						C34.5,19.1,34.6,19,34.7,18.9z"/>
				</g>
				<path fill="none" stroke="#FFF6ED" stroke-width="0.1" stroke-linecap="round" stroke-miterlimit="10" d="M33.8,18.2
					c0.1-0.1,0.1-0.2,0.1-0.4l0,0c0,0.1,0,0.3,0.1,0.4c0,0,0,0,0.1,0c0.1,0,0.1-0.1,0.1-0.2c0,0,0,0,0,0c0,0,0.1,0,0.1,0
					c0,0,0,0,0.1,0c0.1-0.1,0-0.2-0.1-0.2c-0.1,0-0.2-0.1-0.3,0l0,0l0,0c0,0,0,0,0,0c0,0,0,0,0,0c0.1,0,0.3-0.1,0.4-0.2
					c0,0,0.1-0.2,0-0.2c0,0,0,0-0.1,0c-0.2,0.1-0.2,0.2-0.4,0.4c-0.1,0.1-0.3,0.3-0.3,0.4c0,0,0,0.1,0,0.1
					C33.6,18.3,33.7,18.2,33.8,18.2z"/>
				<path fill="none" stroke="#FFF6ED" stroke-width="0.1" stroke-linecap="round" stroke-miterlimit="10" d="M32.8,17.4
					c0.1-0.1,0.1-0.2,0.1-0.4l0,0c0,0.1,0,0.3,0.1,0.4c0,0,0,0,0.1,0c0.1,0,0.1-0.1,0.1-0.2c0,0,0,0,0,0c0,0,0.1,0,0.1,0
					c0,0,0,0,0.1,0c0.1-0.1,0-0.2-0.1-0.2c-0.1,0-0.2-0.1-0.3,0l0,0l0,0c0,0,0,0,0,0c0,0,0,0,0,0c0.1,0,0.3-0.1,0.4-0.2
					c0,0,0.1-0.2,0-0.2c0,0,0,0-0.1,0c-0.2,0.1-0.2,0.2-0.4,0.4c-0.1,0.1-0.3,0.3-0.3,0.4c0,0,0,0.1,0,0.1
					C32.7,17.5,32.8,17.5,32.8,17.4z"/>
				<path fill="none" stroke="#FFF6ED" stroke-width="0.1" stroke-linecap="round" stroke-miterlimit="10" d="M31.9,16.6
					c0.1-0.1,0.1-0.2,0.1-0.4l0,0c0,0.1,0,0.3,0.1,0.4c0,0,0,0,0.1,0c0.1,0,0.1-0.1,0.1-0.2c0,0,0,0,0,0c0,0,0.1,0,0.1,0
					c0,0,0,0,0.1,0c0.1-0.1,0-0.2-0.1-0.2c-0.1,0-0.2-0.1-0.3,0l0,0l0,0c0,0,0,0,0,0c0,0,0,0,0,0c0.1,0,0.3-0.1,0.4-0.2
					c0,0,0.1-0.2,0-0.2c0,0,0,0-0.1,0c-0.2,0.1-0.2,0.2-0.4,0.4c-0.1,0.1-0.3,0.3-0.3,0.4c0,0,0,0.1,0,0.1
					C31.8,16.8,31.9,16.7,31.9,16.6z"/>
				
					<circle fill="none" stroke="#FFF6ED" stroke-width="0.15" stroke-linecap="round" stroke-miterlimit="10" cx="36.8" cy="20.2" r="0.2"/>
				<path fill="none" stroke="#FFF6ED" stroke-width="0.15" stroke-miterlimit="10" d="M36.9,20c0,0,0.3-0.6-0.3-1
					c0,0-0.4,0.5,0.1,1"/>
				<path fill="none" stroke="#FFF6ED" stroke-width="0.15" stroke-miterlimit="10" d="M36.6,20.3c0,0-0.6,0.4-1-0.1
					c0,0,0.4-0.4,1-0.1"/>
				<circle fill="#FFF6ED" stroke="#FFF6ED" stroke-width="0.15" stroke-miterlimit="10" cx="35.9" cy="19.4" r="0"/>
				<circle fill="#FFF6ED" stroke="#FFF6ED" stroke-width="0.15" stroke-miterlimit="10" cx="35.7" cy="19.2" r="0"/>
				<path fill="none" stroke="#FFF6ED" stroke-width="0.15" stroke-linecap="round" stroke-miterlimit="10" d="M36.9,20
					c0.4-0.4,0.8-0.7,1.2-0.8"/>
				<path fill="none" stroke="#FFF6ED" stroke-width="0.15" stroke-linecap="round" stroke-miterlimit="10" d="M36,21.5
					c0.1-0.4,0.3-0.8,0.6-1.2"/>
				
					<line fill="none" stroke="#FFF6ED" stroke-width="0.1" stroke-linecap="round" stroke-miterlimit="10" x1="32.4" y1="15.3" x2="37.4" y2="19.5"/>
				
					<line fill="none" stroke="#FFF6ED" stroke-width="0.1" stroke-linecap="round" stroke-miterlimit="10" x1="31.3" y1="16.6" x2="36.3" y2="20.8"/>
				<g>
					<path fill="none" stroke="#FFF6ED" stroke-width="0.1" stroke-linecap="round" stroke-miterlimit="10" d="M33,15.8
						c0.1-0.1,0.3,0,0.4,0.1c0.1,0.1,0.2,0.3,0.1,0.4"/>
					<path fill="none" stroke="#FFF6ED" stroke-width="0.1" stroke-linecap="round" stroke-miterlimit="10" d="M32.4,15.3
						c0.1-0.1,0.3,0,0.4,0.1c0.1,0.1,0.2,0.3,0.1,0.4"/>
					<path fill="none" stroke="#FFF6ED" stroke-width="0.1" stroke-linecap="round" stroke-miterlimit="10" d="M35.3,17.8
						c0.1-0.1,0.3,0,0.4,0.1s0.2,0.3,0.1,0.4"/>
					<path fill="none" stroke="#FFF6ED" stroke-width="0.1" stroke-linecap="round" stroke-miterlimit="10" d="M34.7,17.3
						c0.1-0.1,0.3,0,0.4,0.1s0.2,0.3,0.1,0.4"/>
					<path fill="none" stroke="#FFF6ED" stroke-width="0.1" stroke-linecap="round" stroke-miterlimit="10" d="M34.2,16.8
						c0.1-0.1,0.3,0,0.4,0.1c0.1,0.1,0.2,0.3,0.1,0.4"/>
					<path fill="none" stroke="#FFF6ED" stroke-width="0.1" stroke-linecap="round" stroke-miterlimit="10" d="M33.6,16.3
						c0.1-0.1,0.3,0,0.4,0.1s0.2,0.3,0.1,0.4"/>
				</g>
				<g>
					<path fill="none" stroke="#FFF6ED" stroke-width="0.1" stroke-linecap="round" stroke-miterlimit="10" d="M31.9,17.2
						c-0.1,0.1,0,0.3,0.1,0.4c0.1,0.1,0.3,0.2,0.4,0.1"/>
					<path fill="none" stroke="#FFF6ED" stroke-width="0.1" stroke-linecap="round" stroke-miterlimit="10" d="M31.3,16.7
						c-0.1,0.1,0,0.3,0.1,0.4c0.1,0.1,0.3,0.2,0.4,0.1"/>
					<path fill="none" stroke="#FFF6ED" stroke-width="0.1" stroke-linecap="round" stroke-miterlimit="10" d="M34.2,19.1
						c-0.1,0.1,0,0.3,0.1,0.4c0.1,0.1,0.3,0.2,0.4,0.1"/>
					<path fill="none" stroke="#FFF6ED" stroke-width="0.1" stroke-linecap="round" stroke-miterlimit="10" d="M33.7,18.6
						c-0.1,0.1,0,0.3,0.1,0.4c0.1,0.1,0.3,0.2,0.4,0.1"/>
					<path fill="none" stroke="#FFF6ED" stroke-width="0.1" stroke-linecap="round" stroke-miterlimit="10" d="M33.1,18.2
						c-0.1,0.1,0,0.3,0.1,0.4c0.1,0.1,0.3,0.2,0.4,0.1"/>
					<path fill="none" stroke="#FFF6ED" stroke-width="0.1" stroke-linecap="round" stroke-miterlimit="10" d="M32.5,17.7
						c-0.1,0.1,0,0.3,0.1,0.4c0.1,0.1,0.3,0.2,0.4,0.1"/>
				</g>
				<path fill="none" stroke="#FFF6ED" stroke-width="0.15" stroke-linecap="round" stroke-miterlimit="10" d="M36.1,16.3
					c-0.1-0.1-0.6-0.3-0.7-0.1c-0.1,0.2,0.3,0.5,0.4,0.5"/>
				<path fill="none" stroke="#FFF6ED" stroke-width="0.15" stroke-linecap="round" stroke-miterlimit="10" d="M32.9,20.1
					c-0.1-0.1-0.4-0.5-0.2-0.7c0.2-0.1,0.5,0.2,0.6,0.3"/>
			</g>
		</g>
		<g id="Layer_25_3_">
			<g id="Layer_22_3_">
				<path fill="none" stroke="#FFF6ED" stroke-width="0.15" stroke-miterlimit="10" d="M45.1,6.5c0.1,0.1,0.2,0.3,0.2,0.4
					c0.4,0.8-0.1,1.7,0.3,2.5c0.3,0.7,1,1.3,1.8,1.3c0.8,0,1.6-0.4,2-1.1c0.4-0.8,0-1.7,0.5-2.5C49.9,7,50,6.9,50.1,6.8
					c0.9-1.6,0.6-4-0.3-5.5c0,0-0.3-0.4-1.9-0.5c-1.6-0.1-1.9,0.3-1.9,0.3C44.9,2.5,44.3,4.8,45.1,6.5z"/>
			</g>
			<g id="Layer_23_3_">
				<path fill="none" stroke="#FFF6ED" stroke-width="0.15" stroke-miterlimit="10" d="M46.1,8.8c0-0.9,0.7-1.3,1.5-1.3
					s1.5,0.5,1.4,1.4c-0.1,0.8-0.7,1.4-1.5,1.4C46.6,10.3,46.1,9.6,46.1,8.8z"/>
				<g>
					<path fill="none" stroke="#FFF6ED" stroke-width="0.15" stroke-miterlimit="10" d="M47.4,10.3c0-0.2,0-0.4-0.2-0.6
						c-0.1-0.2-0.3-0.3-0.4-0.3c-0.2-0.1-0.8-0.3-0.8-0.6"/>
					<path fill="none" stroke="#FFF6ED" stroke-width="0.15" stroke-miterlimit="10" d="M47.4,10.3c0-0.2,0.1-0.4,0.2-0.6
						c0.1-0.2,0.3-0.2,0.5-0.3c0.2-0.1,0.8-0.2,0.8-0.5"/>
				</g>
				<path fill="none" stroke="#FFF6ED" stroke-width="0.15" stroke-linecap="round" stroke-miterlimit="10" d="M47.2,8.8
					c0,0-0.3,0.1-0.5,0"/>
				<path fill="none" stroke="#FFF6ED" stroke-width="0.15" stroke-linecap="round" stroke-miterlimit="10" d="M48.3,8.9
					c0,0-0.3,0.1-0.5,0"/>
				<path fill="none" stroke="#FFF6ED" stroke-width="0.15" stroke-linecap="round" stroke-miterlimit="10" d="M47.7,8.2
					c-0.1-0.1-0.3-0.1-0.4,0"/>
				<g>
					<path fill="none" stroke="#FFF6ED" stroke-width="0.1" stroke-linecap="round" stroke-miterlimit="10" d="M47.3,4.8
						c0.1,0,0.3-0.1,0.4-0.1l0,0c-0.1,0.1-0.2,0.2-0.2,0.3c0,0,0,0.1,0,0.1c0.1,0.1,0.2,0,0.2-0.1c0,0,0,0,0,0c0,0,0,0.1,0,0.1
						c0,0,0,0,0.1,0c0.1,0,0.1-0.1,0.1-0.2c0-0.1-0.1-0.2-0.2-0.3l0,0l0,0c0,0,0,0,0,0c0,0,0,0,0,0c0.1,0.1,0.3,0.1,0.4,0.2
						c0.1,0,0.2,0,0.2-0.1c0,0,0,0-0.1-0.1c-0.2-0.1-0.3,0-0.5-0.1c-0.2,0-0.4,0-0.5,0c0,0-0.1,0-0.1,0.1
						C47.1,4.8,47.2,4.8,47.3,4.8z"/>
				</g>
				<path fill="none" stroke="#FFF6ED" stroke-width="0.1" stroke-linecap="round" stroke-miterlimit="10" d="M47.3,3.6
					c0.1,0,0.3-0.1,0.4-0.1l0,0c-0.1,0.1-0.2,0.2-0.2,0.3c0,0,0,0.1,0,0.1c0.1,0.1,0.2,0,0.2-0.1c0,0,0,0,0,0c0,0,0,0.1,0,0.1
					c0,0,0,0,0.1,0c0.1,0,0.1-0.1,0.1-0.2c0-0.1-0.1-0.2-0.2-0.3l0,0l0,0c0,0,0,0,0,0c0,0,0,0,0,0c0.1,0.1,0.3,0.1,0.4,0.2
					c0.1,0,0.2,0,0.2-0.1c0,0,0,0-0.1-0.1c-0.2-0.1-0.3,0-0.5-0.1c-0.2,0-0.4,0-0.5,0c0,0-0.1,0-0.1,0.1C47.1,3.6,47.3,3.6,47.3,3.6
					z"/>
				<path fill="none" stroke="#FFF6ED" stroke-width="0.1" stroke-linecap="round" stroke-miterlimit="10" d="M47.4,2.4
					c0.1,0,0.3-0.1,0.4-0.1l0,0c-0.1,0.1-0.2,0.2-0.2,0.3c0,0,0,0.1,0,0.1c0.1,0.1,0.2,0,0.2-0.1c0,0,0,0,0,0c0,0,0,0.1,0,0.1
					c0,0,0,0,0.1,0C48,2.7,48,2.6,48,2.6c0-0.1-0.1-0.2-0.2-0.3l0,0l0,0c0,0,0,0,0,0c0,0,0,0,0,0c0.1,0.1,0.3,0.1,0.4,0.2
					c0.1,0,0.2,0,0.2-0.1c0,0,0,0-0.1-0.1c-0.2-0.1-0.3,0-0.5-0.1c-0.2,0-0.4,0-0.5,0c0,0-0.1,0-0.1,0.1C47.2,2.4,47.3,2.5,47.4,2.4
					z"/>
				<path fill="none" stroke="#FFF6ED" stroke-width="0.1" stroke-linecap="round" stroke-miterlimit="10" d="M47.4,1.3
					c0.1,0,0.3-0.1,0.4-0.1l0,0c-0.1,0.1-0.2,0.2-0.2,0.3c0,0,0,0.1,0,0.1c0.1,0.1,0.2,0,0.2-0.1c0,0,0,0,0,0c0,0,0,0.1,0,0.1
					c0,0,0,0,0.1,0c0.1,0,0.1-0.1,0.1-0.2c0-0.1-0.1-0.2-0.2-0.3l0,0l0,0c0,0,0,0,0,0c0,0,0,0,0,0c0.1,0.1,0.3,0.1,0.4,0.2
					c0.1,0,0.2,0,0.2-0.1c0,0,0,0-0.1-0.1c-0.2-0.1-0.3,0-0.5-0.1c-0.2,0-0.4,0-0.5,0c0,0-0.1,0-0.1,0.1C47.2,1.3,47.4,1.3,47.4,1.3
					z"/>
				
					<circle fill="none" stroke="#FFF6ED" stroke-width="0.15" stroke-linecap="round" stroke-miterlimit="10" cx="47.6" cy="7.3" r="0.2"/>
				<path fill="none" stroke="#FFF6ED" stroke-width="0.15" stroke-miterlimit="10" d="M47.7,7.2c0,0,0.7-0.2,0.6-0.8
					c0,0-0.6,0-0.7,0.7"/>
				<path fill="none" stroke="#FFF6ED" stroke-width="0.15" stroke-miterlimit="10" d="M47.4,7.2c0,0-0.6-0.2-0.5-0.8
					c0,0,0.6,0.1,0.7,0.8"/>
				<circle fill="#FFF6ED" stroke="#FFF6ED" stroke-width="0.15" stroke-miterlimit="10" cx="47.6" cy="6.1" r="0"/>
				<circle fill="#FFF6ED" stroke="#FFF6ED" stroke-width="0.15" stroke-miterlimit="10" cx="47.6" cy="5.8" r="0"/>
				<path fill="none" stroke="#FFF6ED" stroke-width="0.15" stroke-linecap="round" stroke-miterlimit="10" d="M47.7,7.2
					c0.6,0.1,1,0.2,1.3,0.5"/>
				<path fill="none" stroke="#FFF6ED" stroke-width="0.15" stroke-linecap="round" stroke-miterlimit="10" d="M46.1,7.5
					c0.3-0.1,0.8-0.3,1.3-0.3"/>
				
					<line fill="none" stroke="#FFF6ED" stroke-width="0.1" stroke-linecap="round" stroke-miterlimit="10" x1="48.8" y1="0.8" x2="48.5" y2="7.4"/>
				
					<line fill="none" stroke="#FFF6ED" stroke-width="0.1" stroke-linecap="round" stroke-miterlimit="10" x1="47" y1="0.7" x2="46.7" y2="7.3"/>
				<g>
					<path fill="none" stroke="#FFF6ED" stroke-width="0.1" stroke-linecap="round" stroke-miterlimit="10" d="M48.7,1.6
						c0.1,0,0.2,0.2,0.2,0.4c0,0.2-0.1,0.4-0.2,0.3"/>
					<path fill="none" stroke="#FFF6ED" stroke-width="0.1" stroke-linecap="round" stroke-miterlimit="10" d="M48.8,0.9
						c0.1,0,0.2,0.2,0.2,0.4c0,0.2-0.1,0.4-0.2,0.3"/>
					<path fill="none" stroke="#FFF6ED" stroke-width="0.1" stroke-linecap="round" stroke-miterlimit="10" d="M48.6,4.7
						c0.1,0,0.2,0.2,0.2,0.4c0,0.2-0.1,0.4-0.2,0.3"/>
					<path fill="none" stroke="#FFF6ED" stroke-width="0.1" stroke-linecap="round" stroke-miterlimit="10" d="M48.6,3.9
						c0.1,0,0.2,0.2,0.2,0.4c0,0.2-0.1,0.4-0.2,0.3"/>
					<path fill="none" stroke="#FFF6ED" stroke-width="0.1" stroke-linecap="round" stroke-miterlimit="10" d="M48.7,3.2
						c0.1,0,0.2,0.2,0.2,0.4c0,0.2-0.1,0.4-0.2,0.3"/>
					<path fill="none" stroke="#FFF6ED" stroke-width="0.1" stroke-linecap="round" stroke-miterlimit="10" d="M48.7,2.4
						c0.1,0,0.2,0.2,0.2,0.4c0,0.2-0.1,0.4-0.2,0.3"/>
				</g>
				<g>
					<path fill="none" stroke="#FFF6ED" stroke-width="0.1" stroke-linecap="round" stroke-miterlimit="10" d="M47,1.6
						c-0.1,0-0.2,0.2-0.2,0.3c0,0.2,0.1,0.4,0.2,0.4"/>
					<path fill="none" stroke="#FFF6ED" stroke-width="0.1" stroke-linecap="round" stroke-miterlimit="10" d="M47,0.8
						c-0.1,0-0.2,0.2-0.2,0.3c0,0.2,0.1,0.4,0.2,0.4"/>
					<path fill="none" stroke="#FFF6ED" stroke-width="0.1" stroke-linecap="round" stroke-miterlimit="10" d="M46.9,4.6
						c-0.1,0-0.2,0.2-0.2,0.3c0,0.2,0.1,0.4,0.2,0.4"/>
					<path fill="none" stroke="#FFF6ED" stroke-width="0.1" stroke-linecap="round" stroke-miterlimit="10" d="M46.9,3.9
						c-0.1,0-0.2,0.2-0.2,0.3c0,0.2,0.1,0.4,0.2,0.4"/>
					<path fill="none" stroke="#FFF6ED" stroke-width="0.1" stroke-linecap="round" stroke-miterlimit="10" d="M46.9,3.1
						c-0.1,0-0.2,0.2-0.2,0.3c0,0.2,0.1,0.4,0.2,0.4"/>
					<path fill="none" stroke="#FFF6ED" stroke-width="0.1" stroke-linecap="round" stroke-miterlimit="10" d="M47,2.4
						c-0.1,0-0.2,0.2-0.2,0.3c0,0.2,0.1,0.4,0.2,0.4"/>
				</g>
				<path fill="none" stroke="#FFF6ED" stroke-width="0.15" stroke-linecap="round" stroke-miterlimit="10" d="M50.2,4.4
					c0-0.1-0.1-0.7-0.4-0.6c-0.2,0.1-0.2,0.5-0.2,0.6"/>
				<path fill="none" stroke="#FFF6ED" stroke-width="0.15" stroke-linecap="round" stroke-miterlimit="10" d="M45.3,4.1
					c0-0.1,0.2-0.6,0.4-0.6c0.2,0.1,0.1,0.6,0.1,0.7"/>
			</g>
		</g>
		<g id="Layer_25_13_">
			<g id="Layer_22_13_">
				<path fill="none" stroke="#FFF6ED" stroke-width="0.15" stroke-miterlimit="10" d="M56.5,8.4c-0.1,0.1-0.2,0.2-0.4,0.3
					c-0.7,0.5-1.7,0.2-2.5,0.7c-0.7,0.4-1.1,1.2-1,2c0.1,0.8,0.7,1.5,1.4,1.7c0.9,0.3,1.7-0.3,2.5,0.1c0.1,0,0.3,0.1,0.4,0.2
					c1.7,0.6,4-0.1,5.3-1.2c0,0,0.4-0.4,0.2-2C62.4,8.6,62,8.3,62,8.3C60.4,7.5,58,7.3,56.5,8.4z"/>
			</g>
			<g id="Layer_23_13_">
				<path fill="none" stroke="#FFF6ED" stroke-width="0.15" stroke-miterlimit="10" d="M54.4,9.7c0.9-0.2,1.4,0.5,1.5,1.3
					c0.1,0.8-0.3,1.5-1.2,1.6c-0.8,0-1.5-0.5-1.6-1.3C53,10.5,53.6,9.9,54.4,9.7z"/>
				<g>
					<path fill="none" stroke="#FFF6ED" stroke-width="0.15" stroke-miterlimit="10" d="M53.1,11.3c0.2,0,0.4-0.1,0.6-0.3
						c0.1-0.1,0.2-0.3,0.3-0.5c0-0.2,0.1-0.8,0.5-0.8"/>
					<path fill="none" stroke="#FFF6ED" stroke-width="0.15" stroke-miterlimit="10" d="M53.1,11.3c0.2,0,0.4,0,0.6,0.1
						c0.2,0.1,0.3,0.3,0.4,0.4c0.1,0.2,0.3,0.8,0.6,0.7"/>
				</g>
				<path fill="none" stroke="#FFF6ED" stroke-width="0.15" stroke-linecap="round" stroke-miterlimit="10" d="M54.5,10.9
					c0,0-0.2-0.3-0.1-0.5"/>
				<path fill="none" stroke="#FFF6ED" stroke-width="0.15" stroke-linecap="round" stroke-miterlimit="10" d="M54.7,11.9
					c0,0-0.2-0.3-0.1-0.5"/>
				<path fill="none" stroke="#FFF6ED" stroke-width="0.15" stroke-linecap="round" stroke-miterlimit="10" d="M55.3,11.2
					c0.1-0.1,0.1-0.3,0-0.4"/>
				
					<circle fill="none" stroke="#FFF6ED" stroke-width="0.15" stroke-linecap="round" stroke-miterlimit="10" cx="56.1" cy="10.9" r="0.2"/>
				<path fill="none" stroke="#FFF6ED" stroke-width="0.15" stroke-miterlimit="10" d="M56.2,11.1c0,0,0.3,0.6,0.9,0.5
					c0,0-0.1-0.6-0.8-0.6"/>
				<path fill="none" stroke="#FFF6ED" stroke-width="0.15" stroke-miterlimit="10" d="M56.2,10.7c0,0,0.1-0.7,0.7-0.6
					c0,0,0,0.6-0.6,0.8"/>
				<path fill="none" stroke="#FFF6ED" stroke-width="0.15" stroke-linecap="round" stroke-miterlimit="10" d="M56.2,11.1
					c0,0.6,0,1-0.2,1.4"/>
				<path fill="none" stroke="#FFF6ED" stroke-width="0.15" stroke-linecap="round" stroke-miterlimit="10" d="M55.7,9.5
					c0.2,0.3,0.4,0.7,0.5,1.3"/>
				
					<line fill="none" stroke="#FFF6ED" stroke-width="0.1" stroke-linecap="round" stroke-miterlimit="10" x1="62.7" y1="11" x2="56.2" y2="11.8"/>
				
					<line fill="none" stroke="#FFF6ED" stroke-width="0.1" stroke-linecap="round" stroke-miterlimit="10" x1="62.5" y1="9.3" x2="56" y2="10.1"/>
			</g>
		</g>
		<g id="Layer_25_9_">
			<g id="Layer_22_9_">
				<path fill="none" stroke="#FFF6ED" stroke-width="0.15" stroke-miterlimit="10" d="M28.7,29.4c0.1,0,0.3-0.1,0.4-0.1
					c0.9-0.2,1.6,0.6,2.5,0.4c0.8-0.1,1.5-0.6,1.8-1.4c0.3-0.8,0-1.6-0.5-2.2c-0.6-0.6-1.7-0.5-2.3-1.2c-0.1-0.1-0.2-0.2-0.3-0.3
					c-1.3-1.3-3.7-1.7-5.4-1.2c0,0-0.5,0.2-1,1.7s-0.2,2-0.2,2C24.7,28.5,26.9,29.7,28.7,29.4z"/>
			</g>
			<g id="Layer_23_9_">
				<path fill="none" stroke="#FFF6ED" stroke-width="0.15" stroke-miterlimit="10" d="M31.1,29.1c-0.9-0.2-1.1-1-0.8-1.8
					c0.3-0.7,0.9-1.3,1.7-0.9c0.8,0.3,1.2,1.1,0.9,1.8S31.9,29.3,31.1,29.1z"/>
				<g>
					<path fill="none" stroke="#FFF6ED" stroke-width="0.15" stroke-miterlimit="10" d="M33,28.2c-0.2-0.1-0.4-0.1-0.6,0
						c-0.2,0.1-0.3,0.2-0.5,0.3c-0.1,0.2-0.5,0.7-0.8,0.6"/>
					<path fill="none" stroke="#FFF6ED" stroke-width="0.15" stroke-miterlimit="10" d="M33,28.2c-0.2-0.1-0.4-0.2-0.5-0.4
						c-0.1-0.2-0.2-0.4-0.2-0.5c0-0.2,0-0.8-0.3-0.9"/>
				</g>
				<path fill="none" stroke="#FFF6ED" stroke-width="0.15" stroke-linecap="round" stroke-miterlimit="10" d="M31.5,28
					c0,0,0.1,0.3-0.2,0.5"/>
				<path fill="none" stroke="#FFF6ED" stroke-width="0.15" stroke-linecap="round" stroke-miterlimit="10" d="M31.8,27
					c0,0,0.1,0.3-0.2,0.5"/>
				<path fill="none" stroke="#FFF6ED" stroke-width="0.15" stroke-linecap="round" stroke-miterlimit="10" d="M31,27.3
					c-0.1,0.1-0.2,0.2-0.1,0.4"/>
				<g>
					<path fill="none" stroke="#FFF6ED" stroke-width="0.1" stroke-linecap="round" stroke-miterlimit="10" d="M27.6,26.9
						c0-0.1,0-0.3,0-0.4l0,0c0.1,0.1,0.1,0.2,0.2,0.3c0,0,0.1,0,0.1,0c0.1,0,0.1-0.2,0-0.2c0,0,0,0,0,0c0,0,0.1,0,0.1,0
						c0,0,0,0,0.1-0.1c0-0.1-0.1-0.2-0.1-0.1c-0.1,0-0.2,0-0.3,0.1l0,0l0,0c0,0,0,0,0,0c0,0,0,0,0,0c0.1-0.1,0.2-0.2,0.3-0.3
						c0-0.1,0-0.2,0-0.2c0,0,0,0-0.1,0c-0.1,0.1-0.1,0.3-0.2,0.5c-0.1,0.2-0.1,0.3-0.1,0.5c0,0,0,0.1,0,0.1
						C27.6,27,27.6,26.9,27.6,26.9z"/>
				</g>
				<path fill="none" stroke="#FFF6ED" stroke-width="0.1" stroke-linecap="round" stroke-miterlimit="10" d="M26.5,26.5
					c0-0.1,0-0.3,0-0.4l0,0c0.1,0.1,0.1,0.2,0.2,0.3c0,0,0.1,0,0.1,0c0.1,0,0.1-0.2,0-0.2c0,0,0,0,0,0c0,0,0.1,0,0.1,0
					c0,0,0,0,0.1-0.1c0-0.1-0.1-0.2-0.1-0.1c-0.1,0-0.2,0-0.3,0.1l0,0l0,0c0,0,0,0,0,0c0,0,0,0,0,0c0.1-0.1,0.2-0.2,0.3-0.3
					c0-0.1,0-0.2,0-0.2c0,0,0,0-0.1,0c-0.1,0.1-0.1,0.3-0.2,0.5c-0.1,0.2-0.1,0.3-0.1,0.5c0,0,0,0.1,0,0.1
					C26.4,26.7,26.5,26.6,26.5,26.5z"/>
				<path fill="none" stroke="#FFF6ED" stroke-width="0.1" stroke-linecap="round" stroke-miterlimit="10" d="M25.4,26.1
					c0-0.1,0-0.3,0-0.4l0,0c0.1,0.1,0.1,0.2,0.2,0.3c0,0,0.1,0,0.1,0c0.1,0,0.1-0.2,0-0.2c0,0,0,0,0,0c0,0,0.1,0,0.1,0
					c0,0,0,0,0.1-0.1c0-0.1-0.1-0.2-0.1-0.1c-0.1,0-0.2,0-0.3,0.1l0,0l0,0c0,0,0,0,0,0c0,0,0,0,0,0c0.1-0.1,0.2-0.2,0.3-0.3
					c0-0.1,0-0.2,0-0.2c0,0,0,0-0.1,0c-0.1,0.1-0.1,0.3-0.2,0.5c-0.1,0.2-0.1,0.3-0.1,0.5c0,0,0,0.1,0,0.1
					C25.3,26.3,25.4,26.2,25.4,26.1z"/>
				<path fill="none" stroke="#FFF6ED" stroke-width="0.1" stroke-linecap="round" stroke-miterlimit="10" d="M24.3,25.7
					c0-0.1,0-0.3,0-0.4l0,0c0.1,0.1,0.1,0.2,0.2,0.3c0,0,0.1,0,0.1,0c0.1,0,0.1-0.2,0-0.2c0,0,0,0,0,0c0,0,0.1,0,0.1,0
					c0,0,0,0,0.1-0.1c0-0.1-0.1-0.2-0.1-0.1c-0.1,0-0.2,0-0.3,0.1l0,0l0,0c0,0,0,0,0,0c0,0,0,0,0,0c0.1-0.1,0.2-0.2,0.3-0.3
					c0-0.1,0-0.2,0-0.2c0,0,0,0-0.1,0c-0.1,0.1-0.1,0.3-0.2,0.5c-0.1,0.2-0.1,0.3-0.1,0.5c0,0,0,0.1,0,0.1
					C24.2,25.9,24.3,25.8,24.3,25.7z"/>
				
					<circle fill="none" stroke="#FFF6ED" stroke-width="0.15" stroke-linecap="round" stroke-miterlimit="10" cx="30.1" cy="27.3" r="0.2"/>
				<path fill="none" stroke="#FFF6ED" stroke-width="0.15" stroke-miterlimit="10" d="M30.1,27.1c0,0,0-0.7-0.6-0.8
					c0,0-0.2,0.6,0.5,0.9"/>
				<path fill="none" stroke="#FFF6ED" stroke-width="0.15" stroke-miterlimit="10" d="M30,27.4c0,0-0.4,0.6-1,0.3
					c0,0,0.2-0.5,0.9-0.4"/>
				<circle fill="#FFF6ED" stroke="#FFF6ED" stroke-width="0.15" stroke-miterlimit="10" cx="29" cy="26.9" r="0"/>
				<circle fill="#FFF6ED" stroke="#FFF6ED" stroke-width="0.15" stroke-miterlimit="10" cx="28.7" cy="26.8" r="0"/>
				<path fill="none" stroke="#FFF6ED" stroke-width="0.15" stroke-linecap="round" stroke-miterlimit="10" d="M30.1,27.1
					c0.2-0.5,0.5-0.9,0.8-1.1"/>
				<path fill="none" stroke="#FFF6ED" stroke-width="0.15" stroke-linecap="round" stroke-miterlimit="10" d="M29.9,28.8
					c0-0.4,0-0.8,0.1-1.3"/>
				
					<line fill="none" stroke="#FFF6ED" stroke-width="0.1" stroke-linecap="round" stroke-miterlimit="10" x1="24.2" y1="24.3" x2="30.4" y2="26.4"/>
				
					<line fill="none" stroke="#FFF6ED" stroke-width="0.1" stroke-linecap="round" stroke-miterlimit="10" x1="23.6" y1="26" x2="29.8" y2="28.1"/>
				<g>
					<path fill="none" stroke="#FFF6ED" stroke-width="0.1" stroke-linecap="round" stroke-miterlimit="10" d="M25,24.6
						c0-0.1,0.2-0.1,0.4-0.1c0.2,0.1,0.3,0.2,0.3,0.3"/>
					<path fill="none" stroke="#FFF6ED" stroke-width="0.1" stroke-linecap="round" stroke-miterlimit="10" d="M24.3,24.3
						c0-0.1,0.2-0.1,0.4-0.1c0.2,0.1,0.3,0.2,0.3,0.3"/>
					<path fill="none" stroke="#FFF6ED" stroke-width="0.1" stroke-linecap="round" stroke-miterlimit="10" d="M27.9,25.6
						c0-0.1,0.2-0.1,0.4-0.1c0.2,0.1,0.3,0.2,0.3,0.3"/>
					<path fill="none" stroke="#FFF6ED" stroke-width="0.1" stroke-linecap="round" stroke-miterlimit="10" d="M27.1,25.3
						c0-0.1,0.2-0.1,0.4-0.1c0.2,0.1,0.3,0.2,0.3,0.3"/>
					<path fill="none" stroke="#FFF6ED" stroke-width="0.1" stroke-linecap="round" stroke-miterlimit="10" d="M26.4,25.1
						c0-0.1,0.2-0.1,0.4-0.1c0.2,0.1,0.3,0.2,0.3,0.3"/>
					<path fill="none" stroke="#FFF6ED" stroke-width="0.1" stroke-linecap="round" stroke-miterlimit="10" d="M25.7,24.8
						c0-0.1,0.2-0.1,0.4-0.1c0.2,0.1,0.3,0.2,0.3,0.3"/>
				</g>
				<g>
					<path fill="none" stroke="#FFF6ED" stroke-width="0.1" stroke-linecap="round" stroke-miterlimit="10" d="M24.5,26.2
						c0,0.1,0.1,0.2,0.3,0.3c0.2,0.1,0.4,0,0.4-0.1"/>
					<path fill="none" stroke="#FFF6ED" stroke-width="0.1" stroke-linecap="round" stroke-miterlimit="10" d="M23.7,26
						c0,0.1,0.1,0.2,0.3,0.3c0.2,0.1,0.4,0,0.4-0.1"/>
					<path fill="none" stroke="#FFF6ED" stroke-width="0.1" stroke-linecap="round" stroke-miterlimit="10" d="M27.3,27.2
						c0,0.1,0.1,0.2,0.3,0.3s0.4,0,0.4-0.1"/>
					<path fill="none" stroke="#FFF6ED" stroke-width="0.1" stroke-linecap="round" stroke-miterlimit="10" d="M26.6,27
						c0,0.1,0.1,0.2,0.3,0.3c0.2,0.1,0.4,0,0.4-0.1"/>
					<path fill="none" stroke="#FFF6ED" stroke-width="0.1" stroke-linecap="round" stroke-miterlimit="10" d="M25.9,26.7
						c0,0.1,0.1,0.2,0.3,0.3c0.2,0.1,0.4,0,0.4-0.1"/>
					<path fill="none" stroke="#FFF6ED" stroke-width="0.1" stroke-linecap="round" stroke-miterlimit="10" d="M25.2,26.5
						c0,0.1,0.1,0.2,0.3,0.3c0.2,0.1,0.4,0,0.4-0.1"/>
				</g>
				<path fill="none" stroke="#FFF6ED" stroke-width="0.15" stroke-linecap="round" stroke-miterlimit="10" d="M28,24
					c-0.1,0-0.7-0.1-0.7,0.2c0,0.2,0.5,0.3,0.6,0.3"/>
				<path fill="none" stroke="#FFF6ED" stroke-width="0.15" stroke-linecap="round" stroke-miterlimit="10" d="M26.4,28.6
					c-0.1,0-0.6-0.4-0.4-0.6c0.1-0.1,0.6,0,0.7,0.1"/>
			</g>
		</g>
		<g id="Layer_25_11_">
			<g id="Layer_22_11_">
				<path fill="none" stroke="#FFF6ED" stroke-width="0.15" stroke-miterlimit="10" d="M46.1,26.6c-0.1,0-0.3,0.1-0.4,0.1
					c-0.9,0.3-1.7-0.4-2.5-0.1c-0.8,0.2-1.4,0.8-1.6,1.6c-0.2,0.8,0.2,1.6,0.8,2.1c0.7,0.6,1.7,0.3,2.4,0.9c0.1,0.1,0.2,0.2,0.3,0.3
					c1.4,1.2,3.9,1.2,5.5,0.6c0,0,0.5-0.3,0.8-1.8c0.3-1.5,0-2,0-2C50.1,27,47.9,26.1,46.1,26.6z"/>
			</g>
			<g id="Layer_23_11_">
				<path fill="none" stroke="#FFF6ED" stroke-width="0.15" stroke-miterlimit="10" d="M43.7,27.2c0.9,0.1,1.2,0.9,1,1.7
					c-0.2,0.8-0.8,1.4-1.6,1.1c-0.8-0.2-1.3-0.9-1.1-1.7C42.2,27.5,42.9,27.1,43.7,27.2z"/>
				<g>
					<path fill="none" stroke="#FFF6ED" stroke-width="0.15" stroke-miterlimit="10" d="M42,28.3c0.2,0,0.4,0,0.6-0.1
						c0.2-0.1,0.3-0.2,0.4-0.4c0.1-0.2,0.4-0.8,0.7-0.7"/>
					<path fill="none" stroke="#FFF6ED" stroke-width="0.15" stroke-miterlimit="10" d="M42,28.3c0.2,0,0.4,0.2,0.5,0.3
						c0.1,0.2,0.2,0.3,0.2,0.5c0,0.2,0.1,0.8,0.4,0.9"/>
				</g>
				<path fill="none" stroke="#FFF6ED" stroke-width="0.15" stroke-linecap="round" stroke-miterlimit="10" d="M43.5,28.3
					c0,0-0.1-0.3,0.1-0.5"/>
				<path fill="none" stroke="#FFF6ED" stroke-width="0.15" stroke-linecap="round" stroke-miterlimit="10" d="M43.3,29.4
					c0,0-0.1-0.3,0.1-0.5"/>
				<path fill="none" stroke="#FFF6ED" stroke-width="0.15" stroke-linecap="round" stroke-miterlimit="10" d="M44.1,28.9
					c0.1-0.1,0.2-0.2,0.1-0.4"/>
				<g>
					<path fill="none" stroke="#FFF6ED" stroke-width="0.1" stroke-linecap="round" stroke-miterlimit="10" d="M47.4,29
						c0,0.1,0,0.3,0.1,0.4l0,0c-0.1-0.1-0.2-0.2-0.3-0.3c0,0-0.1,0-0.1,0c-0.1,0.1,0,0.2,0,0.2c0,0,0,0,0,0c0,0-0.1,0-0.1,0
						c0,0,0,0,0,0.1c0,0.1,0.1,0.2,0.1,0.1c0.1,0,0.2-0.1,0.3-0.1l0,0l0,0c0,0,0,0,0,0c0,0,0,0,0,0c-0.1,0.1-0.2,0.2-0.2,0.3
						c0,0.1,0,0.2,0.1,0.2c0,0,0,0,0.1-0.1c0.1-0.1,0.1-0.3,0.1-0.5c0-0.2,0.1-0.3,0.1-0.5c0,0,0-0.1-0.1-0.1
						C47.5,28.8,47.5,29,47.4,29z"/>
				</g>
				<path fill="none" stroke="#FFF6ED" stroke-width="0.1" stroke-linecap="round" stroke-miterlimit="10" d="M48.6,29.3
					c0,0.1,0,0.3,0.1,0.4l0,0c-0.1-0.1-0.2-0.2-0.3-0.3c0,0-0.1,0-0.1,0c-0.1,0.1,0,0.2,0,0.2c0,0,0,0,0,0c0,0-0.1,0-0.1,0
					c0,0,0,0,0,0.1c0,0.1,0.1,0.2,0.1,0.1c0.1,0,0.2-0.1,0.3-0.1l0,0l0,0c0,0,0,0,0,0c0,0,0,0,0,0c-0.1,0.1-0.2,0.2-0.2,0.3
					c0,0.1,0,0.2,0.1,0.2c0,0,0,0,0.1-0.1c0.1-0.1,0.1-0.3,0.1-0.5c0-0.2,0.1-0.3,0.1-0.5c0,0,0-0.1-0.1-0.1
					C48.7,29.1,48.6,29.2,48.6,29.3z"/>
				<path fill="none" stroke="#FFF6ED" stroke-width="0.1" stroke-linecap="round" stroke-miterlimit="10" d="M49.8,29.5
					c0,0.1,0,0.3,0.1,0.4l0,0c-0.1-0.1-0.2-0.2-0.3-0.3c0,0-0.1,0-0.1,0c-0.1,0.1,0,0.2,0,0.2c0,0,0,0,0,0c0,0-0.1,0-0.1,0
					c0,0,0,0,0,0.1c0,0.1,0.1,0.2,0.1,0.1c0.1,0,0.2-0.1,0.3-0.1l0,0l0,0c0,0,0,0,0,0c0,0,0,0,0,0c-0.1,0.1-0.2,0.2-0.2,0.3
					c0,0.1,0,0.2,0.1,0.2c0,0,0,0,0.1-0.1c0.1-0.1,0.1-0.3,0.1-0.5c0-0.2,0.1-0.3,0.1-0.5c0,0,0-0.1-0.1-0.1
					C49.8,29.3,49.8,29.4,49.8,29.5z"/>
				<path fill="none" stroke="#FFF6ED" stroke-width="0.1" stroke-linecap="round" stroke-miterlimit="10" d="M50.9,29.8
					c0,0.1,0,0.3,0.1,0.4l0,0c-0.1-0.1-0.2-0.2-0.3-0.3c0,0-0.1,0-0.1,0c-0.1,0.1,0,0.2,0,0.2c0,0,0,0,0,0c0,0-0.1,0-0.1,0
					c0,0,0,0,0,0.1c0,0.1,0.1,0.2,0.1,0.1c0.1,0,0.2-0.1,0.3-0.1l0,0l0,0c0,0,0,0,0,0c0,0,0,0,0,0c-0.1,0.1-0.2,0.2-0.2,0.3
					c0,0.1,0,0.2,0.1,0.2c0,0,0,0,0.1-0.1c0.1-0.1,0.1-0.3,0.1-0.5c0-0.2,0.1-0.3,0.1-0.5c0,0,0-0.1-0.1-0.1
					C51,29.6,50.9,29.7,50.9,29.8z"/>
				
					<circle fill="none" stroke="#FFF6ED" stroke-width="0.15" stroke-linecap="round" stroke-miterlimit="10" cx="44.9" cy="28.9" r="0.2"/>
				<path fill="none" stroke="#FFF6ED" stroke-width="0.15" stroke-miterlimit="10" d="M45,29.1c0,0,0.1,0.7,0.7,0.7
					c0,0,0.1-0.6-0.6-0.8"/>
				<path fill="none" stroke="#FFF6ED" stroke-width="0.15" stroke-miterlimit="10" d="M45.1,28.7c0,0,0.3-0.6,0.9-0.4
					c0,0-0.2,0.6-0.8,0.5"/>
				<circle fill="#FFF6ED" stroke="#FFF6ED" stroke-width="0.15" stroke-miterlimit="10" cx="46.1" cy="29.2" r="0"/>
				<circle fill="#FFF6ED" stroke="#FFF6ED" stroke-width="0.15" stroke-miterlimit="10" cx="46.4" cy="29.2" r="0"/>
				<path fill="none" stroke="#FFF6ED" stroke-width="0.15" stroke-linecap="round" stroke-miterlimit="10" d="M45,29.1
					c-0.1,0.5-0.4,1-0.7,1.2"/>
				<path fill="none" stroke="#FFF6ED" stroke-width="0.15" stroke-linecap="round" stroke-miterlimit="10" d="M45,27.4
					c0.1,0.4,0.1,0.8,0,1.3"/>
				
					<line fill="none" stroke="#FFF6ED" stroke-width="0.1" stroke-linecap="round" stroke-miterlimit="10" x1="51.1" y1="31.1" x2="44.7" y2="29.8"/>
				
					<line fill="none" stroke="#FFF6ED" stroke-width="0.1" stroke-linecap="round" stroke-miterlimit="10" x1="51.5" y1="29.4" x2="45.1" y2="28.1"/>
				<g>
					<path fill="none" stroke="#FFF6ED" stroke-width="0.1" stroke-linecap="round" stroke-miterlimit="10" d="M50.4,31
						c0,0.1-0.2,0.2-0.4,0.1c-0.2,0-0.3-0.2-0.3-0.3"/>
					<path fill="none" stroke="#FFF6ED" stroke-width="0.1" stroke-linecap="round" stroke-miterlimit="10" d="M51.1,31.1
						c0,0.1-0.2,0.2-0.4,0.1s-0.3-0.2-0.3-0.3"/>
					<path fill="none" stroke="#FFF6ED" stroke-width="0.1" stroke-linecap="round" stroke-miterlimit="10" d="M47.4,30.3
						c0,0.1-0.2,0.2-0.4,0.1c-0.2,0-0.3-0.2-0.3-0.3"/>
					<path fill="none" stroke="#FFF6ED" stroke-width="0.1" stroke-linecap="round" stroke-miterlimit="10" d="M48.1,30.5
						c0,0.1-0.2,0.2-0.4,0.1c-0.2,0-0.3-0.2-0.3-0.3"/>
					<path fill="none" stroke="#FFF6ED" stroke-width="0.1" stroke-linecap="round" stroke-miterlimit="10" d="M48.9,30.7
						c0,0.1-0.2,0.2-0.4,0.1c-0.2,0-0.3-0.2-0.3-0.3"/>
					<path fill="none" stroke="#FFF6ED" stroke-width="0.1" stroke-linecap="round" stroke-miterlimit="10" d="M49.6,30.8
						c0,0.1-0.2,0.2-0.4,0.1c-0.2,0-0.3-0.2-0.3-0.3"/>
				</g>
				<g>
					<path fill="none" stroke="#FFF6ED" stroke-width="0.1" stroke-linecap="round" stroke-miterlimit="10" d="M50.7,29.3
						c0-0.1-0.1-0.2-0.3-0.3c-0.2,0-0.4,0-0.4,0.1"/>
					<path fill="none" stroke="#FFF6ED" stroke-width="0.1" stroke-linecap="round" stroke-miterlimit="10" d="M51.4,29.4
						c0-0.1-0.1-0.2-0.3-0.3c-0.2,0-0.4,0-0.4,0.1"/>
					<path fill="none" stroke="#FFF6ED" stroke-width="0.1" stroke-linecap="round" stroke-miterlimit="10" d="M47.7,28.6
						c0-0.1-0.1-0.2-0.3-0.3c-0.2,0-0.4,0-0.4,0.1"/>
					<path fill="none" stroke="#FFF6ED" stroke-width="0.1" stroke-linecap="round" stroke-miterlimit="10" d="M48.5,28.8
						c0-0.1-0.1-0.2-0.3-0.3s-0.4,0-0.4,0.1"/>
					<path fill="none" stroke="#FFF6ED" stroke-width="0.1" stroke-linecap="round" stroke-miterlimit="10" d="M49.2,29
						c0-0.1-0.1-0.2-0.3-0.3c-0.2,0-0.4,0-0.4,0.1"/>
					<path fill="none" stroke="#FFF6ED" stroke-width="0.1" stroke-linecap="round" stroke-miterlimit="10" d="M49.9,29.1
						c0-0.1-0.1-0.2-0.3-0.3c-0.2,0-0.4,0-0.4,0.1"/>
				</g>
				<path fill="none" stroke="#FFF6ED" stroke-width="0.15" stroke-linecap="round" stroke-miterlimit="10" d="M47.4,32
					c0.1,0,0.7,0,0.7-0.3c0-0.2-0.5-0.3-0.6-0.3"/>
				<path fill="none" stroke="#FFF6ED" stroke-width="0.15" stroke-linecap="round" stroke-miterlimit="10" d="M48.5,27.2
					c0.1,0,0.6,0.3,0.5,0.5c-0.1,0.1-0.6,0-0.7,0"/>
			</g>
		</g>
		<g id="Layer_25_12_">
			<g id="Layer_22_12_">
				<path fill="none" stroke="#FFF6ED" stroke-width="0.15" stroke-miterlimit="10" d="M30.1,5.6c-0.1,0-0.3,0.1-0.4,0.1
					C28.8,6,28,5.4,27.1,5.6c-0.8,0.2-1.4,0.8-1.6,1.6c-0.2,0.8,0.2,1.6,0.8,2.1c0.7,0.6,1.7,0.3,2.4,0.9c0.1,0.1,0.2,0.2,0.3,0.3
					c1.4,1.2,3.9,1.2,5.5,0.6c0,0,0.5-0.3,0.8-1.8c0.3-1.5,0-2,0-2C34.1,6,31.9,5.1,30.1,5.6z"/>
			</g>
			<g id="Layer_23_12_">
				<path fill="none" stroke="#FFF6ED" stroke-width="0.15" stroke-miterlimit="10" d="M27.7,6.2c0.9,0.1,1.2,0.9,1,1.7
					C28.6,8.6,28,9.3,27.1,9c-0.8-0.2-1.3-0.9-1.1-1.7C26.2,6.5,26.9,6.1,27.7,6.2z"/>
				<g>
					<path fill="none" stroke="#FFF6ED" stroke-width="0.15" stroke-miterlimit="10" d="M26,7.3c0.2,0,0.4,0,0.6-0.1S26.9,7,27,6.8
						c0.1-0.2,0.4-0.8,0.7-0.7"/>
					<path fill="none" stroke="#FFF6ED" stroke-width="0.15" stroke-miterlimit="10" d="M26,7.3c0.2,0,0.4,0.2,0.5,0.3
						s0.2,0.3,0.2,0.5c0,0.2,0.1,0.8,0.4,0.9"/>
				</g>
				<path fill="none" stroke="#FFF6ED" stroke-width="0.15" stroke-linecap="round" stroke-miterlimit="10" d="M27.5,7.3
					c0,0-0.1-0.3,0.1-0.5"/>
				<path fill="none" stroke="#FFF6ED" stroke-width="0.15" stroke-linecap="round" stroke-miterlimit="10" d="M27.3,8.4
					c0,0-0.1-0.3,0.1-0.5"/>
				<path fill="none" stroke="#FFF6ED" stroke-width="0.15" stroke-linecap="round" stroke-miterlimit="10" d="M28.1,7.9
					c0.1-0.1,0.2-0.2,0.1-0.4"/>
				<g>
					<path fill="none" stroke="#FFF6ED" stroke-width="0.1" stroke-linecap="round" stroke-miterlimit="10" d="M31.4,8
						c0,0.1,0,0.3,0.1,0.4l0,0c-0.1-0.1-0.2-0.2-0.3-0.3c0,0-0.1,0-0.1,0c-0.1,0.1,0,0.2,0,0.2c0,0,0,0,0,0c0,0-0.1,0-0.1,0
						c0,0,0,0,0,0.1c0,0.1,0.1,0.2,0.1,0.1c0.1,0,0.2-0.1,0.3-0.1l0,0l0,0c0,0,0,0,0,0c0,0,0,0,0,0c-0.1,0.1-0.2,0.2-0.2,0.3
						c0,0.1,0,0.2,0.1,0.2c0,0,0,0,0.1-0.1c0.1-0.1,0.1-0.3,0.1-0.5c0-0.2,0.1-0.3,0.1-0.5c0,0,0-0.1-0.1-0.1
						C31.5,7.8,31.5,8,31.4,8z"/>
				</g>
				<path fill="none" stroke="#FFF6ED" stroke-width="0.1" stroke-linecap="round" stroke-miterlimit="10" d="M32.6,8.3
					c0,0.1,0,0.3,0.1,0.4l0,0c-0.1-0.1-0.2-0.2-0.3-0.3c0,0-0.1,0-0.1,0c-0.1,0.1,0,0.2,0,0.2c0,0,0,0,0,0c0,0-0.1,0-0.1,0
					c0,0,0,0,0,0.1c0,0.1,0.1,0.2,0.1,0.1c0.1,0,0.2-0.1,0.3-0.1l0,0l0,0c0,0,0,0,0,0c0,0,0,0,0,0c-0.1,0.1-0.2,0.2-0.2,0.3
					c0,0.1,0,0.2,0.1,0.2c0,0,0,0,0.1-0.1c0.1-0.1,0.1-0.3,0.1-0.5c0-0.2,0.1-0.3,0.1-0.5c0,0,0-0.1-0.1-0.1
					C32.7,8.1,32.6,8.2,32.6,8.3z"/>
				<path fill="none" stroke="#FFF6ED" stroke-width="0.1" stroke-linecap="round" stroke-miterlimit="10" d="M33.8,8.5
					c0,0.1,0,0.3,0.1,0.4l0,0c-0.1-0.1-0.2-0.2-0.3-0.3c0,0-0.1,0-0.1,0c-0.1,0.1,0,0.2,0,0.2c0,0,0,0,0,0c0,0-0.1,0-0.1,0
					c0,0,0,0,0,0.1c0,0.1,0.1,0.2,0.1,0.1c0.1,0,0.2-0.1,0.3-0.1l0,0l0,0c0,0,0,0,0,0c0,0,0,0,0,0c-0.1,0.1-0.2,0.2-0.2,0.3
					c0,0.1,0,0.2,0.1,0.2c0,0,0,0,0.1-0.1c0.1-0.1,0.1-0.3,0.1-0.5C34,8.8,34,8.6,34,8.4c0,0,0-0.1-0.1-0.1
					C33.8,8.3,33.8,8.4,33.8,8.5z"/>
				<path fill="none" stroke="#FFF6ED" stroke-width="0.1" stroke-linecap="round" stroke-miterlimit="10" d="M34.9,8.8
					c0,0.1,0,0.3,0.1,0.4l0,0c-0.1-0.1-0.2-0.2-0.3-0.3c0,0-0.1,0-0.1,0c-0.1,0.1,0,0.2,0,0.2c0,0,0,0,0,0c0,0-0.1,0-0.1,0
					c0,0,0,0,0,0.1c0,0.1,0.1,0.2,0.1,0.1c0.1,0,0.2-0.1,0.3-0.1l0,0l0,0c0,0,0,0,0,0c0,0,0,0,0,0c-0.1,0.1-0.2,0.2-0.2,0.3
					c0,0.1,0,0.2,0.1,0.2c0,0,0,0,0.1-0.1C35,9.5,35,9.4,35.1,9.2c0-0.2,0.1-0.3,0.1-0.5c0,0,0-0.1-0.1-0.1
					C35,8.6,34.9,8.7,34.9,8.8z"/>
				
					<circle fill="none" stroke="#FFF6ED" stroke-width="0.15" stroke-linecap="round" stroke-miterlimit="10" cx="28.9" cy="7.9" r="0.2"/>
				<path fill="none" stroke="#FFF6ED" stroke-width="0.15" stroke-miterlimit="10" d="M29,8.1c0,0,0.1,0.7,0.7,0.7
					c0,0,0.1-0.6-0.6-0.8"/>
				<path fill="none" stroke="#FFF6ED" stroke-width="0.15" stroke-miterlimit="10" d="M29.1,7.7c0,0,0.3-0.6,0.9-0.4
					c0,0-0.2,0.6-0.8,0.5"/>
				<circle fill="#FFF6ED" stroke="#FFF6ED" stroke-width="0.15" stroke-miterlimit="10" cx="30.1" cy="8.2" r="0"/>
				<circle fill="#FFF6ED" stroke="#FFF6ED" stroke-width="0.15" stroke-miterlimit="10" cx="30.4" cy="8.2" r="0"/>
				<path fill="none" stroke="#FFF6ED" stroke-width="0.15" stroke-linecap="round" stroke-miterlimit="10" d="M29,8.1
					c-0.1,0.5-0.4,1-0.7,1.2"/>
				<path fill="none" stroke="#FFF6ED" stroke-width="0.15" stroke-linecap="round" stroke-miterlimit="10" d="M29,6.4
					c0.1,0.4,0.1,0.8,0,1.3"/>
				
					<line fill="none" stroke="#FFF6ED" stroke-width="0.1" stroke-linecap="round" stroke-miterlimit="10" x1="35.1" y1="10.1" x2="28.7" y2="8.8"/>
				
					<line fill="none" stroke="#FFF6ED" stroke-width="0.1" stroke-linecap="round" stroke-miterlimit="10" x1="35.5" y1="8.4" x2="29.1" y2="7.1"/>
				<g>
					<path fill="none" stroke="#FFF6ED" stroke-width="0.1" stroke-linecap="round" stroke-miterlimit="10" d="M34.4,10
						c0,0.1-0.2,0.2-0.4,0.1c-0.2,0-0.3-0.2-0.3-0.3"/>
					<path fill="none" stroke="#FFF6ED" stroke-width="0.1" stroke-linecap="round" stroke-miterlimit="10" d="M35.1,10.1
						c0,0.1-0.2,0.2-0.4,0.1s-0.3-0.2-0.3-0.3"/>
					<path fill="none" stroke="#FFF6ED" stroke-width="0.1" stroke-linecap="round" stroke-miterlimit="10" d="M31.4,9.3
						c0,0.1-0.2,0.2-0.4,0.1s-0.3-0.2-0.3-0.3"/>
					<path fill="none" stroke="#FFF6ED" stroke-width="0.1" stroke-linecap="round" stroke-miterlimit="10" d="M32.1,9.5
						c0,0.1-0.2,0.2-0.4,0.1s-0.3-0.2-0.3-0.3"/>
					<path fill="none" stroke="#FFF6ED" stroke-width="0.1" stroke-linecap="round" stroke-miterlimit="10" d="M32.9,9.7
						c0,0.1-0.2,0.2-0.4,0.1c-0.2,0-0.3-0.2-0.3-0.3"/>
					<path fill="none" stroke="#FFF6ED" stroke-width="0.1" stroke-linecap="round" stroke-miterlimit="10" d="M33.6,9.8
						c0,0.1-0.2,0.2-0.4,0.1s-0.3-0.2-0.3-0.3"/>
				</g>
				<g>
					<path fill="none" stroke="#FFF6ED" stroke-width="0.1" stroke-linecap="round" stroke-miterlimit="10" d="M34.7,8.3
						c0-0.1-0.1-0.2-0.3-0.3C34.2,8,34,8,34,8.1"/>
					<path fill="none" stroke="#FFF6ED" stroke-width="0.1" stroke-linecap="round" stroke-miterlimit="10" d="M35.4,8.4
						c0-0.1-0.1-0.2-0.3-0.3s-0.4,0-0.4,0.1"/>
					<path fill="none" stroke="#FFF6ED" stroke-width="0.1" stroke-linecap="round" stroke-miterlimit="10" d="M31.7,7.6
						c0-0.1-0.1-0.2-0.3-0.3S31,7.4,31,7.5"/>
					<path fill="none" stroke="#FFF6ED" stroke-width="0.1" stroke-linecap="round" stroke-miterlimit="10" d="M32.5,7.8
						c0-0.1-0.1-0.2-0.3-0.3c-0.2,0-0.4,0-0.4,0.1"/>
					<path fill="none" stroke="#FFF6ED" stroke-width="0.1" stroke-linecap="round" stroke-miterlimit="10" d="M33.2,8
						c0-0.1-0.1-0.2-0.3-0.3s-0.4,0-0.4,0.1"/>
					<path fill="none" stroke="#FFF6ED" stroke-width="0.1" stroke-linecap="round" stroke-miterlimit="10" d="M33.9,8.1
						c0-0.1-0.1-0.2-0.3-0.3c-0.2,0-0.4,0-0.4,0.1"/>
				</g>
				<path fill="none" stroke="#FFF6ED" stroke-width="0.15" stroke-linecap="round" stroke-miterlimit="10" d="M31.4,11
					c0.1,0,0.7,0,0.7-0.3c0-0.2-0.5-0.3-0.6-0.3"/>
				<path fill="none" stroke="#FFF6ED" stroke-width="0.15" stroke-linecap="round" stroke-miterlimit="10" d="M32.5,6.2
					c0.1,0,0.6,0.3,0.5,0.5c-0.1,0.1-0.6,0-0.7,0"/>
			</g>
		</g>
		<g id="Layer_25_10_">
			<g id="Layer_22_10_">
				<path fill="none" stroke="#FFF6ED" stroke-width="0.15" stroke-miterlimit="10" d="M47.8,16.9c-0.1,0.1-0.2,0.2-0.3,0.3
					c-0.7,0.6-1.7,0.3-2.4,0.8c-0.7,0.5-1,1.3-0.9,2.1c0.1,0.8,0.7,1.5,1.5,1.7c0.9,0.3,1.7-0.3,2.5,0c0.1,0,0.3,0.1,0.4,0.2
					c1.8,0.6,4-0.3,5.3-1.5c0,0,0.4-0.4,0.1-2c-0.3-1.5-0.7-1.8-0.7-1.8C51.7,15.9,49.2,15.8,47.8,16.9z"/>
			</g>
			<g id="Layer_23_10_">
				<path fill="none" stroke="#FFF6ED" stroke-width="0.15" stroke-miterlimit="10" d="M45.7,18.4c0.9-0.2,1.4,0.4,1.6,1.2
					c0.1,0.8-0.2,1.6-1.1,1.6c-0.8,0.1-1.6-0.4-1.7-1.2S44.9,18.6,45.7,18.4z"/>
				<g>
					<path fill="none" stroke="#FFF6ED" stroke-width="0.15" stroke-miterlimit="10" d="M44.5,20c0.2,0,0.4-0.1,0.5-0.3
						c0.1-0.2,0.2-0.3,0.2-0.5c0-0.2,0.1-0.8,0.4-0.9"/>
					<path fill="none" stroke="#FFF6ED" stroke-width="0.15" stroke-miterlimit="10" d="M44.5,20c0.2,0,0.4,0,0.6,0.1
						c0.2,0.1,0.3,0.2,0.4,0.4c0.1,0.2,0.4,0.8,0.7,0.7"/>
				</g>
				<path fill="none" stroke="#FFF6ED" stroke-width="0.15" stroke-linecap="round" stroke-miterlimit="10" d="M45.9,19.5
					c0,0-0.2-0.3-0.1-0.5"/>
				<path fill="none" stroke="#FFF6ED" stroke-width="0.15" stroke-linecap="round" stroke-miterlimit="10" d="M46.1,20.6
					c0,0-0.2-0.3-0.1-0.5"/>
				<path fill="none" stroke="#FFF6ED" stroke-width="0.15" stroke-linecap="round" stroke-miterlimit="10" d="M46.7,19.9
					c0.1-0.1,0.1-0.3-0.1-0.4"/>
				<g>
					<path fill="none" stroke="#FFF6ED" stroke-width="0.1" stroke-linecap="round" stroke-miterlimit="10" d="M49.9,18.7
						c0,0.1,0.1,0.2,0.2,0.4l0,0c-0.1-0.1-0.2-0.2-0.4-0.1c0,0-0.1,0-0.1,0c-0.1,0.1,0,0.2,0.1,0.2c0,0,0,0,0,0c0,0-0.1,0-0.1,0
						c0,0,0,0,0,0.1c0,0.1,0.2,0.1,0.2,0.1c0.1,0,0.2-0.1,0.2-0.2l0,0l0,0c0,0,0,0,0,0c0,0,0,0,0,0c0,0.1-0.1,0.3-0.1,0.4
						c0,0.1,0.1,0.2,0.1,0.1c0,0,0,0,0.1-0.1c0-0.2,0-0.3-0.1-0.5c0-0.2,0-0.4-0.1-0.5c0,0,0-0.1-0.1-0.1
						C49.9,18.5,49.9,18.6,49.9,18.7z"/>
				</g>
				<path fill="none" stroke="#FFF6ED" stroke-width="0.1" stroke-linecap="round" stroke-miterlimit="10" d="M51,18.5
					c0,0.1,0.1,0.2,0.2,0.4l0,0c-0.1-0.1-0.2-0.2-0.4-0.1c0,0-0.1,0-0.1,0c-0.1,0.1,0,0.2,0.1,0.2c0,0,0,0,0,0c0,0-0.1,0-0.1,0
					c0,0,0,0,0,0.1c0,0.1,0.2,0.1,0.2,0.1c0.1,0,0.2-0.1,0.2-0.2l0,0l0,0c0,0,0,0,0,0c0,0,0,0,0,0c0,0.1-0.1,0.3-0.1,0.4
					c0,0.1,0.1,0.2,0.1,0.1c0,0,0,0,0.1-0.1c0-0.2,0-0.3-0.1-0.5c0-0.2,0-0.4-0.1-0.5c0,0,0-0.1-0.1-0.1C51,18.3,51,18.5,51,18.5z"
					/>
				<path fill="none" stroke="#FFF6ED" stroke-width="0.1" stroke-linecap="round" stroke-miterlimit="10" d="M52.2,18.3
					c0,0.1,0.1,0.2,0.2,0.4l0,0c-0.1-0.1-0.2-0.2-0.4-0.1c0,0-0.1,0-0.1,0c-0.1,0.1,0,0.2,0.1,0.2c0,0,0,0,0,0c0,0-0.1,0-0.1,0
					c0,0,0,0,0,0.1c0,0.1,0.2,0.1,0.2,0.1c0.1,0,0.2-0.1,0.2-0.2l0,0l0,0c0,0,0,0,0,0c0,0,0,0,0,0c0,0.1-0.1,0.3-0.1,0.4
					c0,0.1,0.1,0.2,0.1,0.1c0,0,0,0,0.1-0.1c0-0.2,0-0.3-0.1-0.5c0-0.2,0-0.4-0.1-0.5c0,0,0-0.1-0.1-0.1
					C52.2,18.1,52.2,18.3,52.2,18.3z"/>
				<path fill="none" stroke="#FFF6ED" stroke-width="0.1" stroke-linecap="round" stroke-miterlimit="10" d="M53.4,18.1
					c0,0.1,0.1,0.2,0.2,0.4l0,0c-0.1-0.1-0.2-0.2-0.4-0.1c0,0-0.1,0-0.1,0c-0.1,0.1,0,0.2,0.1,0.2c0,0,0,0,0,0c0,0-0.1,0-0.1,0
					c0,0,0,0,0,0.1c0,0.1,0.2,0.1,0.2,0.1c0.1,0,0.2-0.1,0.2-0.2l0,0l0,0c0,0,0,0,0,0c0,0,0,0,0,0c0,0.1-0.1,0.3-0.1,0.4
					c0,0.1,0.1,0.2,0.1,0.1c0,0,0,0,0.1-0.1c0-0.2,0-0.3-0.1-0.5c0-0.2,0-0.4-0.1-0.5c0,0,0-0.1-0.1-0.1
					C53.4,17.9,53.4,18.1,53.4,18.1z"/>
				
					<circle fill="none" stroke="#FFF6ED" stroke-width="0.15" stroke-linecap="round" stroke-miterlimit="10" cx="47.5" cy="19.5" r="0.2"/>
				<path fill="none" stroke="#FFF6ED" stroke-width="0.15" stroke-miterlimit="10" d="M47.6,19.7c0,0,0.3,0.6,0.9,0.4
					c0,0-0.1-0.6-0.8-0.6"/>
				<path fill="none" stroke="#FFF6ED" stroke-width="0.15" stroke-miterlimit="10" d="M47.6,19.3c0,0,0.1-0.7,0.7-0.7
					c0,0,0.1,0.6-0.6,0.8"/>
				<circle fill="#FFF6ED" stroke="#FFF6ED" stroke-width="0.15" stroke-miterlimit="10" cx="48.7" cy="19.3" r="0"/>
				<circle fill="#FFF6ED" stroke="#FFF6ED" stroke-width="0.15" stroke-miterlimit="10" cx="49" cy="19.3" r="0"/>
				<path fill="none" stroke="#FFF6ED" stroke-width="0.15" stroke-linecap="round" stroke-miterlimit="10" d="M47.6,19.7
					c0.1,0.6,0,1-0.2,1.4"/>
				<path fill="none" stroke="#FFF6ED" stroke-width="0.15" stroke-linecap="round" stroke-miterlimit="10" d="M47,18.1
					c0.2,0.3,0.4,0.7,0.5,1.2"/>
				
					<line fill="none" stroke="#FFF6ED" stroke-width="0.1" stroke-linecap="round" stroke-miterlimit="10" x1="54.1" y1="19.3" x2="47.6" y2="20.4"/>
				
					<line fill="none" stroke="#FFF6ED" stroke-width="0.1" stroke-linecap="round" stroke-miterlimit="10" x1="53.8" y1="17.6" x2="47.4" y2="18.7"/>
				<g>
					<path fill="none" stroke="#FFF6ED" stroke-width="0.1" stroke-linecap="round" stroke-miterlimit="10" d="M53.3,19.5
						c0,0.1-0.1,0.2-0.3,0.3c-0.2,0-0.4,0-0.4-0.1"/>
					<path fill="none" stroke="#FFF6ED" stroke-width="0.1" stroke-linecap="round" stroke-miterlimit="10" d="M54,19.3
						c0,0.1-0.1,0.2-0.3,0.3c-0.2,0-0.4,0-0.4-0.1"/>
					<path fill="none" stroke="#FFF6ED" stroke-width="0.1" stroke-linecap="round" stroke-miterlimit="10" d="M50.3,20
						c0,0.1-0.1,0.2-0.3,0.3c-0.2,0-0.4,0-0.4-0.1"/>
					<path fill="none" stroke="#FFF6ED" stroke-width="0.1" stroke-linecap="round" stroke-miterlimit="10" d="M51.1,19.8
						c0,0.1-0.1,0.2-0.3,0.3c-0.2,0-0.4,0-0.4-0.1"/>
					<path fill="none" stroke="#FFF6ED" stroke-width="0.1" stroke-linecap="round" stroke-miterlimit="10" d="M51.8,19.7
						c0,0.1-0.1,0.2-0.3,0.3c-0.2,0-0.4,0-0.4-0.1"/>
					<path fill="none" stroke="#FFF6ED" stroke-width="0.1" stroke-linecap="round" stroke-miterlimit="10" d="M52.6,19.6
						c0,0.1-0.1,0.2-0.3,0.3c-0.2,0-0.4,0-0.4-0.1"/>
				</g>
				<g>
					<path fill="none" stroke="#FFF6ED" stroke-width="0.1" stroke-linecap="round" stroke-miterlimit="10" d="M53,17.8
						c0-0.1-0.2-0.2-0.4-0.1c-0.2,0-0.3,0.2-0.3,0.3"/>
					<path fill="none" stroke="#FFF6ED" stroke-width="0.1" stroke-linecap="round" stroke-miterlimit="10" d="M53.7,17.6
						c0-0.1-0.2-0.2-0.4-0.1S53,17.7,53,17.8"/>
					<path fill="none" stroke="#FFF6ED" stroke-width="0.1" stroke-linecap="round" stroke-miterlimit="10" d="M50,18.3
						c0-0.1-0.2-0.2-0.4-0.1c-0.2,0-0.3,0.2-0.3,0.3"/>
					<path fill="none" stroke="#FFF6ED" stroke-width="0.1" stroke-linecap="round" stroke-miterlimit="10" d="M50.7,18.1
						c0-0.1-0.2-0.2-0.4-0.1c-0.2,0-0.3,0.2-0.3,0.3"/>
					<path fill="none" stroke="#FFF6ED" stroke-width="0.1" stroke-linecap="round" stroke-miterlimit="10" d="M51.5,18
						c0-0.1-0.2-0.2-0.4-0.1c-0.2,0-0.3,0.2-0.3,0.3"/>
					<path fill="none" stroke="#FFF6ED" stroke-width="0.1" stroke-linecap="round" stroke-miterlimit="10" d="M52.2,17.9
						c0-0.1-0.2-0.2-0.4-0.1c-0.2,0-0.3,0.2-0.3,0.3"/>
				</g>
				<path fill="none" stroke="#FFF6ED" stroke-width="0.15" stroke-linecap="round" stroke-miterlimit="10" d="M50.9,21.4
					c0.1,0,0.6-0.3,0.5-0.5c-0.1-0.2-0.6-0.1-0.7,0"/>
				<path fill="none" stroke="#FFF6ED" stroke-width="0.15" stroke-linecap="round" stroke-miterlimit="10" d="M50.1,16.6
					c0.1,0,0.7,0.1,0.6,0.3c0,0.2-0.5,0.3-0.6,0.2"/>
			</g>
		</g>
		<g id="Layer_25_6_">
			<g id="Layer_22_6_">
				<path fill="none" stroke="#FFF6ED" stroke-width="0.15" stroke-miterlimit="10" d="M13.1,31.5c0.1,0.1,0.2,0.3,0.2,0.4
					c0.4,0.8-0.1,1.7,0.3,2.5c0.3,0.7,1,1.3,1.8,1.3c0.8,0,1.6-0.4,2-1.1c0.4-0.8,0-1.7,0.5-2.5c0.1-0.1,0.2-0.3,0.2-0.4
					c0.9-1.6,0.6-4-0.3-5.5c0,0-0.3-0.4-1.9-0.5c-1.6-0.1-1.9,0.3-1.9,0.3C12.9,27.5,12.3,29.8,13.1,31.5z"/>
			</g>
			<g id="Layer_23_6_">
				<g>
					<path fill="none" stroke="#FFF6ED" stroke-width="0.1" stroke-linecap="round" stroke-miterlimit="10" d="M15.3,29.8
						c0.1,0,0.3-0.1,0.4-0.1l0,0c-0.1,0.1-0.2,0.2-0.2,0.3c0,0,0,0.1,0,0.1c0.1,0.1,0.2,0,0.2-0.1c0,0,0,0,0,0c0,0,0,0.1,0,0.1
						c0,0,0,0,0.1,0c0.1,0,0.1-0.1,0.1-0.2c0-0.1-0.1-0.2-0.2-0.3l0,0l0,0c0,0,0,0,0,0c0,0,0,0,0,0c0.1,0.1,0.3,0.1,0.4,0.2
						c0.1,0,0.2,0,0.2-0.1c0,0,0,0-0.1-0.1c-0.2-0.1-0.3,0-0.5-0.1c-0.2,0-0.4,0-0.5,0c0,0-0.1,0-0.1,0.1
						C15.1,29.8,15.2,29.8,15.3,29.8z"/>
				</g>
				<path fill="none" stroke="#FFF6ED" stroke-width="0.1" stroke-linecap="round" stroke-miterlimit="10" d="M15.3,28.6
					c0.1,0,0.3-0.1,0.4-0.1l0,0c-0.1,0.1-0.2,0.2-0.2,0.3c0,0,0,0.1,0,0.1c0.1,0.1,0.2,0,0.2-0.1c0,0,0,0,0,0c0,0,0,0.1,0,0.1
					c0,0,0,0,0.1,0c0.1,0,0.1-0.1,0.1-0.2c0-0.1-0.1-0.2-0.2-0.3l0,0l0,0c0,0,0,0,0,0c0,0,0,0,0,0c0.1,0.1,0.3,0.1,0.4,0.2
					c0.1,0,0.2,0,0.2-0.1c0,0,0,0-0.1-0.1c-0.2-0.1-0.3,0-0.5-0.1c-0.2,0-0.4,0-0.5,0c0,0-0.1,0-0.1,0.1
					C15.1,28.6,15.3,28.6,15.3,28.6z"/>
				<path fill="none" stroke="#FFF6ED" stroke-width="0.1" stroke-linecap="round" stroke-miterlimit="10" d="M15.4,27.4
					c0.1,0,0.3-0.1,0.4-0.1l0,0c-0.1,0.1-0.2,0.2-0.2,0.3c0,0,0,0.1,0,0.1c0.1,0.1,0.2,0,0.2-0.1c0,0,0,0,0,0c0,0,0,0.1,0,0.1
					c0,0,0,0,0.1,0c0.1,0,0.1-0.1,0.1-0.2c0-0.1-0.1-0.2-0.2-0.3l0,0l0,0c0,0,0,0,0,0c0,0,0,0,0,0c0.1,0.1,0.3,0.1,0.4,0.2
					c0.1,0,0.2,0,0.2-0.1c0,0,0,0-0.1-0.1c-0.2-0.1-0.3,0-0.5-0.1c-0.2,0-0.4,0-0.5,0c0,0-0.1,0-0.1,0.1
					C15.2,27.4,15.3,27.5,15.4,27.4z"/>
				<path fill="none" stroke="#FFF6ED" stroke-width="0.1" stroke-linecap="round" stroke-miterlimit="10" d="M15.4,26.3
					c0.1,0,0.3-0.1,0.4-0.1l0,0c-0.1,0.1-0.2,0.2-0.2,0.3c0,0,0,0.1,0,0.1c0.1,0.1,0.2,0,0.2-0.1c0,0,0,0,0,0c0,0,0,0.1,0,0.1
					c0,0,0,0,0.1,0c0.1,0,0.1-0.1,0.1-0.2c0-0.1-0.1-0.2-0.2-0.3l0,0l0,0c0,0,0,0,0,0c0,0,0,0,0,0c0.1,0.1,0.3,0.1,0.4,0.2
					c0.1,0,0.2,0,0.2-0.1c0,0,0,0-0.1-0.1c-0.2-0.1-0.3,0-0.5-0.1c-0.2,0-0.4,0-0.5,0c0,0-0.1,0-0.1,0.1
					C15.2,26.3,15.4,26.3,15.4,26.3z"/>
				<path fill="none" stroke="#FFF6ED" stroke-width="0.15" stroke-miterlimit="10" d="M15.7,32.2c0,0,0.7-0.2,0.6-0.8
					c0,0-0.6,0-0.7,0.7"/>
				<path fill="none" stroke="#FFF6ED" stroke-width="0.15" stroke-miterlimit="10" d="M15.4,32.2c0,0-0.6-0.2-0.5-0.8
					c0,0,0.6,0.1,0.7,0.8"/>
				<circle fill="#FFF6ED" stroke="#FFF6ED" stroke-width="0.15" stroke-miterlimit="10" cx="15.6" cy="31.1" r="0"/>
				<circle fill="#FFF6ED" stroke="#FFF6ED" stroke-width="0.15" stroke-miterlimit="10" cx="15.6" cy="30.8" r="0"/>
				
					<line fill="none" stroke="#FFF6ED" stroke-width="0.1" stroke-linecap="round" stroke-miterlimit="10" x1="16.8" y1="25.8" x2="16.5" y2="32.4"/>
				
					<line fill="none" stroke="#FFF6ED" stroke-width="0.1" stroke-linecap="round" stroke-miterlimit="10" x1="15" y1="25.7" x2="14.7" y2="32.3"/>
				<g>
					<path fill="none" stroke="#FFF6ED" stroke-width="0.1" stroke-linecap="round" stroke-miterlimit="10" d="M16.7,26.6
						c0.1,0,0.2,0.2,0.2,0.4c0,0.2-0.1,0.4-0.2,0.3"/>
					<path fill="none" stroke="#FFF6ED" stroke-width="0.1" stroke-linecap="round" stroke-miterlimit="10" d="M16.8,25.9
						c0.1,0,0.2,0.2,0.2,0.4s-0.1,0.4-0.2,0.3"/>
					<path fill="none" stroke="#FFF6ED" stroke-width="0.1" stroke-linecap="round" stroke-miterlimit="10" d="M16.6,29.7
						c0.1,0,0.2,0.2,0.2,0.4c0,0.2-0.1,0.4-0.2,0.3"/>
					<path fill="none" stroke="#FFF6ED" stroke-width="0.1" stroke-linecap="round" stroke-miterlimit="10" d="M16.6,28.9
						c0.1,0,0.2,0.2,0.2,0.4c0,0.2-0.1,0.4-0.2,0.3"/>
					<path fill="none" stroke="#FFF6ED" stroke-width="0.1" stroke-linecap="round" stroke-miterlimit="10" d="M16.7,28.2
						c0.1,0,0.2,0.2,0.2,0.4c0,0.2-0.1,0.4-0.2,0.3"/>
					<path fill="none" stroke="#FFF6ED" stroke-width="0.1" stroke-linecap="round" stroke-miterlimit="10" d="M16.7,27.4
						c0.1,0,0.2,0.2,0.2,0.4s-0.1,0.4-0.2,0.3"/>
				</g>
				<g>
					<path fill="none" stroke="#FFF6ED" stroke-width="0.1" stroke-linecap="round" stroke-miterlimit="10" d="M15,26.6
						c-0.1,0-0.2,0.2-0.2,0.3s0.1,0.4,0.2,0.4"/>
					<path fill="none" stroke="#FFF6ED" stroke-width="0.1" stroke-linecap="round" stroke-miterlimit="10" d="M15,25.8
						c-0.1,0-0.2,0.2-0.2,0.3c0,0.2,0.1,0.4,0.2,0.4"/>
					<path fill="none" stroke="#FFF6ED" stroke-width="0.1" stroke-linecap="round" stroke-miterlimit="10" d="M14.9,29.6
						c-0.1,0-0.2,0.2-0.2,0.3c0,0.2,0.1,0.4,0.2,0.4"/>
					<path fill="none" stroke="#FFF6ED" stroke-width="0.1" stroke-linecap="round" stroke-miterlimit="10" d="M14.9,28.9
						c-0.1,0-0.2,0.2-0.2,0.3c0,0.2,0.1,0.4,0.2,0.4"/>
					<path fill="none" stroke="#FFF6ED" stroke-width="0.1" stroke-linecap="round" stroke-miterlimit="10" d="M14.9,28.1
						c-0.1,0-0.2,0.2-0.2,0.3c0,0.2,0.1,0.4,0.2,0.4"/>
					<path fill="none" stroke="#FFF6ED" stroke-width="0.1" stroke-linecap="round" stroke-miterlimit="10" d="M15,27.4
						c-0.1,0-0.2,0.2-0.2,0.3c0,0.2,0.1,0.4,0.2,0.4"/>
				</g>
				<path fill="none" stroke="#FFF6ED" stroke-width="0.15" stroke-linecap="round" stroke-miterlimit="10" d="M18.2,29.4
					c0-0.1-0.1-0.7-0.4-0.6c-0.2,0.1-0.2,0.5-0.2,0.6"/>
				<path fill="none" stroke="#FFF6ED" stroke-width="0.15" stroke-linecap="round" stroke-miterlimit="10" d="M13.3,29.1
					c0-0.1,0.2-0.6,0.4-0.6c0.2,0.1,0.1,0.6,0.1,0.7"/>
			</g>
		</g>
		<g id="Layer_25_14_">
			<g id="Layer_22_14_">
				<path fill="none" stroke="#FFF6ED" stroke-width="0.15" stroke-miterlimit="10" d="M33.2-2.7c-0.1,0.1-0.2,0.2-0.3,0.3
					c-0.7,0.6-1.7,0.4-2.4,0.9c-0.6,0.5-1,1.3-0.8,2.1c0.2,0.8,0.8,1.4,1.6,1.6c0.9,0.2,1.7-0.4,2.5-0.1c0.1,0,0.3,0.1,0.4,0.1
					c1.8,0.5,4-0.4,5.2-1.7c0,0,0.3-0.4,0-2c-0.3-1.5-0.8-1.8-0.8-1.8C37-3.9,34.6-3.8,33.2-2.7z"/>
			</g>
			<g id="Layer_23_14_">
				<path fill="none" stroke="#FFF6ED" stroke-width="0.15" stroke-miterlimit="10" d="M31.2-1.1c0.9-0.2,1.4,0.4,1.6,1.1
					s-0.1,1.6-1,1.7c-0.8,0.1-1.6-0.3-1.7-1.1S30.4-0.9,31.2-1.1z"/>
				<g>
					<path fill="none" stroke="#FFF6ED" stroke-width="0.15" stroke-miterlimit="10" d="M30.1,0.6c0.2,0,0.4-0.2,0.5-0.3
						s0.2-0.3,0.2-0.5c0-0.2,0.1-0.8,0.4-0.9"/>
					<path fill="none" stroke="#FFF6ED" stroke-width="0.15" stroke-miterlimit="10" d="M30.1,0.6c0.2,0,0.4,0,0.6,0.1
						C30.9,0.7,31,0.9,31.1,1c0.1,0.2,0.4,0.8,0.7,0.7"/>
				</g>
				<path fill="none" stroke="#FFF6ED" stroke-width="0.15" stroke-linecap="round" stroke-miterlimit="10" d="M31.5,0
					c0,0-0.2-0.3-0.1-0.5"/>
				<path fill="none" stroke="#FFF6ED" stroke-width="0.15" stroke-linecap="round" stroke-miterlimit="10" d="M31.7,1.1
					c0,0-0.2-0.3-0.1-0.5"/>
				<path fill="none" stroke="#FFF6ED" stroke-width="0.15" stroke-linecap="round" stroke-miterlimit="10" d="M32.3,0.3
					c0.1-0.1,0-0.3-0.1-0.4"/>
				<g>
					<path fill="none" stroke="#FFF6ED" stroke-width="0.1" stroke-linecap="round" stroke-miterlimit="10" d="M35.4-1
						c0,0.1,0.1,0.2,0.2,0.4l0,0c-0.1-0.1-0.2-0.2-0.4-0.1c0,0-0.1,0-0.1,0c-0.1,0.1,0,0.2,0.1,0.2c0,0,0,0,0,0c0,0-0.1,0-0.1,0
						c0,0,0,0,0,0.1c0,0.1,0.2,0.1,0.2,0.1c0.1-0.1,0.2-0.1,0.2-0.2l0,0l0,0c0,0,0,0,0,0c0,0,0,0,0,0c0,0.1-0.1,0.3-0.1,0.4
						c0,0.1,0.1,0.2,0.1,0.1c0,0,0,0,0.1-0.1c0-0.2,0-0.3-0.1-0.5c0-0.2,0-0.4-0.1-0.5c0,0,0-0.1-0.1-0.1C35.4-1.2,35.4-1,35.4-1z"
						/>
				</g>
				
					<circle fill="none" stroke="#FFF6ED" stroke-width="0.15" stroke-linecap="round" stroke-miterlimit="10" cx="33" cy="-0.1" r="0.2"/>
				<path fill="none" stroke="#FFF6ED" stroke-width="0.15" stroke-miterlimit="10" d="M33.2,0.1c0,0,0.3,0.6,0.9,0.4
					c0,0-0.2-0.6-0.8-0.5"/>
				<path fill="none" stroke="#FFF6ED" stroke-width="0.15" stroke-linecap="round" stroke-miterlimit="10" d="M33.2,0.1
					c0.1,0.6,0,1-0.1,1.4"/>
				
					<line fill="none" stroke="#FFF6ED" stroke-width="0.1" stroke-linecap="round" stroke-miterlimit="10" x1="39.6" y1="-0.5" x2="33.2" y2="0.8"/>
				<g>
					<path fill="none" stroke="#FFF6ED" stroke-width="0.1" stroke-linecap="round" stroke-miterlimit="10" d="M35.9,0.3
						c0,0.1-0.1,0.2-0.3,0.3s-0.4,0-0.4-0.1"/>
					<path fill="none" stroke="#FFF6ED" stroke-width="0.1" stroke-linecap="round" stroke-miterlimit="10" d="M36.6,0.1
						c0,0.1-0.1,0.2-0.3,0.3s-0.4,0-0.4-0.1"/>
					<path fill="none" stroke="#FFF6ED" stroke-width="0.1" stroke-linecap="round" stroke-miterlimit="10" d="M37.3,0
						c0,0.1-0.1,0.2-0.3,0.3s-0.4,0-0.4-0.1"/>
					<path fill="none" stroke="#FFF6ED" stroke-width="0.1" stroke-linecap="round" stroke-miterlimit="10" d="M38.1-0.2
						c0,0.1-0.1,0.2-0.3,0.3s-0.4,0-0.4-0.1"/>
				</g>
				<path fill="none" stroke="#FFF6ED" stroke-width="0.15" stroke-linecap="round" stroke-miterlimit="10" d="M36.5,1.7
					c0.1,0,0.6-0.3,0.5-0.5c-0.1-0.1-0.6,0-0.7,0"/>
			</g>
		</g>
		<g id="Layer_25_8_">
			<g id="Layer_22_8_">
				<path fill="none" stroke="#FFF6ED" stroke-width="0.15" stroke-miterlimit="10" d="M11-2.1c0-0.1-0.1-0.3-0.1-0.4
					c-0.2-0.9,0.5-1.7,0.4-2.5c-0.1-0.8-0.7-1.5-1.5-1.7C9-7,8.1-6.8,7.6-6.2C7-5.5,7.2-4.5,6.5-3.9C6.4-3.8,6.3-3.7,6.2-3.6
					C4.9-2.3,4.6,0.1,5.1,1.8c0,0,0.2,0.5,1.7,1s2,0.2,2,0.2C10.1,1.9,11.3-0.3,11-2.1z"/>
			</g>
			<g id="Layer_23_8_">
				<path fill="none" stroke="#FFF6ED" stroke-width="0.1" stroke-linecap="round" stroke-miterlimit="10" d="M8.1,0.1
					c-0.1,0-0.3,0-0.4,0l0,0C7.8,0.1,7.9,0,8-0.1c0,0,0-0.1,0-0.1c0-0.1-0.2,0-0.2,0c0,0,0,0,0,0c0,0,0-0.1,0-0.1c0,0,0,0-0.1-0.1
					c-0.1,0-0.2,0.1-0.1,0.1c0,0.1,0,0.2,0.1,0.3l0,0l0,0c0,0,0,0,0,0c0,0,0,0,0,0C7.5,0.1,7.4,0,7.3-0.1c-0.1,0-0.2,0-0.2,0
					c0,0,0,0,0,0.1c0.1,0.1,0.3,0.1,0.5,0.2c0.2,0,0.3,0.1,0.5,0.1c0,0,0.1,0,0.1,0C8.3,0.2,8.1,0.1,8.1,0.1z"/>
				<path fill="none" stroke="#FFF6ED" stroke-width="0.1" stroke-linecap="round" stroke-miterlimit="10" d="M7.7,1.3
					c-0.1,0-0.3,0-0.4,0l0,0C7.4,1.2,7.6,1.2,7.6,1c0,0,0-0.1,0-0.1c0-0.1-0.2,0-0.2,0c0,0,0,0,0,0c0,0,0-0.1,0-0.1c0,0,0,0-0.1-0.1
					C7.2,0.8,7.1,1,7.2,1c0,0.1,0,0.2,0.1,0.3l0,0l0,0c0,0,0,0,0,0c0,0,0,0,0,0C7.2,1.2,7.1,1.1,6.9,1.1c-0.1,0-0.2,0-0.2,0
					c0,0,0,0,0,0.1c0.1,0.1,0.3,0.1,0.5,0.2c0.2,0,0.3,0.1,0.5,0.1c0,0,0.1,0,0.1,0C7.9,1.3,7.8,1.3,7.7,1.3z"/>
				<path fill="none" stroke="#FFF6ED" stroke-width="0.1" stroke-linecap="round" stroke-miterlimit="10" d="M7.4,2.4
					c-0.1,0-0.3,0-0.4,0l0,0c0.1-0.1,0.2-0.1,0.3-0.3c0,0,0-0.1,0-0.1c0-0.1-0.2,0-0.2,0c0,0,0,0,0,0C7,2.1,7,2,7,2C7,2,7,2,7,2
					C6.9,2,6.8,2.1,6.8,2.1c0,0.1,0,0.2,0.1,0.3l0,0l0,0c0,0,0,0,0,0c0,0,0,0,0,0C6.8,2.4,6.7,2.3,6.6,2.2c-0.1,0-0.2,0-0.2,0
					c0,0,0,0,0,0.1c0.1,0.1,0.3,0.1,0.5,0.2c0.2,0,0.3,0.1,0.5,0.1c0,0,0.1,0,0.1,0C7.6,2.5,7.4,2.4,7.4,2.4z"/>
				
					<line fill="none" stroke="#FFF6ED" stroke-width="0.1" stroke-linecap="round" stroke-miterlimit="10" x1="6" y1="2.5" x2="7.9" y2="-3.8"/>
				
					<line fill="none" stroke="#FFF6ED" stroke-width="0.1" stroke-linecap="round" stroke-miterlimit="10" x1="7.6" y1="3" x2="9.6" y2="-3.2"/>
				<g>
					<path fill="none" stroke="#FFF6ED" stroke-width="0.1" stroke-linecap="round" stroke-miterlimit="10" d="M6.2,1.7
						c-0.1,0-0.1-0.2-0.1-0.4C6.2,1.1,6.3,1,6.4,1"/>
					<path fill="none" stroke="#FFF6ED" stroke-width="0.1" stroke-linecap="round" stroke-miterlimit="10" d="M6,2.5
						c-0.1,0-0.1-0.2-0.1-0.4C6,1.9,6.1,1.7,6.2,1.8"/>
					<path fill="none" stroke="#FFF6ED" stroke-width="0.1" stroke-linecap="round" stroke-miterlimit="10" d="M6.7,0.3
						c-0.1,0-0.1-0.2-0.1-0.4c0.1-0.2,0.2-0.3,0.3-0.3"/>
					<path fill="none" stroke="#FFF6ED" stroke-width="0.1" stroke-linecap="round" stroke-miterlimit="10" d="M6.4,1
						C6.3,1,6.3,0.8,6.4,0.6c0.1-0.2,0.2-0.3,0.3-0.3"/>
				</g>
				<g>
					<path fill="none" stroke="#FFF6ED" stroke-width="0.1" stroke-linecap="round" stroke-miterlimit="10" d="M7.9,2.2
						c0.1,0,0.2-0.1,0.3-0.3s0-0.4-0.1-0.4"/>
					<path fill="none" stroke="#FFF6ED" stroke-width="0.1" stroke-linecap="round" stroke-miterlimit="10" d="M7.7,2.9
						C7.8,3,7.9,2.8,8,2.6C8,2.5,8,2.3,7.9,2.2"/>
					<path fill="none" stroke="#FFF6ED" stroke-width="0.1" stroke-linecap="round" stroke-miterlimit="10" d="M8.6,0
						c0.1,0,0.2-0.1,0.3-0.3s0-0.4-0.1-0.4"/>
					<path fill="none" stroke="#FFF6ED" stroke-width="0.1" stroke-linecap="round" stroke-miterlimit="10" d="M8.3,0.7
						c0.1,0,0.2-0.1,0.3-0.3c0.1-0.2,0-0.4-0.1-0.4"/>
					<path fill="none" stroke="#FFF6ED" stroke-width="0.1" stroke-linecap="round" stroke-miterlimit="10" d="M8.1,1.5
						c0.1,0,0.2-0.1,0.3-0.3c0.1-0.2,0-0.4-0.1-0.4"/>
				</g>
				<path fill="none" stroke="#FFF6ED" stroke-width="0.15" stroke-linecap="round" stroke-miterlimit="10" d="M10.2,0.2
					c0,0.1-0.3,0.6-0.5,0.4C9.5,0.5,9.6,0.1,9.7,0"/>
			</g>
		</g>
		<g id="Layer_25_7_">
			<g id="Layer_22_7_">
				<path fill="none" stroke="#FFF6ED" stroke-width="0.15" stroke-miterlimit="10" d="M13.1,7.5c0.1,0.1,0.2,0.3,0.2,0.4
					c0.4,0.8-0.1,1.7,0.3,2.5c0.3,0.7,1,1.3,1.8,1.3c0.8,0,1.6-0.4,2-1.1c0.4-0.8,0-1.7,0.5-2.5C17.9,8,18,7.9,18.1,7.8
					c0.9-1.6,0.6-4-0.3-5.5c0,0-0.3-0.4-1.9-0.5s-1.9,0.3-1.9,0.3C12.9,3.5,12.3,5.8,13.1,7.5z"/>
			</g>
			<g id="Layer_23_7_">
				<path fill="none" stroke="#FFF6ED" stroke-width="0.15" stroke-miterlimit="10" d="M14.1,9.8c0-0.9,0.7-1.3,1.5-1.3
					c0.8,0,1.5,0.5,1.4,1.4c-0.1,0.8-0.7,1.4-1.5,1.4S14.1,10.6,14.1,9.8z"/>
				<g>
					<path fill="none" stroke="#FFF6ED" stroke-width="0.15" stroke-miterlimit="10" d="M15.4,11.3c0-0.2,0-0.4-0.2-0.6
						c-0.1-0.2-0.3-0.3-0.4-0.3c-0.2-0.1-0.8-0.3-0.8-0.6"/>
					<path fill="none" stroke="#FFF6ED" stroke-width="0.15" stroke-miterlimit="10" d="M15.4,11.3c0-0.2,0.1-0.4,0.2-0.6
						c0.1-0.2,0.3-0.2,0.5-0.3c0.2-0.1,0.8-0.2,0.8-0.5"/>
				</g>
				<path fill="none" stroke="#FFF6ED" stroke-width="0.15" stroke-linecap="round" stroke-miterlimit="10" d="M15.2,9.8
					c0,0-0.3,0.1-0.5,0"/>
				<path fill="none" stroke="#FFF6ED" stroke-width="0.15" stroke-linecap="round" stroke-miterlimit="10" d="M16.3,9.9
					c0,0-0.3,0.1-0.5,0"/>
				<path fill="none" stroke="#FFF6ED" stroke-width="0.15" stroke-linecap="round" stroke-miterlimit="10" d="M15.7,9.2
					c-0.1-0.1-0.3-0.1-0.4,0"/>
				<g>
					<path fill="none" stroke="#FFF6ED" stroke-width="0.1" stroke-linecap="round" stroke-miterlimit="10" d="M15.3,5.8
						c0.1,0,0.3-0.1,0.4-0.1l0,0c-0.1,0.1-0.2,0.2-0.2,0.3c0,0,0,0.1,0,0.1c0.1,0.1,0.2,0,0.2-0.1c0,0,0,0,0,0c0,0,0,0.1,0,0.1
						c0,0,0,0,0.1,0c0.1,0,0.1-0.1,0.1-0.2c0-0.1-0.1-0.2-0.2-0.3l0,0l0,0c0,0,0,0,0,0c0,0,0,0,0,0c0.1,0.1,0.3,0.1,0.4,0.2
						c0.1,0,0.2,0,0.2-0.1c0,0,0,0-0.1-0.1c-0.2-0.1-0.3,0-0.5-0.1c-0.2,0-0.4,0-0.5,0c0,0-0.1,0-0.1,0.1
						C15.1,5.8,15.2,5.8,15.3,5.8z"/>
				</g>
				<path fill="none" stroke="#FFF6ED" stroke-width="0.1" stroke-linecap="round" stroke-miterlimit="10" d="M15.3,4.6
					c0.1,0,0.3-0.1,0.4-0.1l0,0c-0.1,0.1-0.2,0.2-0.2,0.3c0,0,0,0.1,0,0.1c0.1,0.1,0.2,0,0.2-0.1c0,0,0,0,0,0c0,0,0,0.1,0,0.1
					c0,0,0,0,0.1,0c0.1,0,0.1-0.1,0.1-0.2c0-0.1-0.1-0.2-0.2-0.3l0,0l0,0c0,0,0,0,0,0c0,0,0,0,0,0c0.1,0.1,0.3,0.1,0.4,0.2
					c0.1,0,0.2,0,0.2-0.1c0,0,0,0-0.1-0.1c-0.2-0.1-0.3,0-0.5-0.1c-0.2,0-0.4,0-0.5,0c0,0-0.1,0-0.1,0.1C15.1,4.6,15.3,4.6,15.3,4.6
					z"/>
				<path fill="none" stroke="#FFF6ED" stroke-width="0.1" stroke-linecap="round" stroke-miterlimit="10" d="M15.4,3.4
					c0.1,0,0.3-0.1,0.4-0.1l0,0c-0.1,0.1-0.2,0.2-0.2,0.3c0,0,0,0.1,0,0.1c0.1,0.1,0.2,0,0.2-0.1c0,0,0,0,0,0c0,0,0,0.1,0,0.1
					c0,0,0,0,0.1,0C16,3.7,16,3.6,16,3.6c0-0.1-0.1-0.2-0.2-0.3l0,0l0,0c0,0,0,0,0,0c0,0,0,0,0,0c0.1,0.1,0.3,0.1,0.4,0.2
					c0.1,0,0.2,0,0.2-0.1c0,0,0,0-0.1-0.1c-0.2-0.1-0.3,0-0.5-0.1c-0.2,0-0.4,0-0.5,0c0,0-0.1,0-0.1,0.1C15.2,3.4,15.3,3.5,15.4,3.4
					z"/>
				<path fill="none" stroke="#FFF6ED" stroke-width="0.1" stroke-linecap="round" stroke-miterlimit="10" d="M15.4,2.3
					c0.1,0,0.3-0.1,0.4-0.1l0,0c-0.1,0.1-0.2,0.2-0.2,0.3c0,0,0,0.1,0,0.1c0.1,0.1,0.2,0,0.2-0.1c0,0,0,0,0,0c0,0,0,0.1,0,0.1
					c0,0,0,0,0.1,0c0.1,0,0.1-0.1,0.1-0.2c0-0.1-0.1-0.2-0.2-0.3l0,0l0,0c0,0,0,0,0,0c0,0,0,0,0,0c0.1,0.1,0.3,0.1,0.4,0.2
					c0.1,0,0.2,0,0.2-0.1c0,0,0,0-0.1-0.1c-0.2-0.1-0.3,0-0.5-0.1c-0.2,0-0.4,0-0.5,0c0,0-0.1,0-0.1,0.1C15.2,2.3,15.4,2.3,15.4,2.3
					z"/>
				
					<circle fill="none" stroke="#FFF6ED" stroke-width="0.15" stroke-linecap="round" stroke-miterlimit="10" cx="15.6" cy="8.3" r="0.2"/>
				<path fill="none" stroke="#FFF6ED" stroke-width="0.15" stroke-miterlimit="10" d="M15.7,8.2c0,0,0.7-0.2,0.6-0.8
					c0,0-0.6,0-0.7,0.7"/>
				<path fill="none" stroke="#FFF6ED" stroke-width="0.15" stroke-miterlimit="10" d="M15.4,8.2c0,0-0.6-0.2-0.5-0.8
					c0,0,0.6,0.1,0.7,0.8"/>
				<circle fill="#FFF6ED" stroke="#FFF6ED" stroke-width="0.15" stroke-miterlimit="10" cx="15.6" cy="7.1" r="0"/>
				<circle fill="#FFF6ED" stroke="#FFF6ED" stroke-width="0.15" stroke-miterlimit="10" cx="15.6" cy="6.8" r="0"/>
				<path fill="none" stroke="#FFF6ED" stroke-width="0.15" stroke-linecap="round" stroke-miterlimit="10" d="M15.7,8.2
					c0.6,0.1,1,0.2,1.3,0.5"/>
				<path fill="none" stroke="#FFF6ED" stroke-width="0.15" stroke-linecap="round" stroke-miterlimit="10" d="M14.1,8.5
					c0.3-0.1,0.8-0.3,1.3-0.3"/>
				
					<line fill="none" stroke="#FFF6ED" stroke-width="0.1" stroke-linecap="round" stroke-miterlimit="10" x1="16.8" y1="1.8" x2="16.5" y2="8.4"/>
				
					<line fill="none" stroke="#FFF6ED" stroke-width="0.1" stroke-linecap="round" stroke-miterlimit="10" x1="15" y1="1.7" x2="14.7" y2="8.3"/>
				<g>
					<path fill="none" stroke="#FFF6ED" stroke-width="0.1" stroke-linecap="round" stroke-miterlimit="10" d="M16.7,2.6
						c0.1,0,0.2,0.2,0.2,0.4c0,0.2-0.1,0.4-0.2,0.3"/>
					<path fill="none" stroke="#FFF6ED" stroke-width="0.1" stroke-linecap="round" stroke-miterlimit="10" d="M16.8,1.9
						c0.1,0,0.2,0.2,0.2,0.4s-0.1,0.4-0.2,0.3"/>
					<path fill="none" stroke="#FFF6ED" stroke-width="0.1" stroke-linecap="round" stroke-miterlimit="10" d="M16.6,5.7
						c0.1,0,0.2,0.2,0.2,0.4c0,0.2-0.1,0.4-0.2,0.3"/>
					<path fill="none" stroke="#FFF6ED" stroke-width="0.1" stroke-linecap="round" stroke-miterlimit="10" d="M16.6,4.9
						c0.1,0,0.2,0.2,0.2,0.4s-0.1,0.4-0.2,0.3"/>
					<path fill="none" stroke="#FFF6ED" stroke-width="0.1" stroke-linecap="round" stroke-miterlimit="10" d="M16.7,4.2
						c0.1,0,0.2,0.2,0.2,0.4c0,0.2-0.1,0.4-0.2,0.3"/>
					<path fill="none" stroke="#FFF6ED" stroke-width="0.1" stroke-linecap="round" stroke-miterlimit="10" d="M16.7,3.4
						c0.1,0,0.2,0.2,0.2,0.4s-0.1,0.4-0.2,0.3"/>
				</g>
				<g>
					<path fill="none" stroke="#FFF6ED" stroke-width="0.1" stroke-linecap="round" stroke-miterlimit="10" d="M15,2.6
						c-0.1,0-0.2,0.2-0.2,0.3s0.1,0.4,0.2,0.4"/>
					<path fill="none" stroke="#FFF6ED" stroke-width="0.1" stroke-linecap="round" stroke-miterlimit="10" d="M15,1.8
						c-0.1,0-0.2,0.2-0.2,0.3c0,0.2,0.1,0.4,0.2,0.4"/>
					<path fill="none" stroke="#FFF6ED" stroke-width="0.1" stroke-linecap="round" stroke-miterlimit="10" d="M14.9,5.6
						c-0.1,0-0.2,0.2-0.2,0.3c0,0.2,0.1,0.4,0.2,0.4"/>
					<path fill="none" stroke="#FFF6ED" stroke-width="0.1" stroke-linecap="round" stroke-miterlimit="10" d="M14.9,4.9
						c-0.1,0-0.2,0.2-0.2,0.3c0,0.2,0.1,0.4,0.2,0.4"/>
					<path fill="none" stroke="#FFF6ED" stroke-width="0.1" stroke-linecap="round" stroke-miterlimit="10" d="M14.9,4.1
						c-0.1,0-0.2,0.2-0.2,0.3c0,0.2,0.1,0.4,0.2,0.4"/>
					<path fill="none" stroke="#FFF6ED" stroke-width="0.1" stroke-linecap="round" stroke-miterlimit="10" d="M15,3.4
						c-0.1,0-0.2,0.2-0.2,0.3c0,0.2,0.1,0.4,0.2,0.4"/>
				</g>
				<path fill="none" stroke="#FFF6ED" stroke-width="0.15" stroke-linecap="round" stroke-miterlimit="10" d="M18.2,5.4
					c0-0.1-0.1-0.7-0.4-0.6c-0.2,0.1-0.2,0.5-0.2,0.6"/>
				<path fill="none" stroke="#FFF6ED" stroke-width="0.15" stroke-linecap="round" stroke-miterlimit="10" d="M13.3,5.1
					c0-0.1,0.2-0.6,0.4-0.6c0.2,0.1,0.1,0.6,0.1,0.7"/>
			</g>
		</g>
	</g>
</g>
</svg>
