<?xml version="1.0" encoding="utf-8"?>
<!-- Generator: Adobe Illustrator 22.0.1, SVG Export Plug-In . SVG Version: 6.00 Build 0)  -->
<svg version="1.1" id="Layer_2" xmlns="http://www.w3.org/2000/svg" xmlns:xlink="http://www.w3.org/1999/xlink" x="0px" y="0px"
	 viewBox="0 0 56.9 32" enable-background="new 0 0 56.9 32" xml:space="preserve">
<g>
	<defs>
		<rect id="SVGID_1_" width="56.9" height="32"/>
	</defs>
	<clipPath id="SVGID_2_">
		<use xlink:href="#SVGID_1_"  overflow="visible"/>
	</clipPath>
	
		<path clip-path="url(#SVGID_2_)" fill="none" stroke="#FFFFFF" stroke-width="0.15" stroke-linecap="round" stroke-linejoin="round" stroke-miterlimit="10" d="
		M7.5,12.9C7.5,12.9,7.5,12.9,7.5,12.9C7.5,12.9,7.5,12.9,7.5,12.9c0.1,0.7,0.5,1.2,1,1.6c0.2,0.1,0.4,0.2,0.7,0.3
		c1,0.4,1.9,0.7,2.9,1.1c0.2,0.1,0.2,0.1,0.3-0.1c0.1-0.2,0.1-0.4,0.2-0.6c0.1-0.4,0.3-0.7,0.4-1.1c0,0,0,0,0-0.1
		c0,0-0.1-0.1-0.1-0.1c-1-0.4-2-0.8-3-1.2c-0.3-0.1-0.5-0.2-0.8-0.2C8.5,12.4,8,12.6,7.5,12.9C7.5,12.9,7.5,12.9,7.5,12.9z"/>
	
		<path clip-path="url(#SVGID_2_)" fill="none" stroke="#FFFFFF" stroke-width="0.15" stroke-linecap="round" stroke-linejoin="round" stroke-miterlimit="10" d="
		M12.9,13.8l0.6-1.7c0,0-0.1,0-0.4,0c-0.3,0-0.6,0.2-1.2,0.5c0,0-0.7,0.5-1.2,0.4"/>
	
		<path opacity="0.5" clip-path="url(#SVGID_2_)" fill="#FFFFFF" stroke="#FFFFFF" stroke-width="0.15" stroke-linecap="round" stroke-linejoin="round" stroke-miterlimit="10" d="
		M12.9,13.8l0.6-1.7c0,0-0.1,0-0.4,0l-0.6,1.6"/>
	
		<path opacity="0.5" clip-path="url(#SVGID_2_)" fill="#FFFFFF" stroke="#FFFFFF" stroke-width="0.15" stroke-linecap="round" stroke-linejoin="round" stroke-miterlimit="10" d="
		M12.1,15.8l-0.6,1.7c0,0-0.1,0-0.3-0.2l0.6-1.6"/>
	
		<path clip-path="url(#SVGID_2_)" fill="none" stroke="#FFFFFF" stroke-width="0.15" stroke-linecap="round" stroke-linejoin="round" stroke-miterlimit="10" d="
		M12.1,15.8l-0.6,1.7c0,0-0.5-0.2-0.8-1.4c0,0-0.2-0.9-0.7-1.1"/>
	<path opacity="0.5" clip-path="url(#SVGID_2_)" fill="#FFFFFF" d="M8.6,13.4c-0.1,0.3,0,0.6,0.3,0.7c0.3,0.1,0.3-0.2,0.4-0.5
		c0.1-0.3,0.3-0.5,0-0.6C9.1,12.9,8.7,13.1,8.6,13.4z"/>
	<path clip-path="url(#SVGID_2_)" fill="none" stroke="#FFFFFF" stroke-width="0.15" stroke-miterlimit="10" d="M8.6,13.4
		c-0.1,0.3,0,0.6,0.3,0.7c0.3,0.1,0.3-0.2,0.4-0.5c0.1-0.3,0.3-0.5,0-0.6C9.1,12.9,8.7,13.1,8.6,13.4z"/>
	
		<path clip-path="url(#SVGID_2_)" fill="none" stroke="#FFFFFF" stroke-width="0.15" stroke-linecap="round" stroke-linejoin="round" stroke-miterlimit="10" d="
		M10.2,2.4C10.2,2.4,10.2,2.4,10.2,2.4C10.2,2.4,10.2,2.4,10.2,2.4C9.6,2.4,8.9,2.6,8.5,3.1C8.3,3.2,8.2,3.4,8,3.6
		C7.4,4.5,6.9,5.3,6.3,6.2c-0.1,0.2-0.1,0.2,0,0.3c0.2,0.1,0.3,0.2,0.5,0.3c0.3,0.2,0.7,0.5,1,0.7c0,0,0,0,0.1,0c0,0,0.1,0,0.1-0.1
		c0.6-0.9,1.2-1.8,1.9-2.7c0.2-0.2,0.3-0.5,0.4-0.7C10.5,3.6,10.4,3,10.2,2.4C10.3,2.5,10.3,2.4,10.2,2.4z"/>
	
		<path clip-path="url(#SVGID_2_)" fill="none" stroke="#FFFFFF" stroke-width="0.15" stroke-linecap="round" stroke-linejoin="round" stroke-miterlimit="10" d="
		M8,7.4l1.5,1c0,0,0.1-0.1,0.1-0.4c0-0.3,0-0.7-0.2-1.3c0,0-0.3-0.9,0-1.3"/>
	
		<path opacity="0.5" clip-path="url(#SVGID_2_)" fill="#FFFFFF" stroke="#FFFFFF" stroke-width="0.15" stroke-linecap="round" stroke-linejoin="round" stroke-miterlimit="10" d="
		M8,7.4l1.5,1c0,0,0.1-0.1,0.1-0.4l-1.4-1"/>
	
		<path opacity="0.5" clip-path="url(#SVGID_2_)" fill="#FFFFFF" stroke="#FFFFFF" stroke-width="0.15" stroke-linecap="round" stroke-linejoin="round" stroke-miterlimit="10" d="
		M6.3,6.1l-1.5-1c0,0,0.1-0.1,0.3-0.2l1.4,1"/>
	
		<path clip-path="url(#SVGID_2_)" fill="none" stroke="#FFFFFF" stroke-width="0.15" stroke-linecap="round" stroke-linejoin="round" stroke-miterlimit="10" d="
		M6.3,6.2l-1.5-1c0,0,0.3-0.4,1.6-0.5c0,0,0.9,0,1.2-0.4"/>
	<path opacity="0.5" clip-path="url(#SVGID_2_)" fill="#FFFFFF" d="M9.5,3.4C9.2,3.3,8.9,3.3,8.7,3.6C8.5,3.8,8.8,3.9,9,4.1
		c0.3,0.2,0.4,0.4,0.6,0.1C9.8,4,9.7,3.6,9.5,3.4z"/>
	<path clip-path="url(#SVGID_2_)" fill="none" stroke="#FFFFFF" stroke-width="0.15" stroke-miterlimit="10" d="M9.5,3.4
		C9.2,3.3,8.9,3.3,8.7,3.6C8.5,3.8,8.8,3.9,9,4.1c0.3,0.2,0.4,0.4,0.6,0.1C9.8,4,9.7,3.6,9.5,3.4z"/>
	
		<path clip-path="url(#SVGID_2_)" fill="none" stroke="#FFFFFF" stroke-width="0.15" stroke-linecap="round" stroke-linejoin="round" stroke-miterlimit="10" d="
		M6.1,8.9C6.1,8.9,6.1,8.9,6.1,8.9C6.1,8.9,6.1,8.9,6.1,8.9C5.4,8.9,4.8,9.1,4.4,9.6c-0.2,0.2-0.3,0.4-0.4,0.6
		c-0.6,0.9-1.2,1.7-1.8,2.6C2,12.9,2,12.9,2.2,13c0.2,0.1,0.3,0.2,0.5,0.3c0.3,0.2,0.7,0.5,1,0.7c0,0,0,0,0.1,0c0,0,0.1,0,0.1-0.1
		c0.6-0.9,1.2-1.8,1.9-2.7c0.2-0.2,0.3-0.5,0.4-0.7C6.3,10.1,6.3,9.5,6.1,8.9C6.1,9,6.1,8.9,6.1,8.9z"/>
	
		<path clip-path="url(#SVGID_2_)" fill="none" stroke="#FFFFFF" stroke-width="0.15" stroke-linecap="round" stroke-linejoin="round" stroke-miterlimit="10" d="
		M3.9,13.9l1.5,1c0,0,0.1-0.1,0.1-0.4c0-0.3,0-0.7-0.2-1.3c0,0-0.3-0.9,0-1.3"/>
	
		<path opacity="0.5" clip-path="url(#SVGID_2_)" fill="#FFFFFF" stroke="#FFFFFF" stroke-width="0.15" stroke-linecap="round" stroke-linejoin="round" stroke-miterlimit="10" d="
		M3.9,13.9l1.5,1c0,0,0.1-0.1,0.1-0.4l-1.4-1"/>
	
		<path opacity="0.5" clip-path="url(#SVGID_2_)" fill="#FFFFFF" stroke="#FFFFFF" stroke-width="0.15" stroke-linecap="round" stroke-linejoin="round" stroke-miterlimit="10" d="
		M2.2,12.6l-1.5-1c0,0,0.1-0.1,0.3-0.2l1.4,1"/>
	
		<path clip-path="url(#SVGID_2_)" fill="none" stroke="#FFFFFF" stroke-width="0.15" stroke-linecap="round" stroke-linejoin="round" stroke-miterlimit="10" d="
		M2.1,12.7l-1.5-1c0,0,0.3-0.4,1.6-0.5c0,0,0.9,0,1.2-0.4"/>
	<path opacity="0.5" clip-path="url(#SVGID_2_)" fill="#FFFFFF" d="M5.4,9.9c-0.3-0.2-0.6-0.1-0.8,0.1c-0.2,0.3,0.1,0.3,0.3,0.5
		c0.3,0.2,0.4,0.4,0.6,0.1S5.6,10.1,5.4,9.9z"/>
	<path clip-path="url(#SVGID_2_)" fill="none" stroke="#FFFFFF" stroke-width="0.15" stroke-miterlimit="10" d="M5.4,9.9
		c-0.3-0.2-0.6-0.1-0.8,0.1c-0.2,0.3,0.1,0.3,0.3,0.5c0.3,0.2,0.4,0.4,0.6,0.1S5.6,10.1,5.4,9.9z"/>
	
		<path clip-path="url(#SVGID_2_)" fill="none" stroke="#FFFFFF" stroke-width="0.15" stroke-linecap="round" stroke-linejoin="round" stroke-miterlimit="10" d="
		M16.1,14.9C16.1,14.9,16.1,14.9,16.1,14.9C16.1,14.9,16.1,15,16.1,14.9c-0.3,0.6-0.2,1.3,0,1.9c0.1,0.2,0.3,0.4,0.4,0.6
		c0.6,0.8,1.2,1.7,1.9,2.5c0.1,0.2,0.2,0.2,0.3,0.1c0.2-0.1,0.3-0.2,0.5-0.4c0.3-0.2,0.6-0.5,1-0.7c0,0,0,0,0.1-0.1c0,0,0-0.1,0-0.1
		c-0.6-0.9-1.3-1.7-1.9-2.6c-0.2-0.2-0.3-0.5-0.6-0.7C17.3,15.1,16.7,14.9,16.1,14.9C16.1,14.9,16.1,14.9,16.1,14.9z"/>
	
		<path clip-path="url(#SVGID_2_)" fill="none" stroke="#FFFFFF" stroke-width="0.15" stroke-linecap="round" stroke-linejoin="round" stroke-miterlimit="10" d="
		M20.1,18.6l1.4-1.1c0,0-0.1-0.1-0.3-0.2s-0.6-0.2-1.3-0.2c0,0-0.9,0.1-1.2-0.4"/>
	
		<path opacity="0.5" clip-path="url(#SVGID_2_)" fill="#FFFFFF" stroke="#FFFFFF" stroke-width="0.15" stroke-linecap="round" stroke-linejoin="round" stroke-miterlimit="10" d="
		M20.1,18.6l1.4-1.1c0,0-0.1-0.1-0.3-0.2l-1.3,1"/>
	
		<path opacity="0.5" clip-path="url(#SVGID_2_)" fill="#FFFFFF" stroke="#FFFFFF" stroke-width="0.15" stroke-linecap="round" stroke-linejoin="round" stroke-miterlimit="10" d="
		M19.2,19.1l-0.6,1.7c0,0-0.1,0-0.3-0.2l0.6-1.6"/>
	
		<path clip-path="url(#SVGID_2_)" fill="none" stroke="#FFFFFF" stroke-width="0.15" stroke-linecap="round" stroke-linejoin="round" stroke-miterlimit="10" d="
		M18.4,19.9L17,20.9c0,0-0.3-0.4,0.1-1.6c0,0,0.3-0.9,0-1.3"/>
	<path opacity="0.5" clip-path="url(#SVGID_2_)" fill="#FFFFFF" d="M16.8,15.9c-0.3,0.2-0.3,0.5-0.1,0.8c0.2,0.3,0.3,0,0.6-0.2
		s0.5-0.3,0.3-0.5C17.4,15.8,17.1,15.8,16.8,15.9z"/>
	<path clip-path="url(#SVGID_2_)" fill="none" stroke="#FFFFFF" stroke-width="0.15" stroke-miterlimit="10" d="M16.8,15.9
		c-0.3,0.2-0.3,0.5-0.1,0.8c0.2,0.3,0.3,0,0.6-0.2s0.5-0.3,0.3-0.5C17.4,15.8,17.1,15.8,16.8,15.9z"/>
	
		<path clip-path="url(#SVGID_2_)" fill="none" stroke="#FFFFFF" stroke-width="0.15" stroke-linecap="round" stroke-linejoin="round" stroke-miterlimit="10" d="
		M23.2,7.3C23.2,7.3,23.2,7.3,23.2,7.3C23.1,7.3,23.1,7.3,23.2,7.3c-0.7-0.1-1.3,0.2-1.8,0.6c-0.2,0.2-0.3,0.4-0.4,0.6
		c-0.6,0.9-1.2,1.7-1.8,2.6c-0.1,0.2-0.1,0.2,0,0.3c0.2,0.1,0.3,0.2,0.5,0.3c0.3,0.2,0.7,0.5,1,0.7c0,0,0,0,0.1,0c0,0,0.1,0,0.1-0.1
		c0.6-0.9,1.2-1.8,1.9-2.7c0.2-0.2,0.3-0.5,0.4-0.7C23.4,8.5,23.4,7.9,23.2,7.3C23.2,7.4,23.2,7.4,23.2,7.3z"/>
	
		<path clip-path="url(#SVGID_2_)" fill="none" stroke="#FFFFFF" stroke-width="0.15" stroke-linecap="round" stroke-linejoin="round" stroke-miterlimit="10" d="
		M20.9,12.3l1.5,1c0,0,0.1-0.1,0.1-0.4c0-0.3,0-0.7-0.2-1.3c0,0-0.3-0.9,0-1.3"/>
	
		<path opacity="0.5" clip-path="url(#SVGID_2_)" fill="#FFFFFF" stroke="#FFFFFF" stroke-width="0.15" stroke-linecap="round" stroke-linejoin="round" stroke-miterlimit="10" d="
		M20.9,12.3l1.5,1c0,0,0.1-0.1,0.1-0.4l-1.4-1"/>
	
		<path opacity="0.5" clip-path="url(#SVGID_2_)" fill="#FFFFFF" stroke="#FFFFFF" stroke-width="0.15" stroke-linecap="round" stroke-linejoin="round" stroke-miterlimit="10" d="
		M19.2,11.1l-1.5-1c0,0,0.1-0.1,0.3-0.2l1.4,1"/>
	
		<path clip-path="url(#SVGID_2_)" fill="none" stroke="#FFFFFF" stroke-width="0.15" stroke-linecap="round" stroke-linejoin="round" stroke-miterlimit="10" d="
		M19.2,11.1l-1.5-1c0,0,0.3-0.4,1.6-0.5c0,0,0.9,0,1.2-0.4"/>
	<path opacity="0.5" clip-path="url(#SVGID_2_)" fill="#FFFFFF" d="M22.4,8.3c-0.3-0.2-0.6-0.1-0.8,0.1C21.4,8.7,21.7,8.8,22,9
		c0.3,0.2,0.4,0.4,0.6,0.1C22.7,8.9,22.7,8.5,22.4,8.3z"/>
	<path clip-path="url(#SVGID_2_)" fill="none" stroke="#FFFFFF" stroke-width="0.15" stroke-miterlimit="10" d="M22.4,8.3
		c-0.3-0.2-0.6-0.1-0.8,0.1C21.4,8.7,21.7,8.8,22,9c0.3,0.2,0.4,0.4,0.6,0.1C22.7,8.9,22.7,8.5,22.4,8.3z"/>
	
		<path clip-path="url(#SVGID_2_)" fill="none" stroke="#FFFFFF" stroke-width="0.15" stroke-linecap="round" stroke-linejoin="round" stroke-miterlimit="10" d="
		M13.3,2.6C13.3,2.6,13.3,2.6,13.3,2.6C13.3,2.6,13.3,2.6,13.3,2.6c0.1,0.7,0.5,1.2,1,1.6c0.2,0.1,0.4,0.2,0.6,0.3
		c1,0.4,1.9,0.7,2.9,1.1c0.2,0.1,0.2,0.1,0.3-0.1c0.1-0.2,0.1-0.4,0.2-0.6c0.1-0.4,0.3-0.7,0.4-1.1c0,0,0,0,0-0.1
		c0,0-0.1-0.1-0.1-0.1c-1-0.4-2-0.8-3-1.2c-0.3-0.1-0.5-0.2-0.8-0.2C14.3,2.1,13.8,2.3,13.3,2.6C13.3,2.6,13.3,2.6,13.3,2.6z"/>
	
		<path clip-path="url(#SVGID_2_)" fill="none" stroke="#FFFFFF" stroke-width="0.15" stroke-linecap="round" stroke-linejoin="round" stroke-miterlimit="10" d="
		M18.6,3.5l0.6-1.7c0,0-0.1,0-0.4,0c-0.3,0-0.6,0.2-1.2,0.5c0,0-0.7,0.5-1.2,0.4"/>
	
		<path opacity="0.5" clip-path="url(#SVGID_2_)" fill="#FFFFFF" stroke="#FFFFFF" stroke-width="0.15" stroke-linecap="round" stroke-linejoin="round" stroke-miterlimit="10" d="
		M18.6,3.5l0.6-1.7c0,0-0.1,0-0.4,0l-0.6,1.6"/>
	
		<path opacity="0.5" clip-path="url(#SVGID_2_)" fill="#FFFFFF" stroke="#FFFFFF" stroke-width="0.15" stroke-linecap="round" stroke-linejoin="round" stroke-miterlimit="10" d="
		M17.8,5.5l-0.6,1.7c0,0-0.1,0-0.3-0.2l0.6-1.6"/>
	
		<path clip-path="url(#SVGID_2_)" fill="none" stroke="#FFFFFF" stroke-width="0.15" stroke-linecap="round" stroke-linejoin="round" stroke-miterlimit="10" d="
		M17.8,5.5l-0.6,1.7c0,0-0.5-0.2-0.8-1.4c0,0-0.2-0.9-0.7-1.1"/>
	<path opacity="0.5" clip-path="url(#SVGID_2_)" fill="#FFFFFF" d="M14.4,3.1c-0.1,0.3,0,0.6,0.3,0.7s0.3-0.2,0.4-0.5s0.3-0.5,0-0.6
		C14.9,2.6,14.5,2.8,14.4,3.1z"/>
	<path clip-path="url(#SVGID_2_)" fill="none" stroke="#FFFFFF" stroke-width="0.15" stroke-miterlimit="10" d="M14.4,3.1
		c-0.1,0.3,0,0.6,0.3,0.7s0.3-0.2,0.4-0.5s0.3-0.5,0-0.6C14.9,2.6,14.5,2.8,14.4,3.1z"/>
	
		<path clip-path="url(#SVGID_2_)" fill="none" stroke="#FFFFFF" stroke-width="0.15" stroke-linecap="round" stroke-linejoin="round" stroke-miterlimit="10" d="
		M18.3,25.9C18.3,25.9,18.3,25.9,18.3,25.9C18.3,25.8,18.3,25.8,18.3,25.9c-0.7-0.1-1.3,0.2-1.7,0.6c-0.2,0.2-0.3,0.4-0.4,0.6
		c-0.6,0.9-1.2,1.7-1.8,2.6c-0.1,0.2-0.1,0.2,0,0.3c0.2,0.1,0.3,0.2,0.5,0.4c0.3,0.2,0.6,0.5,1,0.7c0,0,0,0,0.1,0c0,0,0.1,0,0.1-0.1
		c0.6-0.9,1.2-1.8,1.8-2.7c0.2-0.2,0.3-0.5,0.4-0.7C18.5,27,18.5,26.4,18.3,25.9C18.3,25.9,18.3,25.9,18.3,25.9z"/>
	
		<path clip-path="url(#SVGID_2_)" fill="none" stroke="#FFFFFF" stroke-width="0.15" stroke-linecap="round" stroke-linejoin="round" stroke-miterlimit="10" d="
		M16.1,30.8l1.4,1c0,0,0.1-0.1,0.1-0.4c0-0.3,0-0.7-0.2-1.3c0,0-0.3-0.9,0-1.3"/>
	
		<path opacity="0.5" clip-path="url(#SVGID_2_)" fill="#FFFFFF" stroke="#FFFFFF" stroke-width="0.15" stroke-linecap="round" stroke-linejoin="round" stroke-miterlimit="10" d="
		M16.1,30.8l1.4,1c0,0,0.1-0.1,0.1-0.4l-1.3-1"/>
	
		<path opacity="0.5" clip-path="url(#SVGID_2_)" fill="#FFFFFF" stroke="#FFFFFF" stroke-width="0.15" stroke-linecap="round" stroke-linejoin="round" stroke-miterlimit="10" d="
		M14.4,29.6l-1.4-1c0,0,0.1-0.1,0.3-0.2l1.3,1"/>
	
		<path clip-path="url(#SVGID_2_)" fill="none" stroke="#FFFFFF" stroke-width="0.15" stroke-linecap="round" stroke-linejoin="round" stroke-miterlimit="10" d="
		M14.4,29.6l-1.4-1c0,0,0.3-0.4,1.5-0.5c0,0,0.9,0,1.2-0.4"/>
	<path opacity="0.5" clip-path="url(#SVGID_2_)" fill="#FFFFFF" d="M17.6,26.9c-0.3-0.2-0.6-0.1-0.8,0.1c-0.2,0.3,0.1,0.3,0.3,0.5
		c0.3,0.2,0.4,0.4,0.6,0.1C17.9,27.4,17.8,27,17.6,26.9z"/>
	<path clip-path="url(#SVGID_2_)" fill="none" stroke="#FFFFFF" stroke-width="0.15" stroke-miterlimit="10" d="M17.6,26.9
		c-0.3-0.2-0.6-0.1-0.8,0.1c-0.2,0.3,0.1,0.3,0.3,0.5c0.3,0.2,0.4,0.4,0.6,0.1C17.9,27.4,17.8,27,17.6,26.9z"/>
	
		<path clip-path="url(#SVGID_2_)" fill="none" stroke="#FFFFFF" stroke-width="0.15" stroke-linecap="round" stroke-linejoin="round" stroke-miterlimit="10" d="
		M46.1,26.2C46.1,26.2,46.1,26.2,46.1,26.2C46.1,26.3,46.1,26.3,46.1,26.2c0.1,0.7,0.5,1.2,1,1.6c0.2,0.1,0.4,0.2,0.7,0.3
		c1,0.4,1.9,0.7,2.9,1.1c0.2,0.1,0.2,0.1,0.3-0.1c0.1-0.2,0.1-0.4,0.2-0.6c0.1-0.4,0.3-0.7,0.4-1.1c0,0,0,0,0-0.1
		c0,0-0.1-0.1-0.1-0.1c-1-0.4-2-0.8-3-1.2c-0.3-0.1-0.5-0.2-0.8-0.2C47.2,25.7,46.7,25.9,46.1,26.2C46.2,26.2,46.2,26.2,46.1,26.2z"
		/>
	
		<path clip-path="url(#SVGID_2_)" fill="none" stroke="#FFFFFF" stroke-width="0.15" stroke-linecap="round" stroke-linejoin="round" stroke-miterlimit="10" d="
		M51.5,27.2l0.6-1.7c0,0-0.1,0-0.4,0c-0.3,0-0.6,0.2-1.2,0.5c0,0-0.7,0.5-1.2,0.4"/>
	
		<path opacity="0.5" clip-path="url(#SVGID_2_)" fill="#FFFFFF" stroke="#FFFFFF" stroke-width="0.15" stroke-linecap="round" stroke-linejoin="round" stroke-miterlimit="10" d="
		M51.5,27.2l0.6-1.7c0,0-0.1,0-0.4,0L51.2,27"/>
	
		<path opacity="0.5" clip-path="url(#SVGID_2_)" fill="#FFFFFF" stroke="#FFFFFF" stroke-width="0.15" stroke-linecap="round" stroke-linejoin="round" stroke-miterlimit="10" d="
		M50.7,29.1l-0.6,1.7c0,0-0.1,0-0.3-0.2l0.6-1.6"/>
	
		<path clip-path="url(#SVGID_2_)" fill="none" stroke="#FFFFFF" stroke-width="0.15" stroke-linecap="round" stroke-linejoin="round" stroke-miterlimit="10" d="
		M50.8,29.2l-0.6,1.7c0,0-0.5-0.2-0.8-1.4c0,0-0.2-0.9-0.7-1.1"/>
	<path opacity="0.5" clip-path="url(#SVGID_2_)" fill="#FFFFFF" d="M47.3,26.7c-0.1,0.3,0,0.6,0.3,0.7s0.3-0.2,0.4-0.5
		s0.3-0.5,0-0.6S47.4,26.4,47.3,26.7z"/>
	<path clip-path="url(#SVGID_2_)" fill="none" stroke="#FFFFFF" stroke-width="0.15" stroke-miterlimit="10" d="M47.3,26.7
		c-0.1,0.3,0,0.6,0.3,0.7s0.3-0.2,0.4-0.5s0.3-0.5,0-0.6S47.4,26.4,47.3,26.7z"/>
	
		<path clip-path="url(#SVGID_2_)" fill="none" stroke="#FFFFFF" stroke-width="0.15" stroke-linecap="round" stroke-linejoin="round" stroke-miterlimit="10" d="
		M54.7,17.3C54.7,17.3,54.7,17.3,54.7,17.3C54.7,17.3,54.7,17.3,54.7,17.3c-0.7-0.1-1.3,0.2-1.8,0.6c-0.2,0.2-0.3,0.4-0.4,0.6
		c-0.6,0.9-1.2,1.7-1.8,2.6c-0.1,0.2-0.1,0.2,0,0.3c0.2,0.1,0.3,0.2,0.5,0.3c0.3,0.2,0.7,0.5,1,0.7c0,0,0,0,0.1,0c0,0,0.1,0,0.1-0.1
		c0.6-0.9,1.2-1.8,1.9-2.7c0.2-0.2,0.3-0.5,0.4-0.7C54.9,18.5,54.9,17.9,54.7,17.3C54.7,17.4,54.7,17.4,54.7,17.3z"/>
	
		<path clip-path="url(#SVGID_2_)" fill="none" stroke="#FFFFFF" stroke-width="0.15" stroke-linecap="round" stroke-linejoin="round" stroke-miterlimit="10" d="
		M52.5,22.3l1.5,1c0,0,0.1-0.1,0.1-0.4c0-0.3,0-0.7-0.2-1.3c0,0-0.3-0.9,0-1.3"/>
	
		<path opacity="0.5" clip-path="url(#SVGID_2_)" fill="#FFFFFF" stroke="#FFFFFF" stroke-width="0.15" stroke-linecap="round" stroke-linejoin="round" stroke-miterlimit="10" d="
		M52.5,22.3l1.5,1c0,0,0.1-0.1,0.1-0.4l-1.4-1"/>
	
		<path opacity="0.5" clip-path="url(#SVGID_2_)" fill="#FFFFFF" stroke="#FFFFFF" stroke-width="0.15" stroke-linecap="round" stroke-linejoin="round" stroke-miterlimit="10" d="
		M50.8,21.1l-1.5-1c0,0,0.1-0.1,0.3-0.2l1.4,1"/>
	
		<path clip-path="url(#SVGID_2_)" fill="none" stroke="#FFFFFF" stroke-width="0.15" stroke-linecap="round" stroke-linejoin="round" stroke-miterlimit="10" d="
		M50.7,21.1l-1.5-1c0,0,0.3-0.4,1.6-0.5c0,0,0.9,0,1.2-0.4"/>
	<path opacity="0.5" clip-path="url(#SVGID_2_)" fill="#FFFFFF" d="M54,18.3c-0.3-0.2-0.6-0.1-0.8,0.1s0.1,0.3,0.3,0.5
		c0.3,0.2,0.4,0.4,0.6,0.1C54.3,18.9,54.2,18.5,54,18.3z"/>
	<path clip-path="url(#SVGID_2_)" fill="none" stroke="#FFFFFF" stroke-width="0.15" stroke-miterlimit="10" d="M54,18.3
		c-0.3-0.2-0.6-0.1-0.8,0.1s0.1,0.3,0.3,0.5c0.3,0.2,0.4,0.4,0.6,0.1C54.3,18.9,54.2,18.5,54,18.3z"/>
	
		<path clip-path="url(#SVGID_2_)" fill="none" stroke="#FFFFFF" stroke-width="0.15" stroke-linecap="round" stroke-linejoin="round" stroke-miterlimit="10" d="
		M32.5,19.3C32.5,19.3,32.5,19.3,32.5,19.3C32.5,19.3,32.5,19.3,32.5,19.3c0.5,0.4,1.2,0.6,1.8,0.5c0.2,0,0.5-0.1,0.7-0.2
		c1-0.4,1.9-0.7,2.9-1.1c0.2-0.1,0.2-0.1,0.2-0.3c-0.1-0.2-0.1-0.4-0.2-0.6c-0.1-0.4-0.3-0.7-0.4-1.1c0,0,0,0,0-0.1c0,0-0.1,0-0.1,0
		c-1,0.4-2,0.8-3,1.2c-0.3,0.1-0.5,0.2-0.8,0.4C32.9,18.2,32.6,18.7,32.5,19.3C32.5,19.2,32.5,19.3,32.5,19.3z"/>
	
		<path clip-path="url(#SVGID_2_)" fill="none" stroke="#FFFFFF" stroke-width="0.15" stroke-linecap="round" stroke-linejoin="round" stroke-miterlimit="10" d="
		M37.1,16.4l-0.6-1.7c0,0-0.1,0-0.3,0.2c-0.2,0.2-0.4,0.6-0.5,1.2c0,0-0.2,0.9-0.7,1.1"/>
	
		<path opacity="0.5" clip-path="url(#SVGID_2_)" fill="#FFFFFF" stroke="#FFFFFF" stroke-width="0.15" stroke-linecap="round" stroke-linejoin="round" stroke-miterlimit="10" d="
		M37.1,16.4l-0.6-1.7c0,0-0.1,0-0.3,0.2l0.6,1.6"/>
	
		<path opacity="0.5" clip-path="url(#SVGID_2_)" fill="#FFFFFF" stroke="#FFFFFF" stroke-width="0.15" stroke-linecap="round" stroke-linejoin="round" stroke-miterlimit="10" d="
		M37.8,18.4l0.6,1.7c0,0-0.1,0-0.4,0l-0.6-1.6"/>
	
		<path clip-path="url(#SVGID_2_)" fill="none" stroke="#FFFFFF" stroke-width="0.15" stroke-linecap="round" stroke-linejoin="round" stroke-miterlimit="10" d="
		M37.9,18.4l0.6,1.7c0,0-0.5,0.2-1.6-0.5c0,0-0.8-0.5-1.2-0.4"/>
	<path opacity="0.5" clip-path="url(#SVGID_2_)" fill="#FFFFFF" d="M33.6,18.9c0.1,0.3,0.4,0.4,0.7,0.3c0.3-0.1,0.1-0.3,0-0.6
		S34.3,18,34,18.1S33.5,18.6,33.6,18.9z"/>
	<path clip-path="url(#SVGID_2_)" fill="none" stroke="#FFFFFF" stroke-width="0.15" stroke-miterlimit="10" d="M33.6,18.9
		c0.1,0.3,0.4,0.4,0.7,0.3c0.3-0.1,0.1-0.3,0-0.6S34.3,18,34,18.1S33.5,18.6,33.6,18.9z"/>
	
		<path clip-path="url(#SVGID_2_)" fill="none" stroke="#FFFFFF" stroke-width="0.15" stroke-linecap="round" stroke-linejoin="round" stroke-miterlimit="10" d="
		M33,6.9C33,6.9,33,6.9,33,6.9C32.9,6.9,32.9,7,33,6.9c-0.6,0.4-0.9,1-0.9,1.6c0,0.2,0,0.5,0,0.7c0.1,1,0.2,2.1,0.4,3.1
		c0,0.2,0,0.2,0.3,0.2c0.2,0,0.4,0,0.6-0.1c0.4,0,0.8-0.1,1.2-0.1c0,0,0.1,0,0.1,0c0,0,0-0.1,0-0.1c-0.1-1.1-0.2-2.2-0.4-3.2
		c0-0.3-0.1-0.6-0.2-0.9C33.9,7.7,33.5,7.2,33,6.9C33,7,33,6.9,33,6.9z"/>
	
		<path clip-path="url(#SVGID_2_)" fill="none" stroke="#FFFFFF" stroke-width="0.15" stroke-linecap="round" stroke-linejoin="round" stroke-miterlimit="10" d="
		M34.6,12.1l1.8-0.2c0,0,0-0.1-0.2-0.3c-0.2-0.2-0.4-0.5-1-0.8c0,0-0.8-0.4-0.9-0.9"/>
	
		<path opacity="0.5" clip-path="url(#SVGID_2_)" fill="#FFFFFF" stroke="#FFFFFF" stroke-width="0.15" stroke-linecap="round" stroke-linejoin="round" stroke-miterlimit="10" d="
		M34.6,12.1l1.8-0.2c0,0,0-0.1-0.2-0.3l-1.7,0.2"/>
	
		<path opacity="0.5" clip-path="url(#SVGID_2_)" fill="#FFFFFF" stroke="#FFFFFF" stroke-width="0.15" stroke-linecap="round" stroke-linejoin="round" stroke-miterlimit="10" d="
		M32.5,12.3l-1.8,0.2c0,0,0-0.1,0.1-0.4l1.7-0.2"/>
	
		<path clip-path="url(#SVGID_2_)" fill="none" stroke="#FFFFFF" stroke-width="0.15" stroke-linecap="round" stroke-linejoin="round" stroke-miterlimit="10" d="
		M32.5,12.4l-1.8,0.2c0,0-0.1-0.5,0.9-1.4c0,0,0.7-0.6,0.6-1.1"/>
	<path opacity="0.5" clip-path="url(#SVGID_2_)" fill="#FFFFFF" d="M33.1,8.2c-0.3,0-0.5,0.3-0.5,0.6c0,0.3,0.3,0.2,0.6,0.2
		c0.3,0,0.6,0,0.5-0.3C33.7,8.4,33.4,8.2,33.1,8.2z"/>
	<path clip-path="url(#SVGID_2_)" fill="none" stroke="#FFFFFF" stroke-width="0.15" stroke-miterlimit="10" d="M33.1,8.2
		c-0.3,0-0.5,0.3-0.5,0.6c0,0.3,0.3,0.2,0.6,0.2c0.3,0,0.6,0,0.5-0.3C33.7,8.4,33.4,8.2,33.1,8.2z"/>
	
		<path clip-path="url(#SVGID_2_)" fill="none" stroke="#FFFFFF" stroke-width="0.15" stroke-linecap="round" stroke-linejoin="round" stroke-miterlimit="10" d="
		M58,4.8C58,4.8,58,4.8,58,4.8C58,4.8,58,4.7,58,4.8c-0.6-0.4-1.3-0.5-1.9-0.3c-0.2,0.1-0.4,0.2-0.7,0.3c-0.9,0.5-1.9,0.9-2.8,1.4
		c-0.2,0.1-0.2,0.1-0.1,0.3c0.1,0.2,0.2,0.4,0.3,0.5c0.2,0.4,0.4,0.7,0.5,1.1c0,0,0,0,0,0.1c0,0,0.1,0,0.1,0c1-0.5,1.9-1,2.9-1.4
		c0.3-0.1,0.5-0.3,0.7-0.4C57.7,5.9,57.9,5.4,58,4.8C58,4.8,58,4.8,58,4.8z"/>
	
		<path clip-path="url(#SVGID_2_)" fill="none" stroke="#FFFFFF" stroke-width="0.15" stroke-linecap="round" stroke-linejoin="round" stroke-miterlimit="10" d="
		M53.7,8.1l0.8,1.6c0,0,0.1-0.1,0.3-0.3c0.1-0.2,0.3-0.6,0.4-1.2c0,0,0.1-0.9,0.6-1.1"/>
	
		<path opacity="0.5" clip-path="url(#SVGID_2_)" fill="#FFFFFF" stroke="#FFFFFF" stroke-width="0.15" stroke-linecap="round" stroke-linejoin="round" stroke-miterlimit="10" d="
		M53.7,8.1l0.8,1.6c0,0,0.1-0.1,0.3-0.3L54,7.9"/>
	
		<path opacity="0.5" clip-path="url(#SVGID_2_)" fill="#FFFFFF" stroke="#FFFFFF" stroke-width="0.15" stroke-linecap="round" stroke-linejoin="round" stroke-miterlimit="10" d="
		M52.8,6.2L52,4.6c0,0,0.1-0.1,0.4,0L53.1,6"/>
	
		<path clip-path="url(#SVGID_2_)" fill="none" stroke="#FFFFFF" stroke-width="0.15" stroke-linecap="round" stroke-linejoin="round" stroke-miterlimit="10" d="
		M52.7,6.2l-0.8-1.6c0,0,0.5-0.2,1.6,0.3c0,0,0.8,0.5,1.3,0.2"/>
	<path opacity="0.5" clip-path="url(#SVGID_2_)" fill="#FFFFFF" d="M56.9,5.3c-0.1-0.3-0.5-0.4-0.8-0.3c-0.3,0.1-0.1,0.3,0,0.6
		s0.2,0.5,0.5,0.4C56.9,5.9,57,5.6,56.9,5.3z"/>
	<path clip-path="url(#SVGID_2_)" fill="none" stroke="#FFFFFF" stroke-width="0.15" stroke-miterlimit="10" d="M56.9,5.3
		c-0.1-0.3-0.5-0.4-0.8-0.3c-0.3,0.1-0.1,0.3,0,0.6s0.2,0.5,0.5,0.4C56.9,5.9,57,5.6,56.9,5.3z"/>
	
		<path clip-path="url(#SVGID_2_)" fill="none" stroke="#FFFFFF" stroke-width="0.15" stroke-linecap="round" stroke-linejoin="round" stroke-miterlimit="10" d="
		M50.7,13.3C50.7,13.2,50.7,13.2,50.7,13.3C50.7,13.2,50.7,13.2,50.7,13.3c0-0.7-0.3-1.3-0.8-1.7c-0.2-0.2-0.4-0.3-0.6-0.4
		c-0.9-0.5-1.8-1-2.7-1.6c-0.2-0.1-0.2-0.1-0.3,0.1c-0.1,0.2-0.2,0.4-0.3,0.5c-0.2,0.3-0.4,0.7-0.6,1c0,0,0,0,0,0.1
		c0,0,0,0.1,0.1,0.1c0.9,0.5,1.9,1.1,2.8,1.6c0.3,0.1,0.5,0.3,0.8,0.4C49.6,13.6,50.2,13.5,50.7,13.3C50.7,13.3,50.7,13.3,50.7,13.3
		z"/>
	
		<path clip-path="url(#SVGID_2_)" fill="none" stroke="#FFFFFF" stroke-width="0.15" stroke-linecap="round" stroke-linejoin="round" stroke-miterlimit="10" d="
		M45.6,11.5L44.7,13c0,0,0.1,0.1,0.4,0.1c0.3,0,0.7-0.1,1.2-0.3c0,0,0.8-0.4,1.3-0.2"/>
	
		<path opacity="0.5" clip-path="url(#SVGID_2_)" fill="#FFFFFF" stroke="#FFFFFF" stroke-width="0.15" stroke-linecap="round" stroke-linejoin="round" stroke-miterlimit="10" d="
		M45.6,11.5L44.7,13c0,0,0.1,0.1,0.4,0.1l0.8-1.4"/>
	
		<path opacity="0.5" clip-path="url(#SVGID_2_)" fill="#FFFFFF" stroke="#FFFFFF" stroke-width="0.15" stroke-linecap="round" stroke-linejoin="round" stroke-miterlimit="10" d="
		M46.7,9.6l0.9-1.5c0,0,0.1,0.1,0.2,0.3L47,9.8"/>
	
		<path clip-path="url(#SVGID_2_)" fill="none" stroke="#FFFFFF" stroke-width="0.15" stroke-linecap="round" stroke-linejoin="round" stroke-miterlimit="10" d="
		M46.6,9.6l0.9-1.5c0,0,0.4,0.3,0.6,1.5c0,0,0.1,0.9,0.5,1.2"/>
	<path opacity="0.5" clip-path="url(#SVGID_2_)" fill="#FFFFFF" d="M49.7,12.6c0.2-0.3,0.1-0.6-0.2-0.8s-0.3,0.1-0.5,0.4
		c-0.2,0.3-0.3,0.4-0.1,0.6C49.2,13,49.5,12.9,49.7,12.6z"/>
	<path clip-path="url(#SVGID_2_)" fill="none" stroke="#FFFFFF" stroke-width="0.15" stroke-miterlimit="10" d="M49.7,12.6
		c0.2-0.3,0.1-0.6-0.2-0.8s-0.3,0.1-0.5,0.4c-0.2,0.3-0.3,0.4-0.1,0.6C49.2,13,49.5,12.9,49.7,12.6z"/>
	
		<path clip-path="url(#SVGID_2_)" fill="none" stroke="#FFFFFF" stroke-width="0.15" stroke-linecap="round" stroke-linejoin="round" stroke-miterlimit="10" d="
		M45.9,2.1C45.9,2.1,45.9,2.1,45.9,2.1C45.9,2.1,45.9,2.1,45.9,2.1c-0.6,0.4-0.9,1-0.9,1.6c0,0.2,0,0.5,0,0.7c0.1,1,0.2,2.1,0.4,3.1
		c0,0.2,0,0.2,0.3,0.2c0.2,0,0.4,0,0.6-0.1c0.4,0,0.8-0.1,1.2-0.1c0,0,0.1,0,0.1,0c0,0,0-0.1,0-0.1c-0.1-1.1-0.2-2.2-0.4-3.2
		c0-0.3-0.1-0.6-0.2-0.9C46.8,2.8,46.4,2.4,45.9,2.1C45.9,2.1,45.9,2.1,45.9,2.1z"/>
	
		<path clip-path="url(#SVGID_2_)" fill="none" stroke="#FFFFFF" stroke-width="0.15" stroke-linecap="round" stroke-linejoin="round" stroke-miterlimit="10" d="
		M47.5,7.3l1.8-0.2c0,0,0-0.1-0.2-0.3c-0.2-0.2-0.4-0.5-1-0.8c0,0-0.8-0.4-0.9-0.9"/>
	
		<path opacity="0.5" clip-path="url(#SVGID_2_)" fill="#FFFFFF" stroke="#FFFFFF" stroke-width="0.15" stroke-linecap="round" stroke-linejoin="round" stroke-miterlimit="10" d="
		M47.5,7.3l1.8-0.2c0,0,0-0.1-0.2-0.3l-1.7,0.2"/>
	
		<path opacity="0.5" clip-path="url(#SVGID_2_)" fill="#FFFFFF" stroke="#FFFFFF" stroke-width="0.15" stroke-linecap="round" stroke-linejoin="round" stroke-miterlimit="10" d="
		M45.4,7.5l-1.8,0.2c0,0,0-0.1,0.1-0.4l1.7-0.2"/>
	
		<path clip-path="url(#SVGID_2_)" fill="none" stroke="#FFFFFF" stroke-width="0.15" stroke-linecap="round" stroke-linejoin="round" stroke-miterlimit="10" d="
		M45.4,7.5l-1.8,0.2c0,0-0.1-0.5,0.9-1.4c0,0,0.7-0.6,0.6-1.1"/>
	<path opacity="0.5" clip-path="url(#SVGID_2_)" fill="#FFFFFF" d="M46,3.3c-0.3,0-0.5,0.3-0.5,0.6c0,0.3,0.3,0.2,0.6,0.2
		c0.3,0,0.6,0,0.5-0.3C46.6,3.5,46.3,3.3,46,3.3z"/>
	<path clip-path="url(#SVGID_2_)" fill="none" stroke="#FFFFFF" stroke-width="0.15" stroke-miterlimit="10" d="M46,3.3
		c-0.3,0-0.5,0.3-0.5,0.6c0,0.3,0.3,0.2,0.6,0.2c0.3,0,0.6,0,0.5-0.3C46.6,3.5,46.3,3.3,46,3.3z"/>
	
		<path clip-path="url(#SVGID_2_)" fill="none" stroke="#FFFFFF" stroke-width="0.15" stroke-linecap="round" stroke-linejoin="round" stroke-miterlimit="10" d="
		M25.1,8.8C25.1,8.8,25.1,8.8,25.1,8.8C25.1,8.8,25.1,8.8,25.1,8.8c0.5,0.4,1.2,0.6,1.8,0.5c0.2,0,0.5-0.1,0.7-0.2
		c1-0.4,1.9-0.7,2.9-1.1c0.2-0.1,0.2-0.1,0.2-0.3c-0.1-0.2-0.1-0.4-0.2-0.6C30.3,6.7,30.1,6.3,30,6c0,0,0,0,0-0.1c0,0-0.1,0-0.1,0
		c-1,0.4-2,0.8-3,1.2c-0.3,0.1-0.5,0.2-0.8,0.4C25.5,7.7,25.2,8.2,25.1,8.8C25.1,8.8,25.1,8.8,25.1,8.8z"/>
	
		<path clip-path="url(#SVGID_2_)" fill="none" stroke="#FFFFFF" stroke-width="0.15" stroke-linecap="round" stroke-linejoin="round" stroke-miterlimit="10" d="
		M29.7,5.9l-0.6-1.7c0,0-0.1,0-0.3,0.2c-0.2,0.2-0.4,0.6-0.5,1.2c0,0-0.2,0.9-0.7,1.1"/>
	
		<path opacity="0.5" clip-path="url(#SVGID_2_)" fill="#FFFFFF" stroke="#FFFFFF" stroke-width="0.15" stroke-linecap="round" stroke-linejoin="round" stroke-miterlimit="10" d="
		M29.7,5.9l-0.6-1.7c0,0-0.1,0-0.3,0.2l0.6,1.6"/>
	
		<path clip-path="url(#SVGID_2_)" fill="none" stroke="#FFFFFF" stroke-width="0.15" stroke-linecap="round" stroke-linejoin="round" stroke-miterlimit="10" d="
		M30.5,7.9l0.6,1.7c0,0-0.5,0.2-1.6-0.5c0,0-0.8-0.5-1.2-0.4"/>
	<path opacity="0.5" clip-path="url(#SVGID_2_)" fill="#FFFFFF" d="M26.2,8.4c0.1,0.3,0.4,0.4,0.7,0.3c0.3-0.1,0.1-0.3,0-0.6
		c-0.1-0.3-0.1-0.6-0.4-0.4S26.1,8.1,26.2,8.4z"/>
	<path clip-path="url(#SVGID_2_)" fill="none" stroke="#FFFFFF" stroke-width="0.15" stroke-miterlimit="10" d="M26.2,8.4
		c0.1,0.3,0.4,0.4,0.7,0.3c0.3-0.1,0.1-0.3,0-0.6c-0.1-0.3-0.1-0.6-0.4-0.4S26.1,8.1,26.2,8.4z"/>
	
		<path clip-path="url(#SVGID_2_)" fill="none" stroke="#FFFFFF" stroke-width="0.15" stroke-linecap="round" stroke-linejoin="round" stroke-miterlimit="10" d="
		M40.2,16.5C40.2,16.5,40.2,16.5,40.2,16.5C40.2,16.5,40.3,16.5,40.2,16.5c0.7-0.2,1.2-0.6,1.4-1.2c0.1-0.2,0.2-0.4,0.2-0.7
		c0.3-1,0.5-2,0.8-3c0.1-0.2,0.1-0.2-0.1-0.3c-0.2-0.1-0.4-0.1-0.6-0.2c-0.4-0.1-0.8-0.2-1.1-0.3c0,0-0.1,0-0.1,0
		c0,0-0.1,0.1-0.1,0.1c-0.3,1-0.6,2.1-0.9,3.1c-0.1,0.3-0.2,0.6-0.2,0.9C39.6,15.5,39.8,16,40.2,16.5C40.2,16.5,40.2,16.5,40.2,16.5
		z"/>
	
		<path clip-path="url(#SVGID_2_)" fill="none" stroke="#FFFFFF" stroke-width="0.15" stroke-linecap="round" stroke-linejoin="round" stroke-miterlimit="10" d="
		M40.6,11.1l-1.7-0.5c0,0,0,0.1,0,0.4c0.1,0.2,0.2,0.6,0.6,1.1c0,0,0.6,0.7,0.5,1.2"/>
	
		<path opacity="0.5" clip-path="url(#SVGID_2_)" fill="#FFFFFF" stroke="#FFFFFF" stroke-width="0.15" stroke-linecap="round" stroke-linejoin="round" stroke-miterlimit="10" d="
		M40.6,11.1l-1.7-0.5c0,0,0,0.1,0,0.4l1.6,0.4"/>
	
		<path clip-path="url(#SVGID_2_)" fill="none" stroke="#FFFFFF" stroke-width="0.15" stroke-linecap="round" stroke-linejoin="round" stroke-miterlimit="10" d="
		M42.7,11.6l1.7,0.5c0,0-0.1,0.5-1.3,1c0,0-0.9,0.3-1,0.8"/>
	<path opacity="0.5" clip-path="url(#SVGID_2_)" fill="#FFFFFF" d="M40.6,15.3c0.3,0.1,0.6-0.1,0.7-0.4c0.1-0.3-0.2-0.3-0.5-0.4
		c-0.3-0.1-0.5-0.2-0.6,0.1C40.1,14.9,40.3,15.2,40.6,15.3z"/>
	<path clip-path="url(#SVGID_2_)" fill="none" stroke="#FFFFFF" stroke-width="0.15" stroke-miterlimit="10" d="M40.6,15.3
		c0.3,0.1,0.6-0.1,0.7-0.4c0.1-0.3-0.2-0.3-0.5-0.4c-0.3-0.1-0.5-0.2-0.6,0.1C40.1,14.9,40.3,15.2,40.6,15.3z"/>
	
		<path clip-path="url(#SVGID_2_)" fill="none" stroke="#FFFFFF" stroke-width="0.15" stroke-linecap="round" stroke-linejoin="round" stroke-miterlimit="10" d="
		M25.6-3.5C25.6-3.5,25.6-3.5,25.6-3.5C25.5-3.5,25.5-3.5,25.6-3.5c-0.6,0.4-0.9,1-0.9,1.6c0,0.2,0,0.5,0,0.7c0.1,1,0.2,2.1,0.4,3.1
		c0,0.2,0,0.2,0.3,0.2c0.2,0,0.4,0,0.6-0.1c0.4,0,0.8-0.1,1.2-0.1c0,0,0.1,0,0.1,0c0,0,0-0.1,0-0.1c-0.1-1.1-0.2-2.2-0.4-3.2
		c0-0.3-0.1-0.6-0.2-0.9C26.5-2.8,26.1-3.2,25.6-3.5C25.6-3.5,25.6-3.5,25.6-3.5z"/>
	
		<path clip-path="url(#SVGID_2_)" fill="none" stroke="#FFFFFF" stroke-width="0.15" stroke-linecap="round" stroke-linejoin="round" stroke-miterlimit="10" d="
		M27.2,1.7L29,1.5c0,0,0-0.1-0.2-0.3c-0.2-0.2-0.4-0.5-1-0.8c0,0-0.8-0.4-0.9-0.9"/>
	
		<path opacity="0.5" clip-path="url(#SVGID_2_)" fill="#FFFFFF" stroke="#FFFFFF" stroke-width="0.15" stroke-linecap="round" stroke-linejoin="round" stroke-miterlimit="10" d="
		M27.2,1.7L29,1.5c0,0,0-0.1-0.2-0.3l-1.7,0.2"/>
	
		<path opacity="0.5" clip-path="url(#SVGID_2_)" fill="#FFFFFF" stroke="#FFFFFF" stroke-width="0.15" stroke-linecap="round" stroke-linejoin="round" stroke-miterlimit="10" d="
		M25.1,1.9l-1.8,0.2c0,0,0-0.1,0.1-0.4L25,1.5"/>
	
		<path clip-path="url(#SVGID_2_)" fill="none" stroke="#FFFFFF" stroke-width="0.15" stroke-linecap="round" stroke-linejoin="round" stroke-miterlimit="10" d="
		M25.1,1.9l-1.8,0.2c0,0-0.1-0.5,0.9-1.4c0,0,0.7-0.6,0.6-1.1"/>
	
		<path clip-path="url(#SVGID_2_)" fill="none" stroke="#FFFFFF" stroke-width="0.15" stroke-linecap="round" stroke-linejoin="round" stroke-miterlimit="10" d="
		M37.7,1C37.7,1,37.7,1,37.7,1C37.6,1,37.6,1,37.7,1c-0.6,0.4-0.9,1-0.9,1.6c0,0.2,0,0.5,0,0.7c0.1,1,0.2,2.1,0.4,3.1
		c0,0.2,0,0.2,0.3,0.2c0.2,0,0.4,0,0.6-0.1c0.4,0,0.8-0.1,1.2-0.1c0,0,0.1,0,0.1,0c0,0,0-0.1,0-0.1c-0.1-1.1-0.2-2.2-0.4-3.2
		c0-0.3-0.1-0.6-0.2-0.9C38.6,1.7,38.2,1.3,37.7,1C37.7,1,37.7,1,37.7,1z"/>
	
		<path clip-path="url(#SVGID_2_)" fill="none" stroke="#FFFFFF" stroke-width="0.15" stroke-linecap="round" stroke-linejoin="round" stroke-miterlimit="10" d="
		M39.3,6.2L41.1,6c0,0,0-0.1-0.2-0.3c-0.2-0.2-0.4-0.5-1-0.8c0,0-0.8-0.4-0.9-0.9"/>
	
		<path opacity="0.5" clip-path="url(#SVGID_2_)" fill="#FFFFFF" stroke="#FFFFFF" stroke-width="0.15" stroke-linecap="round" stroke-linejoin="round" stroke-miterlimit="10" d="
		M39.3,6.2L41.1,6c0,0,0-0.1-0.2-0.3l-1.7,0.2"/>
	
		<path opacity="0.5" clip-path="url(#SVGID_2_)" fill="#FFFFFF" stroke="#FFFFFF" stroke-width="0.15" stroke-linecap="round" stroke-linejoin="round" stroke-miterlimit="10" d="
		M37.2,6.4l-1.8,0.2c0,0,0-0.1,0.1-0.4L37.1,6"/>
	
		<path clip-path="url(#SVGID_2_)" fill="none" stroke="#FFFFFF" stroke-width="0.15" stroke-linecap="round" stroke-linejoin="round" stroke-miterlimit="10" d="
		M37.2,6.4l-1.8,0.2c0,0-0.1-0.5,0.9-1.4c0,0,0.7-0.6,0.6-1.1"/>
	<path opacity="0.5" clip-path="url(#SVGID_2_)" fill="#FFFFFF" d="M37.8,2.2c-0.3,0-0.5,0.3-0.5,0.6c0,0.3,0.3,0.2,0.6,0.2
		c0.3,0,0.6,0,0.5-0.3C38.3,2.4,38.1,2.2,37.8,2.2z"/>
	<path clip-path="url(#SVGID_2_)" fill="none" stroke="#FFFFFF" stroke-width="0.15" stroke-miterlimit="10" d="M37.8,2.2
		c-0.3,0-0.5,0.3-0.5,0.6c0,0.3,0.3,0.2,0.6,0.2c0.3,0,0.6,0,0.5-0.3C38.3,2.4,38.1,2.2,37.8,2.2z"/>
	
		<path clip-path="url(#SVGID_2_)" fill="none" stroke="#FFFFFF" stroke-width="0.15" stroke-linecap="round" stroke-linejoin="round" stroke-miterlimit="10" d="
		M21.1,26.6C21.1,26.6,21.1,26.7,21.1,26.6C21.1,26.7,21.1,26.7,21.1,26.6c0.1,0.7,0.5,1.2,1,1.6c0.2,0.1,0.4,0.2,0.7,0.3
		c1,0.4,1.9,0.7,2.9,1.1c0.2,0.1,0.2,0.1,0.3-0.1c0.1-0.2,0.1-0.4,0.2-0.6c0.1-0.4,0.3-0.7,0.4-1.1c0,0,0,0,0-0.1
		c0,0-0.1-0.1-0.1-0.1c-1-0.4-2-0.8-3-1.2c-0.3-0.1-0.5-0.2-0.8-0.2C22.2,26.1,21.6,26.3,21.1,26.6C21.1,26.6,21.1,26.6,21.1,26.6z"
		/>
	
		<path clip-path="url(#SVGID_2_)" fill="none" stroke="#FFFFFF" stroke-width="0.15" stroke-linecap="round" stroke-linejoin="round" stroke-miterlimit="10" d="
		M26.5,27.6l0.6-1.7c0,0-0.1,0-0.4,0c-0.3,0-0.6,0.2-1.2,0.5c0,0-0.7,0.5-1.2,0.4"/>
	
		<path opacity="0.5" clip-path="url(#SVGID_2_)" fill="#FFFFFF" stroke="#FFFFFF" stroke-width="0.15" stroke-linecap="round" stroke-linejoin="round" stroke-miterlimit="10" d="
		M26.5,27.6l0.6-1.7c0,0-0.1,0-0.4,0l-0.6,1.6"/>
	
		<path opacity="0.5" clip-path="url(#SVGID_2_)" fill="#FFFFFF" stroke="#FFFFFF" stroke-width="0.15" stroke-linecap="round" stroke-linejoin="round" stroke-miterlimit="10" d="
		M25.7,29.6l-0.6,1.7c0,0-0.1,0-0.3-0.2l0.6-1.6"/>
	
		<path clip-path="url(#SVGID_2_)" fill="none" stroke="#FFFFFF" stroke-width="0.15" stroke-linecap="round" stroke-linejoin="round" stroke-miterlimit="10" d="
		M25.7,29.6l-0.6,1.7c0,0-0.5-0.2-0.8-1.4c0,0-0.2-0.9-0.7-1.1"/>
	<path opacity="0.5" clip-path="url(#SVGID_2_)" fill="#FFFFFF" d="M22.3,27.1c-0.1,0.3,0,0.6,0.3,0.7s0.3-0.2,0.4-0.5
		c0.1-0.3,0.3-0.5,0-0.6S22.4,26.8,22.3,27.1z"/>
	<path clip-path="url(#SVGID_2_)" fill="none" stroke="#FFFFFF" stroke-width="0.15" stroke-miterlimit="10" d="M22.3,27.1
		c-0.1,0.3,0,0.6,0.3,0.7s0.3-0.2,0.4-0.5c0.1-0.3,0.3-0.5,0-0.6S22.4,26.8,22.3,27.1z"/>
	
		<path clip-path="url(#SVGID_2_)" fill="none" stroke="#FFFFFF" stroke-width="0.15" stroke-linecap="round" stroke-linejoin="round" stroke-miterlimit="10" d="
		M29.7,17.8C29.7,17.8,29.7,17.8,29.7,17.8C29.6,17.7,29.6,17.7,29.7,17.8c-0.7-0.1-1.3,0.2-1.8,0.6c-0.2,0.2-0.3,0.4-0.4,0.6
		c-0.6,0.9-1.2,1.7-1.8,2.6c-0.1,0.2-0.1,0.2,0,0.3c0.2,0.1,0.3,0.2,0.5,0.3c0.3,0.2,0.7,0.5,1,0.7c0,0,0,0,0.1,0c0,0,0.1,0,0.1-0.1
		c0.6-0.9,1.2-1.8,1.9-2.7c0.2-0.2,0.3-0.5,0.4-0.7C29.9,18.9,29.9,18.3,29.7,17.8C29.7,17.8,29.7,17.8,29.7,17.8z"/>
	
		<path clip-path="url(#SVGID_2_)" fill="none" stroke="#FFFFFF" stroke-width="0.15" stroke-linecap="round" stroke-linejoin="round" stroke-miterlimit="10" d="
		M27.4,22.7l1.5,1c0,0,0.1-0.1,0.1-0.4c0-0.3,0-0.7-0.2-1.3c0,0-0.3-0.9,0-1.3"/>
	
		<path opacity="0.5" clip-path="url(#SVGID_2_)" fill="#FFFFFF" stroke="#FFFFFF" stroke-width="0.15" stroke-linecap="round" stroke-linejoin="round" stroke-miterlimit="10" d="
		M27.4,22.7l1.5,1c0,0,0.1-0.1,0.1-0.4l-1.4-1"/>
	
		<path opacity="0.5" clip-path="url(#SVGID_2_)" fill="#FFFFFF" stroke="#FFFFFF" stroke-width="0.15" stroke-linecap="round" stroke-linejoin="round" stroke-miterlimit="10" d="
		M25.7,21.5l-1.5-1c0,0,0.1-0.1,0.3-0.2l1.4,1"/>
	
		<path clip-path="url(#SVGID_2_)" fill="none" stroke="#FFFFFF" stroke-width="0.15" stroke-linecap="round" stroke-linejoin="round" stroke-miterlimit="10" d="
		M25.7,21.5l-1.5-1c0,0,0.3-0.4,1.6-0.5c0,0,0.9,0,1.2-0.4"/>
	<path opacity="0.5" clip-path="url(#SVGID_2_)" fill="#FFFFFF" d="M28.9,18.8c-0.3-0.2-0.6-0.1-0.8,0.1c-0.2,0.3,0.1,0.3,0.3,0.5
		c0.3,0.2,0.4,0.4,0.6,0.1S29.2,18.9,28.9,18.8z"/>
	<path clip-path="url(#SVGID_2_)" fill="none" stroke="#FFFFFF" stroke-width="0.15" stroke-miterlimit="10" d="M28.9,18.8
		c-0.3-0.2-0.6-0.1-0.8,0.1c-0.2,0.3,0.1,0.3,0.3,0.5c0.3,0.2,0.4,0.4,0.6,0.1S29.2,18.9,28.9,18.8z"/>
	
		<path clip-path="url(#SVGID_2_)" fill="none" stroke="#FFFFFF" stroke-width="0.15" stroke-linecap="round" stroke-linejoin="round" stroke-miterlimit="10" d="
		M14.3,20.8C14.3,20.8,14.3,20.8,14.3,20.8C14.3,20.8,14.3,20.7,14.3,20.8c-0.6-0.4-1.3-0.5-1.9-0.3c-0.2,0.1-0.4,0.2-0.7,0.3
		c-0.9,0.5-1.9,0.9-2.8,1.4c-0.2,0.1-0.2,0.1-0.1,0.3C9,22.7,9.1,22.9,9.2,23c0.2,0.4,0.4,0.7,0.5,1.1c0,0,0,0,0,0.1
		c0,0,0.1,0,0.1,0c1-0.5,1.9-1,2.9-1.4c0.3-0.1,0.5-0.3,0.7-0.4C14,21.9,14.2,21.4,14.3,20.8C14.3,20.8,14.3,20.8,14.3,20.8z"/>
	
		<path clip-path="url(#SVGID_2_)" fill="none" stroke="#FFFFFF" stroke-width="0.15" stroke-linecap="round" stroke-linejoin="round" stroke-miterlimit="10" d="
		M10,24.1l0.8,1.6c0,0,0.1-0.1,0.3-0.3c0.1-0.2,0.3-0.6,0.4-1.2c0,0,0.1-0.9,0.6-1.1"/>
	
		<path opacity="0.5" clip-path="url(#SVGID_2_)" fill="#FFFFFF" stroke="#FFFFFF" stroke-width="0.15" stroke-linecap="round" stroke-linejoin="round" stroke-miterlimit="10" d="
		M10,24.1l0.8,1.6c0,0,0.1-0.1,0.3-0.3l-0.7-1.5"/>
	
		<path opacity="0.5" clip-path="url(#SVGID_2_)" fill="#FFFFFF" stroke="#FFFFFF" stroke-width="0.15" stroke-linecap="round" stroke-linejoin="round" stroke-miterlimit="10" d="
		M9.1,22.2l-0.8-1.6c0,0,0.1-0.1,0.4,0L9.4,22"/>
	
		<path clip-path="url(#SVGID_2_)" fill="none" stroke="#FFFFFF" stroke-width="0.15" stroke-linecap="round" stroke-linejoin="round" stroke-miterlimit="10" d="
		M9,22.2l-0.8-1.6c0,0,0.5-0.2,1.6,0.3c0,0,0.8,0.5,1.3,0.2"/>
	<path opacity="0.5" clip-path="url(#SVGID_2_)" fill="#FFFFFF" d="M13.2,21.3c-0.1-0.3-0.5-0.4-0.8-0.3c-0.3,0.1-0.1,0.3,0,0.6
		c0.1,0.3,0.2,0.5,0.5,0.4C13.2,21.9,13.3,21.6,13.2,21.3z"/>
	<path clip-path="url(#SVGID_2_)" fill="none" stroke="#FFFFFF" stroke-width="0.15" stroke-miterlimit="10" d="M13.2,21.3
		c-0.1-0.3-0.5-0.4-0.8-0.3c-0.3,0.1-0.1,0.3,0,0.6c0.1,0.3,0.2,0.5,0.5,0.4C13.2,21.9,13.3,21.6,13.2,21.3z"/>
	
		<path clip-path="url(#SVGID_2_)" fill="none" stroke="#FFFFFF" stroke-width="0.15" stroke-linecap="round" stroke-linejoin="round" stroke-miterlimit="10" d="
		M39.4,21.7C39.4,21.7,39.4,21.7,39.4,21.7C39.4,21.8,39.4,21.8,39.4,21.7c0.1,0.7,0.5,1.2,1,1.6c0.2,0.1,0.4,0.2,0.7,0.3
		c1,0.4,1.9,0.7,2.9,1.1c0.2,0.1,0.2,0.1,0.3-0.1c0.1-0.2,0.1-0.4,0.2-0.6c0.1-0.4,0.3-0.7,0.4-1.1c0,0,0,0,0-0.1
		c0,0-0.1-0.1-0.1-0.1c-1-0.4-2-0.8-3-1.2c-0.3-0.1-0.5-0.2-0.8-0.2C40.5,21.2,39.9,21.4,39.4,21.7C39.4,21.7,39.4,21.7,39.4,21.7z"
		/>
	
		<path clip-path="url(#SVGID_2_)" fill="none" stroke="#FFFFFF" stroke-width="0.15" stroke-linecap="round" stroke-linejoin="round" stroke-miterlimit="10" d="
		M44.8,22.7l0.6-1.7c0,0-0.1,0-0.4,0c-0.3,0-0.6,0.2-1.2,0.5c0,0-0.7,0.5-1.2,0.4"/>
	
		<path opacity="0.5" clip-path="url(#SVGID_2_)" fill="#FFFFFF" stroke="#FFFFFF" stroke-width="0.15" stroke-linecap="round" stroke-linejoin="round" stroke-miterlimit="10" d="
		M44.8,22.7l0.6-1.7c0,0-0.1,0-0.4,0l-0.6,1.6"/>
	
		<path opacity="0.5" clip-path="url(#SVGID_2_)" fill="#FFFFFF" stroke="#FFFFFF" stroke-width="0.15" stroke-linecap="round" stroke-linejoin="round" stroke-miterlimit="10" d="
		M44,24.6l-0.6,1.7c0,0-0.1,0-0.3-0.2l0.6-1.6"/>
	
		<path clip-path="url(#SVGID_2_)" fill="none" stroke="#FFFFFF" stroke-width="0.15" stroke-linecap="round" stroke-linejoin="round" stroke-miterlimit="10" d="
		M44,24.7l-0.6,1.7c0,0-0.5-0.2-0.8-1.4c0,0-0.2-0.9-0.7-1.1"/>
	<path opacity="0.5" clip-path="url(#SVGID_2_)" fill="#FFFFFF" d="M40.6,22.2c-0.1,0.3,0,0.6,0.3,0.7s0.3-0.2,0.4-0.5
		s0.3-0.5,0-0.6S40.7,21.9,40.6,22.2z"/>
	<path clip-path="url(#SVGID_2_)" fill="none" stroke="#FFFFFF" stroke-width="0.15" stroke-miterlimit="10" d="M40.6,22.2
		c-0.1,0.3,0,0.6,0.3,0.7s0.3-0.2,0.4-0.5s0.3-0.5,0-0.6S40.7,21.9,40.6,22.2z"/>
	
		<path clip-path="url(#SVGID_2_)" fill="none" stroke="#FFFFFF" stroke-width="0.15" stroke-linecap="round" stroke-linejoin="round" stroke-miterlimit="10" d="
		M39.1,26.3C39.1,26.3,39.1,26.3,39.1,26.3C39.1,26.3,39.1,26.2,39.1,26.3c-0.6-0.4-1.3-0.5-1.9-0.3c-0.2,0.1-0.4,0.2-0.7,0.3
		c-0.9,0.5-1.9,0.9-2.8,1.4c-0.2,0.1-0.2,0.1-0.1,0.3c0.1,0.2,0.2,0.4,0.3,0.5c0.2,0.4,0.4,0.7,0.5,1.1c0,0,0,0,0,0.1
		c0,0,0.1,0,0.1,0c1-0.5,1.9-1,2.9-1.4c0.3-0.1,0.5-0.3,0.7-0.4C38.7,27.4,39,26.9,39.1,26.3C39.1,26.3,39.1,26.3,39.1,26.3z"/>
	
		<path clip-path="url(#SVGID_2_)" fill="none" stroke="#FFFFFF" stroke-width="0.15" stroke-linecap="round" stroke-linejoin="round" stroke-miterlimit="10" d="
		M34.8,29.6l0.8,1.6c0,0,0.1-0.1,0.3-0.3c0.1-0.2,0.3-0.6,0.4-1.2c0,0,0.1-0.9,0.6-1.1"/>
	
		<path opacity="0.5" clip-path="url(#SVGID_2_)" fill="#FFFFFF" stroke="#FFFFFF" stroke-width="0.15" stroke-linecap="round" stroke-linejoin="round" stroke-miterlimit="10" d="
		M34.8,29.6l0.8,1.6c0,0,0.1-0.1,0.3-0.3l-0.7-1.5"/>
	
		<path opacity="0.5" clip-path="url(#SVGID_2_)" fill="#FFFFFF" stroke="#FFFFFF" stroke-width="0.15" stroke-linecap="round" stroke-linejoin="round" stroke-miterlimit="10" d="
		M33.9,27.7l-0.8-1.6c0,0,0.1-0.1,0.4,0l0.7,1.5"/>
	
		<path clip-path="url(#SVGID_2_)" fill="none" stroke="#FFFFFF" stroke-width="0.15" stroke-linecap="round" stroke-linejoin="round" stroke-miterlimit="10" d="
		M33.8,27.7L33,26.1c0,0,0.5-0.2,1.6,0.3c0,0,0.8,0.5,1.3,0.2"/>
	<path opacity="0.5" clip-path="url(#SVGID_2_)" fill="#FFFFFF" d="M38,26.8c-0.1-0.3-0.5-0.4-0.8-0.3c-0.3,0.1-0.1,0.3,0,0.6
		c0.1,0.3,0.2,0.5,0.5,0.4C38,27.4,38.1,27.1,38,26.8z"/>
	<path clip-path="url(#SVGID_2_)" fill="none" stroke="#FFFFFF" stroke-width="0.15" stroke-miterlimit="10" d="M38,26.8
		c-0.1-0.3-0.5-0.4-0.8-0.3c-0.3,0.1-0.1,0.3,0,0.6c0.1,0.3,0.2,0.5,0.5,0.4C38,27.4,38.1,27.1,38,26.8z"/>
	
		<path clip-path="url(#SVGID_2_)" fill="none" stroke="#FFFFFF" stroke-width="0.15" stroke-linecap="round" stroke-linejoin="round" stroke-miterlimit="10" d="
		M1.7,30.4C1.7,30.4,1.7,30.4,1.7,30.4C1.7,30.4,1.7,30.4,1.7,30.4c0.5,0.4,1.2,0.6,1.8,0.5c0.2,0,0.5-0.1,0.7-0.2
		c1-0.4,1.9-0.7,2.9-1.1c0.2-0.1,0.2-0.1,0.2-0.3C7.2,29,7.1,28.8,7,28.6c-0.1-0.4-0.3-0.7-0.4-1.1c0,0,0,0,0-0.1c0,0-0.1,0-0.1,0
		c-1,0.4-2,0.8-3,1.2c-0.3,0.1-0.5,0.2-0.8,0.4C2.1,29.3,1.8,29.8,1.7,30.4C1.7,30.3,1.7,30.4,1.7,30.4z"/>
	
		<path clip-path="url(#SVGID_2_)" fill="none" stroke="#FFFFFF" stroke-width="0.15" stroke-linecap="round" stroke-linejoin="round" stroke-miterlimit="10" d="
		M6.3,27.5l-0.6-1.7c0,0-0.1,0-0.3,0.2c-0.2,0.2-0.4,0.6-0.5,1.2c0,0-0.2,0.9-0.7,1.1"/>
	
		<path opacity="0.5" clip-path="url(#SVGID_2_)" fill="#FFFFFF" stroke="#FFFFFF" stroke-width="0.15" stroke-linecap="round" stroke-linejoin="round" stroke-miterlimit="10" d="
		M6.3,27.5l-0.6-1.7c0,0-0.1,0-0.3,0.2L6,27.6"/>
	
		<path opacity="0.5" clip-path="url(#SVGID_2_)" fill="#FFFFFF" stroke="#FFFFFF" stroke-width="0.15" stroke-linecap="round" stroke-linejoin="round" stroke-miterlimit="10" d="
		M7,29.5l0.6,1.7c0,0-0.1,0-0.4,0l-0.6-1.6"/>
	
		<path clip-path="url(#SVGID_2_)" fill="none" stroke="#FFFFFF" stroke-width="0.15" stroke-linecap="round" stroke-linejoin="round" stroke-miterlimit="10" d="
		M7.1,29.5l0.6,1.7c0,0-0.5,0.2-1.6-0.5c0,0-0.8-0.5-1.2-0.4"/>
	<path opacity="0.5" clip-path="url(#SVGID_2_)" fill="#FFFFFF" d="M2.9,30c0.1,0.3,0.4,0.4,0.7,0.3c0.3-0.1,0.1-0.3,0-0.6
		s-0.1-0.6-0.4-0.4C2.9,29.4,2.8,29.7,2.9,30z"/>
	<path clip-path="url(#SVGID_2_)" fill="none" stroke="#FFFFFF" stroke-width="0.15" stroke-miterlimit="10" d="M2.9,30
		c0.1,0.3,0.4,0.4,0.7,0.3c0.3-0.1,0.1-0.3,0-0.6s-0.1-0.6-0.4-0.4C2.9,29.4,2.8,29.7,2.9,30z"/>
	
		<path clip-path="url(#SVGID_2_)" fill="none" stroke="#FFFFFF" stroke-width="0.15" stroke-linecap="round" stroke-linejoin="round" stroke-miterlimit="10" d="
		M2.2,18.1C2.2,18.1,2.2,18.1,2.2,18.1C2.2,18.1,2.2,18.1,2.2,18.1c-0.6,0.4-0.9,1-0.9,1.6c0,0.2,0,0.5,0,0.7c0.1,1,0.2,2.1,0.4,3.1
		c0,0.2,0,0.2,0.3,0.2c0.2,0,0.4,0,0.6-0.1c0.4,0,0.8-0.1,1.2-0.1c0,0,0.1,0,0.1,0c0,0,0-0.1,0-0.1c-0.1-1.1-0.2-2.2-0.4-3.2
		c0-0.3-0.1-0.6-0.2-0.9C3.1,18.8,2.7,18.4,2.2,18.1C2.2,18.1,2.2,18.1,2.2,18.1z"/>
	
		<path clip-path="url(#SVGID_2_)" fill="none" stroke="#FFFFFF" stroke-width="0.15" stroke-linecap="round" stroke-linejoin="round" stroke-miterlimit="10" d="
		M3.8,23.3l1.8-0.2c0,0,0-0.1-0.2-0.3c-0.2-0.2-0.4-0.5-1-0.8c0,0-0.8-0.4-0.9-0.9"/>
	
		<path opacity="0.5" clip-path="url(#SVGID_2_)" fill="#FFFFFF" stroke="#FFFFFF" stroke-width="0.15" stroke-linecap="round" stroke-linejoin="round" stroke-miterlimit="10" d="
		M3.8,23.3l1.8-0.2c0,0,0-0.1-0.2-0.3l-1.7,0.2"/>
	
		<path opacity="0.5" clip-path="url(#SVGID_2_)" fill="#FFFFFF" stroke="#FFFFFF" stroke-width="0.15" stroke-linecap="round" stroke-linejoin="round" stroke-miterlimit="10" d="
		M1.7,23.5l-1.8,0.2c0,0,0-0.1,0.1-0.4l1.7-0.2"/>
	
		<path clip-path="url(#SVGID_2_)" fill="none" stroke="#FFFFFF" stroke-width="0.15" stroke-linecap="round" stroke-linejoin="round" stroke-miterlimit="10" d="
		M1.7,23.5l-1.8,0.2c0,0-0.1-0.5,0.9-1.4c0,0,0.7-0.6,0.6-1.1"/>
	<path opacity="0.5" clip-path="url(#SVGID_2_)" fill="#FFFFFF" d="M2.3,19.3c-0.3,0-0.5,0.3-0.5,0.6c0,0.3,0.3,0.2,0.6,0.2
		s0.6,0,0.5-0.3S2.6,19.3,2.3,19.3z"/>
	<path clip-path="url(#SVGID_2_)" fill="none" stroke="#FFFFFF" stroke-width="0.15" stroke-miterlimit="10" d="M2.3,19.3
		c-0.3,0-0.5,0.3-0.5,0.6c0,0.3,0.3,0.2,0.6,0.2s0.6,0,0.5-0.3S2.6,19.3,2.3,19.3z"/>
</g>
</svg>
