<?xml version="1.0" encoding="utf-8"?>
<!-- Generator: Adobe Illustrator 22.0.1, SVG Export Plug-In . SVG Version: 6.00 Build 0)  -->
<svg version="1.1" id="Layer_1" xmlns="http://www.w3.org/2000/svg" xmlns:xlink="http://www.w3.org/1999/xlink" x="0px" y="0px"
	 viewBox="0 0 32 32" enable-background="new 0 0 32 32" xml:space="preserve">

<g id="Layer_25">


	<g id="Layer_22">
		<path fill="#fff6ed" stroke="#B12f2f" stroke-width="0.5" stroke-miterlimit="10" d="M23.7,13.3c-0.2-0.4-0.5-0.8-0.7-1.2
			c-1.4-2.4,0-5.3-1.2-7.7c-1.1-2.2-3.3-3.7-5.8-3.7s-4.8,1.5-5.8,3.7C9,6.9,10.4,9.7,9,12.1c-0.2,0.4-0.5,0.8-0.7,1.2
			c-2.6,5-1.2,12.3,1.8,16.7c0,0,1.1,1.3,5.9,1.3s5.9-1.3,5.9-1.3C24.9,25.6,26.3,18.3,23.7,13.3z"/>
	</g>
	<g id="Layer_23">
		<path fill="#fff6ed" stroke="#B12f2f" stroke-width="0.25" stroke-miterlimit="10" d="M20.4,6.5c0.2,2.7-2,4.1-4.4,4.1
			s-4.6-1.4-4.4-4.1C11.8,4,13.6,2,16,2S20.2,4,20.4,6.5z"/>
		<g>
			<path fill="#fff6ed" stroke="#B12f2f" stroke-width="0.25" stroke-miterlimit="10" d="M16,2c0,0.6,0.2,1.3,0.6,1.8s0.9,0.8,1.4,1
				c0.7,0.2,2.5,0.7,2.4,1.7"/>
			<path fill="#fff6ed" stroke="#B12f2f" stroke-width="0.25" stroke-miterlimit="10" d="M16,2c0,0.6-0.2,1.3-0.6,1.8s-0.9,0.8-1.4,1
				c-0.7,0.2-2.5,0.7-2.4,1.7"/>
		</g>
		<path fill="#fff6ed" stroke="#B12f2f" stroke-width="0.25" stroke-linecap="round" stroke-miterlimit="10" d="M16.8,6.5
			c0,0,0.9-0.5,1.6,0"/>
		<path fill="#fff6ed" stroke="#B12f2f" stroke-width="0.25" stroke-linecap="round" stroke-miterlimit="10" d="M13.5,6.6
			c0,0,0.9-0.5,1.6,0"/>
		<path fill="#fff6ed" stroke="#B12f2f" stroke-width="0.25" stroke-linecap="round" stroke-miterlimit="10" d="M15.4,8.7
			c0.3,0.3,0.8,0.3,1.2,0"/>
		<g>
			<path fill="#fff6ed" stroke="#B12f2f" stroke-width="0.25" stroke-linecap="round" stroke-miterlimit="10" d="M17.3,18.8
				c-0.4,0-0.8,0.2-1.2,0.5v-0.1c0.3-0.3,0.6-0.6,0.6-1c0-0.1,0-0.2-0.1-0.2c-0.2-0.2-0.5,0-0.6,0.2c0,0,0,0,0,0.1
				c0-0.1-0.1-0.2-0.1-0.2c0-0.1-0.1-0.1-0.2-0.1c-0.3,0-0.4,0.4-0.3,0.5c0.1,0.3,0.3,0.6,0.6,0.8v0.1l0,0c0,0,0,0,0.1,0
				c0,0,0,0-0.1,0c-0.3-0.2-0.8-0.4-1.2-0.5c-0.2,0-0.7,0.1-0.5,0.3c0,0.1,0.1,0.1,0.2,0.2c0.5,0.2,1,0.1,1.6,0.1
				c0.5,0,1.1,0.1,1.6-0.1c0.1,0,0.2-0.1,0.2-0.2C17.9,18.9,17.5,18.8,17.3,18.8z"/>
		</g>
		<path fill="#fff6ed" stroke="#B12f2f" stroke-width="0.25" stroke-linecap="round" stroke-miterlimit="10" d="M17.3,22.4
			c-0.4,0-0.8,0.2-1.2,0.5v-0.1c0.3-0.3,0.6-0.6,0.6-1c0-0.1,0-0.2-0.1-0.2c-0.2-0.2-0.5,0-0.6,0.2c0,0,0,0,0,0.1
			c0-0.1-0.1-0.2-0.1-0.2c0-0.1-0.1-0.1-0.2-0.1c-0.3,0-0.4,0.4-0.3,0.5c0.1,0.3,0.3,0.6,0.6,0.8V23l0,0c0,0,0,0,0.1,0
			c0,0,0,0-0.1,0c-0.3-0.2-0.8-0.4-1.2-0.5c-0.2,0-0.7,0.1-0.5,0.3c0,0.1,0.1,0.1,0.2,0.2c0.5,0.2,1,0.1,1.6,0.1
			c0.5,0,1.1,0.1,1.6-0.1c0.1,0,0.2-0.1,0.2-0.2C17.9,22.5,17.5,22.4,17.3,22.4z"/>
		<path fill="#fff6ed" stroke="#B12f2f" stroke-width="0.25" stroke-linecap="round" stroke-miterlimit="10" d="M17.3,26.1
			c-0.4,0-0.8,0.2-1.2,0.5v-0.1c0.3-0.3,0.6-0.6,0.6-1c0-0.1,0-0.2-0.1-0.2c-0.2-0.2-0.5,0-0.6,0.2c0,0,0,0,0,0.1
			c0-0.1-0.1-0.2-0.1-0.2c0-0.1-0.1-0.1-0.2-0.1c-0.3,0-0.4,0.4-0.3,0.5c0.1,0.3,0.3,0.6,0.6,0.8v0.1l0,0c0,0,0,0,0.1,0
			c0,0,0,0-0.1,0c-0.3-0.2-0.8-0.4-1.2-0.5c-0.2,0-0.7,0.1-0.5,0.3c0,0.1,0.1,0.1,0.2,0.2c0.5,0.2,1,0.1,1.6,0.1
			c0.5,0,1.1,0.1,1.6-0.1c0.1,0,0.2-0.1,0.2-0.2C17.9,26.1,17.5,26,17.3,26.1z"/>
		<path fill="#fff6ed" stroke="#B12f2f" stroke-width="0.25" stroke-linecap="round" stroke-miterlimit="10" d="M17.3,29.7
			c-0.4,0-0.8,0.2-1.2,0.5v-0.1c0.3-0.3,0.6-0.6,0.6-1c0-0.1,0-0.2-0.1-0.2c-0.2-0.2-0.5,0-0.6,0.2c0,0,0,0,0,0.1
			c0-0.1-0.1-0.2-0.1-0.2c0-0.1-0.1-0.1-0.2-0.1c-0.3,0-0.4,0.4-0.3,0.5c0.1,0.3,0.3,0.6,0.6,0.8v0.1l0,0c0,0,0,0,0.1,0
			c0,0,0,0-0.1,0c-0.3-0.2-0.8-0.4-1.2-0.5c-0.2,0-0.7,0.1-0.5,0.3c0,0.1,0.1,0.1,0.2,0.2c0.5,0.2,1,0.1,1.6,0.1
			c0.5,0,1.1,0.1,1.6-0.1c0.1,0,0.2-0.1,0.2-0.2C17.9,29.7,17.5,29.7,17.3,29.7z"/>
		
			<circle fill="#fff6ed" stroke="#B12f2f" stroke-width="0.25" stroke-linecap="round" stroke-miterlimit="10" cx="16" cy="11.2" r="0.6"/>
		<path fill="#fff6ed" stroke="#B12f2f" stroke-width="0.25" stroke-miterlimit="10" d="M15.5,11.5c0,0-2,0.6-1.7,2.5
			c0,0,1.8-0.1,2.1-2.2"/>
		<path fill="#fff6ed" stroke="#B12f2f" stroke-width="0.25" stroke-miterlimit="10" d="M16.6,11.5c0,0,2,0.6,1.7,2.5
			c0,0-1.8-0.1-2.1-2.2"/>
		<circle fill="#B12f2f" stroke="#B12f2f" stroke-width="0.25" stroke-miterlimit="10" cx="16" cy="14.9" r="0.1"/>
		<circle fill="#B12f2f" stroke="#B12f2f" stroke-width="0.25" stroke-miterlimit="10" cx="16" cy="15.9" r="0.1"/>
		<path fill="#fff6ed" stroke="#B12f2f" stroke-width="0.25" stroke-linecap="round" stroke-miterlimit="10" d="M15.5,11.5
			c-1.7-0.1-3.1-0.5-4.1-1.2"/>
		<path fill="#fff6ed" stroke="#B12f2f" stroke-width="0.25" stroke-linecap="round" stroke-miterlimit="10" d="M20.6,10.5
			c-1,0.5-2.4,0.9-4,1"/>
		
			<line fill="#fff6ed" stroke="#B12f2f" stroke-width="0.25" stroke-linecap="round" stroke-miterlimit="10" x1="13.3" y1="31.2" x2="13.3" y2="11.2"/>
		
			<line fill="#fff6ed" stroke="#B12f2f" stroke-width="0.25" stroke-linecap="round" stroke-miterlimit="10" x1="18.6" y1="31.3" x2="18.6" y2="11.3"/>
		<g>
			<path fill="#fff6ed" stroke="#B12f2f" stroke-width="0.25" stroke-linecap="round" stroke-miterlimit="10" d="M13.3,28.8
				c-0.3,0-0.6-0.5-0.6-1.1s0.3-1.1,0.6-1.1"/>
			<path fill="#fff6ed" stroke="#B12f2f" stroke-width="0.25" stroke-linecap="round" stroke-miterlimit="10" d="M13.3,31.1
				c-0.3,0-0.6-0.5-0.6-1.1s0.3-1.1,0.6-1.1"/>
			<path fill="#fff6ed" stroke="#B12f2f" stroke-width="0.25" stroke-linecap="round" stroke-miterlimit="10" d="M13.3,19.5
				c-0.3,0-0.6-0.5-0.6-1.1s0.3-1.1,0.6-1.1"/>
			<path fill="#fff6ed" stroke="#B12f2f" stroke-width="0.25" stroke-linecap="round" stroke-miterlimit="10" d="M13.3,21.8
				c-0.3,0-0.6-0.5-0.6-1.1s0.3-1.1,0.6-1.1"/>
			<path fill="#fff6ed" stroke="#B12f2f" stroke-width="0.25" stroke-linecap="round" stroke-miterlimit="10" d="M13.3,24.1
				c-0.3,0-0.6-0.5-0.6-1.1s0.3-1.1,0.6-1.1"/>
			<path fill="#fff6ed" stroke="#B12f2f" stroke-width="0.25" stroke-linecap="round" stroke-miterlimit="10" d="M13.3,26.5
				c-0.3,0-0.6-0.5-0.6-1.1s0.3-1.1,0.6-1.1"/>
		</g>
		<g>
			<path fill="#fff6ed" stroke="#B12f2f" stroke-width="0.25" stroke-linecap="round" stroke-miterlimit="10" d="M18.6,28.6
				c0.3,0,0.6-0.5,0.6-1.1s-0.3-1.1-0.6-1.1"/>
			<path fill="#fff6ed" stroke="#B12f2f" stroke-width="0.25" stroke-linecap="round" stroke-miterlimit="10" d="M18.6,31
				c0.3,0,0.6-0.5,0.6-1.1s-0.3-1.1-0.6-1.1"/>
			<path fill="#fff6ed" stroke="#B12f2f" stroke-width="0.25" stroke-linecap="round" stroke-miterlimit="10" d="M18.6,19.4
				c0.3,0,0.6-0.5,0.6-1.1s-0.3-1.1-0.6-1.1"/>
			<path fill="#fff6ed" stroke="#B12f2f" stroke-width="0.25" stroke-linecap="round" stroke-miterlimit="10" d="M18.6,21.7
				c0.3,0,0.6-0.5,0.6-1.1s-0.3-1.1-0.6-1.1"/>
			<path fill="#fff6ed" stroke="#B12f2f" stroke-width="0.25" stroke-linecap="round" stroke-miterlimit="10" d="M18.6,24
				c0.3,0,0.6-0.5,0.6-1.1s-0.3-1.1-0.6-1.1"/>
			<path fill="#fff6ed" stroke="#B12f2f" stroke-width="0.25" stroke-linecap="round" stroke-miterlimit="10" d="M18.6,26.3
				c0.3,0,0.6-0.5,0.6-1.1s-0.3-1.1-0.6-1.1"/>
		</g>
		<path fill="#fff6ed" stroke="#B12f2f" stroke-width="0.25" stroke-linecap="round" stroke-miterlimit="10" d="M8.5,20.6
			c0,0.4,0.5,2,1.2,1.8c0.5-0.2,0.5-1.7,0.4-2"/>
		<path fill="#fff6ed" stroke="#B12f2f" stroke-width="0.25" stroke-linecap="round" stroke-miterlimit="10" d="M23.5,20.7
			c0,0.4-0.5,2-1.2,1.8c-0.5-0.2-0.5-1.7-0.4-2"/>
	</g>
</g>

</svg>
