<?xml version="1.0" encoding="utf-8"?>
<!-- Generator: Adobe Illustrator 22.0.1, SVG Export Plug-In . SVG Version: 6.00 Build 0)  -->
<svg version="1.1" xmlns="http://www.w3.org/2000/svg" xmlns:xlink="http://www.w3.org/1999/xlink" x="0px" y="0px"
	 viewBox="0 0 32 32" enable-background="new 0 0 32 32" xml:space="preserve">
<g id="Layer_1">


<g id="Layer_27">
	<path fill="none" stroke="#363636" stroke-miterlimit="10" d="M15.3,20.8l-0.9,2.4c-0.2,0.5-0.7,0.7-1.2,0.6l-7.3-2.6
		C5.5,21,5.2,20.5,5.4,20l0.9-2.4"/>
	<path fill="#363636" d="M4,18.3H3.4c-0.2,0-0.4-0.2-0.4-0.5v-4.7c0-0.2,0.2-0.4,0.4-0.4H4c0.2,0,0.5,0.2,0.5,0.4v4.7
		C4.4,18.1,4.2,18.3,4,18.3z"/>
	
		<line fill="none" stroke="#FFFFFF" stroke-width="0.5" stroke-linecap="round" stroke-linejoin="round" stroke-miterlimit="10" x1="20.2" y1="8.2" x2="20.2" y2="9.9"/>
	<path fill="#363636" d="M20.2,23.4L20.2,23.4c-0.4,0-0.8-0.4-0.8-0.8V8.3c0-0.4,0.4-0.8,0.8-0.8h0c0.4,0,0.8,0.4,0.8,0.8v14.3
		C21,23,20.6,23.4,20.2,23.4z"/>
	<path fill="#363636" d="M18.2,21.8l-13-3c-0.4,0-0.7-0.7-0.7-1.5v-3.8c0-0.8,0.3-1.5,0.7-1.5l13-3c0.4,0,0.7,0.7,0.7,1.5v9.8
		C18.9,21.2,18.6,21.8,18.2,21.8z"/>
	
		<line fill="none" stroke="#FFFFFF" stroke-width="0.5" stroke-linecap="round" stroke-linejoin="round" stroke-miterlimit="10" x1="10.8" y1="12" x2="17.2" y2="10.7"/>
	
		<line fill="none" stroke="#1C1C1C" stroke-width="0.75" stroke-linecap="round" stroke-miterlimit="10" x1="5.2" y1="18.3" x2="18.2" y2="21.3"/>
	
		<line fill="none" stroke="#FFFFFF" stroke-width="0.5" stroke-linecap="round" stroke-linejoin="round" stroke-miterlimit="10" x1="3.7" y1="13.5" x2="3.7" y2="15.1"/>
	
		<line fill="none" stroke="#FFFFFF" stroke-width="0.5" stroke-linecap="round" stroke-linejoin="round" stroke-miterlimit="10" x1="20.2" y1="8.2" x2="20.2" y2="10.7"/>
	<path fill="none" stroke="#363636" stroke-width="1" stroke-linecap="round" stroke-linejoin="round" stroke-miterlimit="10" d="
		M23.1,13.4c0.6,0.3,1.1,0.9,1.3,1.6c0.2,1.1-0.4,2.1-1.4,2.5"/>
	<path fill="none" stroke="#363636" stroke-width="1" stroke-linecap="round" stroke-linejoin="round" stroke-miterlimit="10" d="
		M24.2,12.2c0.4,0.1,0.7,0.3,1,0.5c0.7,0.5,1.2,1.2,1.4,2.1c0.3,1.6-0.5,3.1-2,3.8"/>
	
</g>
</g>

</svg>
