<?xml version="1.0" encoding="utf-8"?>
<!-- Generator: Adobe Illustrator 22.0.1, SVG Export Plug-In . SVG Version: 6.00 Build 0)  -->
<svg version="1.1" xmlns="http://www.w3.org/2000/svg" xmlns:xlink="http://www.w3.org/1999/xlink" x="0px" y="0px"
	 viewBox="0 0 32 32" enable-background="new 0 0 32 32" xml:space="preserve">

<g id="space">

	<g id="rocket_x5F_button_x5F_02">
		
			<path fill="none" stroke="#FFFFFF" stroke-width="0.5694" stroke-linecap="round" stroke-linejoin="round" stroke-miterlimit="10" d="
			M0.9,4C0.9,4,0.9,4,0.9,4c0,0.1,0,0.1,0,0.2c0.3,1.7,1.4,3.2,2.9,4.1C4.4,8.6,5,8.8,5.6,9.1c2.7,1,5.4,2,8.1,3
			c0.6,0.2,0.7,0.2,0.9-0.3c0.2-0.5,0.4-1,0.6-1.6c0.4-1,0.8-2.1,1.2-3.1c0-0.1,0.1-0.1,0-0.2c0-0.1-0.2-0.2-0.3-0.2
			c-2.8-1.1-5.6-2.1-8.4-3.2C6.9,3.2,6.1,2.9,5.3,2.8C3.8,2.6,2.3,3.1,1,3.9C1,3.9,0.9,4,0.9,4z"/>
		
			<path fill="none" stroke="#FFFFFF" stroke-width="0.4" stroke-linecap="round" stroke-linejoin="round" stroke-miterlimit="10" d="
			M15.7,6.6l1.7-4.6c0,0-0.3-0.1-1,0c-0.7,0.1-1.8,0.5-3.3,1.4c0,0-2.1,1.5-3.4,1"/>
		
			<path opacity="0.5" fill="#FFFFFF" stroke="#FFFFFF" stroke-width="0.1761" stroke-linecap="round" stroke-linejoin="round" stroke-miterlimit="10" d="
			M15.7,6.6l1.7-4.6c0,0-0.3-0.1-1,0l-1.6,4.3"/>
		
			<path opacity="0.5" fill="#FFFFFF" stroke="#FFFFFF" stroke-width="0.1761" stroke-linecap="round" stroke-linejoin="round" stroke-miterlimit="10" d="
			M13.5,12l-1.7,4.6c0,0-0.3-0.1-0.8-0.7l1.6-4.3"/>
		
			<path fill="none" stroke="#FFFFFF" stroke-width="0.4" stroke-linecap="round" stroke-linejoin="round" stroke-miterlimit="10" d="
			M13.6,12.1l-1.7,4.6c0,0-1.3-0.5-2.3-3.9c0,0-0.6-2.5-1.9-3"/>
		
		<path opacity="0.5" fill="#FFFFFF" d="M4.1,5.3C3.8,6.1,4.2,7,5,7.3s0.9-0.4,1.2-1.3s0.8-1.4-0.1-1.7S4.4,4.5,4.1,5.3z"/>
		<path fill="none" stroke="#FFFFFF" stroke-width="0.25" stroke-miterlimit="10" d="M4.1,5.3C3.8,6.1,4.2,7,5,7.3s0.9-0.4,1.2-1.3
			s0.8-1.4-0.1-1.7S4.4,4.5,4.1,5.3z"/>
		<g>
			<path fill="#FFFFFF" d="M23.9,13.3c1.1,0,2.2,0.2,3.3,0.5c0.5,0.2,1.1,0.4,1.6,0.8c0.5,0.4,1,1,1.1,1.7c0.2,0.7,0.2,1.4-0.1,2.1
				c-0.3,0.7-0.7,1.2-1.1,1.6c-0.4,0.4-0.9,0.8-1.4,1.1c-0.4,0.3-0.9,0.6-1.3,0.9c-0.8,0.6-1.5,1.2-1.8,1.9
				c-0.3,0.7-0.2,1.5,0.2,2.3c0.9,1.6,2.8,2.8,4.5,4c-1.1-0.2-2.1-0.5-3.1-1c-1-0.5-2-1.1-2.7-2.2c-0.8-1-1.1-2.5-0.6-3.8
				c0.5-1.3,1.5-2.1,2.4-2.8c0.5-0.3,0.9-0.6,1.4-0.9c0.4-0.3,0.8-0.5,1.2-0.8c0.7-0.6,1.1-1.2,1-2c-0.1-0.7-0.7-1.4-1.6-1.9
				C25.9,14.1,24.9,13.7,23.9,13.3z"/>
		</g>
		<g opacity="0.5">
			<path fill="#FFFFFF" d="M26.6,14.5c0.9,0.2,1.8,0.9,2.1,2c0.1,0.5,0.1,1.1,0,1.7c-0.2,0.5-0.5,1-0.8,1.4
				c-0.6,0.8-1.6,1.4-2.2,1.9c-0.7,0.5-1.4,1-1.8,1.6c-0.5,0.6-0.7,1.2-0.7,1.8c0,0.3,0.1,0.7,0.2,1c0.2,0.3,0.3,0.7,0.6,1
				c1,1.3,2.5,2.3,4,3.4c-1.8-0.3-3.7-0.9-5.2-2.3c-0.8-0.7-1.4-1.7-1.5-2.9c-0.1-0.6,0-1.2,0.2-1.8c0.2-0.6,0.5-1,0.9-1.4
				c0.7-0.8,1.5-1.4,2.3-1.9c0.9-0.5,1.5-0.8,2.2-1.4c0.6-0.5,1-1.1,1-1.9C27.8,15.9,27.3,15.1,26.6,14.5z"/>
		</g>
		<circle fill="#FFFFFF" stroke="#FFFFFF" stroke-width="0.3384" stroke-miterlimit="10" cx="25.2" cy="8" r="0.5"/>
		
			<circle opacity="0.5" fill="#FFFFFF" stroke="#FFFFFF" stroke-width="1.0665" stroke-miterlimit="10" cx="29.2" cy="3.8" r="1.5"/>
	</g>


</g>
</svg>
