<?xml version="1.0" encoding="utf-8"?>
<!-- Generator: Adobe Illustrator 22.0.1, SVG Export Plug-In . SVG Version: 6.00 Build 0)  -->
<svg version="1.1" xmlns="http://www.w3.org/2000/svg" xmlns:xlink="http://www.w3.org/1999/xlink" x="0px" y="0px"
	 viewBox="0 0 32 32" enable-background="new 0 0 32 32" xml:space="preserve">

<g id="space">

	<g id="rocket_x5F_button_x5F_01">
		
			<path fill="none" stroke="#FFFFFF" stroke-width="0.569" stroke-linecap="round" stroke-linejoin="round" stroke-miterlimit="10" d="
			M31,4.2C31,4.2,31,4.2,31,4.2c0,0.1,0,0.1,0,0.2c-0.3,1.7-1.4,3.2-2.9,4.1c-0.6,0.3-1.2,0.6-1.8,0.8c-2.7,1-5.4,2-8.1,3
			c-0.6,0.2-0.7,0.2-0.9-0.3c-0.2-0.5-0.4-1-0.6-1.6c-0.4-1-0.8-2.1-1.2-3.1c0-0.1-0.1-0.1,0-0.2c0-0.1,0.2-0.2,0.3-0.2
			c2.8-1.1,5.6-2.1,8.4-3.2C25,3.4,25.8,3.1,26.6,3c1.5-0.2,3,0.3,4.3,1.1C30.9,4.1,30.9,4.1,31,4.2z"/>
		
			<path fill="none" stroke="#FFFFFF" stroke-width="0.4" stroke-linecap="round" stroke-linejoin="round" stroke-miterlimit="10" d="
			M16.2,6.7l-1.7-4.6c0,0,0.3-0.1,1,0c0.7,0.1,1.8,0.5,3.3,1.4c0,0,2.1,1.5,3.4,1"/>
		
			<path opacity="0.5" fill="#FFFFFF" stroke="#FFFFFF" stroke-width="0.1761" stroke-linecap="round" stroke-linejoin="round" stroke-miterlimit="10" d="
			M16.2,6.7l-1.7-4.6c0,0,0.3-0.1,1,0l1.6,4.3"/>
		
			<path opacity="0.5" fill="#FFFFFF" stroke="#FFFFFF" stroke-width="0.1761" stroke-linecap="round" stroke-linejoin="round" stroke-miterlimit="10" d="
			M18.4,12.2l1.7,4.6c0,0,0.3-0.1,0.8-0.7l-1.6-4.3"/>
		
			<path fill="none" stroke="#FFFFFF" stroke-width="0.4" stroke-linecap="round" stroke-linejoin="round" stroke-miterlimit="10" d="
			M18.2,12.3l1.7,4.6c0,0,1.3-0.5,2.3-3.9c0,0,0.6-2.5,1.9-3"/>
		
		<path opacity="0.5" fill="#FFFFFF" d="M27.8,5.5c0.3,0.8-0.1,1.7-0.9,2S26,7.1,25.7,6.2c-0.3-0.8-0.8-1.4,0.1-1.7
			C26.6,4.3,27.5,4.7,27.8,5.5z"/>
		<path fill="none" stroke="#FFFFFF" stroke-width="0.25" stroke-miterlimit="10" d="M27.8,5.5c0.3,0.8-0.1,1.7-0.9,2
			S26,7.1,25.7,6.2c-0.3-0.8-0.8-1.4,0.1-1.7C26.6,4.3,27.5,4.7,27.8,5.5z"/>
		<path fill="#FFFFFF" stroke="#FFFFFF" stroke-width="0.1821" stroke-miterlimit="10" d="M15.9,25.1L15.9,25.1
			c0-0.7-0.6-1.3-1.3-1.3v0c0.7,0,1.3-0.6,1.3-1.3h0c0,0.7,0.6,1.3,1.3,1.3v0C16.5,23.8,15.9,24.4,15.9,25.1z"/>
		<g>
			<path fill="#FFFFFF" d="M8,13.4c-1,0.5-2,0.8-2.9,1.4c-0.9,0.5-1.6,1.2-1.6,1.9c-0.1,0.7,0.3,1.4,1,2c0.3,0.3,0.7,0.6,1.2,0.8
				c0.5,0.3,0.9,0.6,1.4,0.9C8,21.1,8.9,22,9.5,23.3c0.5,1.3,0.2,2.9-0.6,3.8c-0.7,1-1.7,1.7-2.7,2.2c-1,0.5-2.1,0.8-3.1,1
				c1.8-1.2,3.7-2.4,4.5-4C8,25.4,8.1,24.7,7.7,24c-0.3-0.7-1-1.4-1.8-1.9c-0.4-0.3-0.8-0.6-1.3-0.9c-0.5-0.3-1-0.6-1.4-1.1
				c-0.4-0.4-0.9-1-1.1-1.6c-0.3-0.6-0.3-1.4-0.1-2.1c0.2-0.7,0.6-1.3,1.1-1.7c0.5-0.4,1.1-0.6,1.6-0.8C5.8,13.6,6.9,13.5,8,13.4z"
				/>
		</g>
		<g opacity="0.5">
			<path fill="#FFFFFF" d="M5.3,14.6c-0.7,0.6-1.2,1.4-1.2,2.1c0,0.8,0.4,1.3,1,1.9c0.6,0.5,1.3,0.9,2.2,1.4
				c0.8,0.5,1.6,1.1,2.3,1.9c0.3,0.4,0.7,0.9,0.9,1.4c0.2,0.6,0.3,1.2,0.2,1.8c-0.2,1.2-0.8,2.2-1.5,2.9c-1.5,1.4-3.4,2-5.2,2.3
				c1.5-1.1,3.1-2.1,4-3.4c0.2-0.3,0.4-0.7,0.6-1c0.1-0.3,0.2-0.7,0.2-1c0-0.6-0.2-1.2-0.7-1.8c-0.5-0.6-1.1-1.1-1.8-1.6
				c-0.7-0.5-1.6-1-2.2-1.9c-0.3-0.4-0.6-0.9-0.8-1.4c-0.2-0.5-0.2-1.1,0-1.7C3.5,15.5,4.4,14.9,5.3,14.6z"/>
		</g>
	</g>

</g>
</svg>
