<?xml version="1.0" encoding="utf-8"?>
<!-- Generator: Adobe Illustrator 22.0.1, SVG Export Plug-In . SVG Version: 6.00 Build 0)  -->
<svg version="1.1" xmlns="http://www.w3.org/2000/svg" xmlns:xlink="http://www.w3.org/1999/xlink" x="0px" y="0px"
	 width="100%" height="100%" viewBox="683 369 2732 1536" enable-background="new 0 0 2732 1536" xml:space="preserve">
<g id="Layer_63" display="none">
	<rect x="-253" y="-133" display="inline" fill="#050F4C" stroke="#000000" stroke-miterlimit="10" width="1868" height="1582"/>
</g>
<g id="stars" opacity="0.7">
	<circle fill="#FFFFFF" stroke="#FFFFFF" stroke-width="0.3384" stroke-miterlimit="10" cx="702.8" cy="401" r="3.2"/>
	
		<circle opacity="0.5" fill="#FFFFFF" stroke="#FFFFFF" stroke-width="0.6436" stroke-miterlimit="10" cx="708.9" cy="408.3" r="6.1"/>
	<g>
		<path fill="#FFFFFF" d="M27.6,176.6c-0.1,0-0.2-0.1-0.2-0.1l-4.2-9.3l-10-1.8c-0.1,0-0.2-0.1-0.2-0.2c0-0.1,0-0.2,0.1-0.2l7.5-6.8
			l-1.4-10.1c0-0.1,0-0.2,0.1-0.2c0,0,0.1,0,0.1,0c0,0,0.1,0,0.1,0l8.8,5l9.2-4.4c0,0,0.1,0,0.1,0c0,0,0.1,0,0.1,0
			c0.1,0.1,0.1,0.1,0.1,0.2l-2.1,10l7,7.3c0.1,0.1,0.1,0.2,0,0.2c0,0.1-0.1,0.1-0.2,0.1l-10.1,1.1l-4.8,9
			C27.8,176.6,27.7,176.6,27.6,176.6C27.7,176.6,27.6,176.6,27.6,176.6z"/>
		<path fill="#FFFFFF" d="M19.5,148.1l8.9,5.1l9.3-4.5l-2.1,10.1l7.1,7.4l-10.2,1.1l-4.9,9.1l-4.2-9.4l-10.1-1.8l7.6-6.9L19.5,148.1
			 M37.7,148.7L37.7,148.7 M19.5,147.6c-0.1,0-0.2,0-0.3,0.1c-0.1,0.1-0.2,0.3-0.2,0.4l1.4,10l-7.4,6.8c-0.1,0.1-0.2,0.3-0.1,0.5
			c0,0.2,0.2,0.3,0.4,0.3l9.9,1.8l4.1,9.2c0.1,0.2,0.2,0.3,0.4,0.3c0,0,0,0,0,0c0.2,0,0.3-0.1,0.4-0.2l4.8-8.9l10-1.1
			c0.2,0,0.3-0.1,0.4-0.3c0.1-0.2,0-0.3-0.1-0.5l-7-7.3l2-9.8c0,0,0-0.1,0-0.1c0-0.2-0.2-0.5-0.4-0.5h0c0,0,0,0,0,0c0,0,0,0,0,0
			c-0.1,0-0.1,0-0.2,0l-9,4.4l-8.7-5C19.7,147.6,19.6,147.6,19.5,147.6L19.5,147.6z"/>
	</g>
	<g>
		<path fill="#FFFFFF" d="M741.1,70.8c-0.1,0-0.2-0.1-0.2-0.1l-2.6-5.7l-6.1-1.1c-0.1,0-0.2-0.1-0.2-0.2c0-0.1,0-0.2,0.1-0.2
			l4.6-4.2l-0.8-6.2c0-0.1,0-0.2,0.1-0.2c0,0,0.1,0,0.1,0c0,0,0.1,0,0.1,0l5.4,3.1l5.6-2.7c0,0,0.1,0,0.1,0c0,0,0.1,0,0.1,0
			c0.1,0.1,0.1,0.1,0.1,0.2l-1.3,6.1l4.3,4.5c0.1,0.1,0.1,0.2,0,0.2c0,0.1-0.1,0.1-0.2,0.1l-6.2,0.7l-2.9,5.5
			C741.3,70.7,741.2,70.8,741.1,70.8C741.2,70.8,741.2,70.8,741.1,70.8z"/>
		<path fill="#FFFFFF" d="M736.1,53l5.5,3.1l5.7-2.8l-1.3,6.2l4.4,4.6l-6.3,0.7l-3,5.6l-2.6-5.8l-6.3-1.1l4.7-4.3L736.1,53
			 M747.4,53.4L747.4,53.4 M736.1,52.6c-0.1,0-0.2,0-0.3,0.1c-0.1,0.1-0.2,0.3-0.2,0.4l0.8,6.1l-4.5,4.1c-0.1,0.1-0.2,0.3-0.1,0.5
			c0,0.2,0.2,0.3,0.4,0.3l6,1.1l2.5,5.6c0.1,0.2,0.2,0.3,0.4,0.3c0,0,0,0,0,0c0.2,0,0.3-0.1,0.4-0.2l2.9-5.4l6.1-0.7
			c0.2,0,0.3-0.1,0.4-0.3c0.1-0.2,0-0.3-0.1-0.5l-4.2-4.4l1.2-5.9c0,0,0-0.1,0-0.1c0-0.2-0.2-0.5-0.4-0.5h0c0,0,0,0,0,0c0,0,0,0,0,0
			c0,0,0,0,0,0l0,0c-0.1,0-0.1,0-0.2,0l-5.5,2.7l-5.3-3C736.3,52.6,736.2,52.6,736.1,52.6L736.1,52.6z"/>
	</g>
	<g>
		<path fill="#FFFFFF" d="M157.5,426.3c0,0-0.1,0-0.1,0l-7.6-4l-7.6,4c0,0-0.1,0-0.1,0c0,0-0.1,0-0.1,0c-0.1-0.1-0.1-0.1-0.1-0.2
			l1.5-8.5l-6.2-6c-0.1-0.1-0.1-0.2-0.1-0.2c0-0.1,0.1-0.1,0.2-0.2l8.5-1.2l3.8-7.7c0-0.1,0.1-0.1,0.2-0.1s0.2,0,0.2,0.1l3.8,7.7
			l8.5,1.2c0.1,0,0.2,0.1,0.2,0.2c0,0.1,0,0.2-0.1,0.2l-6.2,6l1.5,8.5c0,0.1,0,0.2-0.1,0.2C157.6,426.3,157.5,426.3,157.5,426.3z"/>
		<path fill="#FFFFFF" d="M149.8,402.3l3.9,7.8l8.6,1.3l-6.2,6.1l1.5,8.6l-7.7-4.1l-7.7,4.1l1.5-8.6l-6.2-6.1l8.6-1.3L149.8,402.3
			 M149.8,401.8c-0.2,0-0.3,0.1-0.4,0.3l-3.8,7.6l-8.4,1.2c-0.2,0-0.3,0.1-0.4,0.3s0,0.3,0.1,0.5l6.1,5.9l-1.4,8.4
			c0,0.2,0,0.3,0.2,0.4c0.1,0.1,0.2,0.1,0.3,0.1c0.1,0,0.1,0,0.2-0.1l7.5-4l7.5,4c0.1,0,0.1,0.1,0.2,0.1c0.1,0,0.2,0,0.3-0.1
			c0.1-0.1,0.2-0.3,0.2-0.4l-1.4-8.4l6.1-5.9c0.1-0.1,0.2-0.3,0.1-0.5s-0.2-0.3-0.4-0.3l-8.4-1.2l-3.8-7.6
			C150.1,401.9,149.9,401.8,149.8,401.8L149.8,401.8z"/>
	</g>
	<g>
		<path fill="#FFFFFF" d="M1317.8,183.2c0-0.1,0-0.1-0.1-0.2l-3.3-3.2l4.6-0.7c0.1,0,0.1-0.1,0.2-0.1l2-4.1l2,4.1
			c0,0.1,0.1,0.1,0.2,0.1l4.6,0.7l-3.3,3.2c-0.1,0.1-0.1,0.1-0.1,0.2l0.8,4.5l-4.1-2.1c0,0-0.1,0-0.1,0s-0.1,0-0.1,0l-4.1,2.1
			L1317.8,183.2z"/>
		<path fill="#FFFFFF" d="M1321.2,175.4l1.8,3.7c0.1,0.1,0.2,0.2,0.3,0.2l4.1,0.6l-3,2.9c-0.1,0.1-0.2,0.3-0.1,0.4l0.7,4.1l-3.7-1.9
			c-0.1,0-0.1-0.1-0.2-0.1c-0.1,0-0.1,0-0.2,0.1l-3.7,1.9l0.7-4.1c0-0.1,0-0.3-0.1-0.4l-3-2.9l4.1-0.6c0.1,0,0.3-0.1,0.3-0.2
			L1321.2,175.4 M1321.2,174.4l-2.2,4.5l-5,0.7l3.6,3.5l-0.9,5l4.5-2.4l4.5,2.4l-0.9-5l3.6-3.5l-5-0.7L1321.2,174.4L1321.2,174.4z"
			/>
	</g>
	<g opacity="0.5">
		<path fill="#FFFFFF" d="M162.4,439.5c0,0-0.1,0-0.1,0s-0.1,0-0.1,0l-4.1,2.1l0.8-4.5c0-0.1,0-0.1-0.1-0.2l-3.3-3.2l4.6-0.7
			c0.1,0,0.1-0.1,0.2-0.1l2-4.1l2,4.1c0,0.1,0.1,0.1,0.2,0.1l4.6,0.7l-3.3,3.2c-0.1,0.1-0.1,0.1-0.1,0.2l0.8,4.5L162.4,439.5z"/>
		<path fill="#FFFFFF" d="M162.3,429.3l1.8,3.7c0.1,0.1,0.2,0.2,0.3,0.2l4.1,0.6l-3,2.9c-0.1,0.1-0.2,0.3-0.1,0.4l0.7,4.1l-3.7-1.9
			c-0.1,0-0.1-0.1-0.2-0.1s-0.1,0-0.2,0.1l-3.7,1.9l0.7-4.1c0-0.1,0-0.3-0.1-0.4l-3-2.9l4.1-0.6c0.1,0,0.3-0.1,0.3-0.2L162.3,429.3
			 M162.3,428.2l-2.2,4.5l-5,0.7l3.6,3.5l-0.9,5l4.5-2.4l4.5,2.4l-0.9-5l3.6-3.5l-5-0.7L162.3,428.2L162.3,428.2z"/>
	</g>
	<g>
		<path fill="#FFFFFF" d="M994.1,70.1c0-0.1,0-0.1-0.1-0.2l-3.3-3.2l4.6-0.7c0.1,0,0.1-0.1,0.2-0.1l2-4.1l2,4.1
			c0,0.1,0.1,0.1,0.2,0.1l4.6,0.7l-3.3,3.2c-0.1,0.1-0.1,0.1-0.1,0.2l0.8,4.5l-4.1-2.1c0,0-0.1,0-0.1,0s-0.1,0-0.1,0l-4.1,2.1
			L994.1,70.1z"/>
		<path fill="#FFFFFF" d="M997.5,62.2l1.8,3.7c0.1,0.1,0.2,0.2,0.3,0.2l4.1,0.6l-3,2.9c-0.1,0.1-0.2,0.3-0.1,0.4l0.7,4.1l-3.7-1.9
			c-0.1,0-0.1-0.1-0.2-0.1c-0.1,0-0.1,0-0.2,0.1l-3.7,1.9l0.7-4.1c0-0.1,0-0.3-0.1-0.4l-3-2.9l4.1-0.6c0.1,0,0.3-0.1,0.3-0.2
			L997.5,62.2 M997.5,61.2l-2.2,4.5l-5,0.7l3.6,3.5l-0.9,5l4.5-2.4l4.5,2.4l-0.9-5l3.6-3.5l-5-0.7L997.5,61.2L997.5,61.2z"/>
	</g>
	<g>
		<path fill="#FFFFFF" d="M1246,395.9c0-0.1,0-0.1-0.1-0.2l-3.3-3.2l4.6-0.7c0.1,0,0.1-0.1,0.2-0.1l2-4.1l2,4.1
			c0,0.1,0.1,0.1,0.2,0.1l4.6,0.7l-3.3,3.2c-0.1,0.1-0.1,0.1-0.1,0.2l0.8,4.5l-4.1-2.1c0,0-0.1,0-0.1,0s-0.1,0-0.1,0l-4.1,2.1
			L1246,395.9z"/>
		<path fill="#FFFFFF" d="M1249.4,388.1l1.8,3.7c0.1,0.1,0.2,0.2,0.3,0.2l4.1,0.6l-3,2.9c-0.1,0.1-0.2,0.3-0.1,0.4l0.7,4.1l-3.7-1.9
			c-0.1,0-0.1-0.1-0.2-0.1s-0.1,0-0.2,0.1l-3.7,1.9l0.7-4.1c0-0.1,0-0.3-0.1-0.4l-3-2.9l4.1-0.6c0.1,0,0.3-0.1,0.3-0.2L1249.4,388.1
			 M1249.4,387.1l-2.2,4.5l-5,0.7l3.6,3.5l-0.9,5l4.5-2.4l4.5,2.4l-0.9-5l3.6-3.5l-5-0.7L1249.4,387.1L1249.4,387.1z"/>
	</g>
	<g>
		<path fill="#FFFFFF" d="M1173,278c0-0.1,0-0.1-0.1-0.2l-3.3-3.2l4.6-0.7c0.1,0,0.1-0.1,0.2-0.1l2-4.1l2,4.1c0,0.1,0.1,0.1,0.2,0.1
			l4.6,0.7l-3.3,3.2c-0.1,0.1-0.1,0.1-0.1,0.2l0.8,4.5l-4.1-2.1c0,0-0.1,0-0.1,0s-0.1,0-0.1,0l-4.1,2.1L1173,278z"/>
		<path fill="#FFFFFF" d="M1176.4,270.2l1.8,3.7c0.1,0.1,0.2,0.2,0.3,0.2l4.1,0.6l-3,2.9c-0.1,0.1-0.2,0.3-0.1,0.4l0.7,4.1l-3.7-1.9
			c-0.1,0-0.1-0.1-0.2-0.1s-0.1,0-0.2,0.1l-3.7,1.9l0.7-4.1c0-0.1,0-0.3-0.1-0.4l-3-2.9l4.1-0.6c0.1,0,0.3-0.1,0.3-0.2L1176.4,270.2
			 M1176.4,269.2l-2.2,4.5l-5,0.7l3.6,3.5l-0.9,5l4.5-2.4l4.5,2.4l-0.9-5l3.6-3.5l-5-0.7L1176.4,269.2L1176.4,269.2z"/>
	</g>
	<g opacity="0.5">
		<path fill="#FFFFFF" d="M826.4,188.6c0-0.1,0-0.1-0.1-0.2l-3.3-3.2l4.5-0.7c0.1,0,0.1-0.1,0.2-0.1l2-4.1l2,4.1
			c0,0.1,0.1,0.1,0.2,0.1l4.5,0.7l-3.3,3.2c-0.1,0.1-0.1,0.1-0.1,0.2l0.8,4.5l-4.1-2.1c0,0-0.1,0-0.1,0s-0.1,0-0.1,0l-4.1,2.1
			L826.4,188.6z"/>
		<path fill="#FFFFFF" d="M829.8,180.8l1.8,3.7c0.1,0.1,0.2,0.2,0.3,0.2l4.1,0.6l-3,2.9c-0.1,0.1-0.2,0.3-0.1,0.4l0.7,4.1l-3.7-1.9
			c-0.1,0-0.1-0.1-0.2-0.1s-0.1,0-0.2,0.1l-3.7,1.9l0.7-4.1c0-0.1,0-0.3-0.1-0.4l-3-2.9l4.1-0.6c0.1,0,0.3-0.1,0.3-0.2L829.8,180.8
			 M829.8,179.7l-2.2,4.5l-5,0.7l3.6,3.5l-0.9,5l4.5-2.4l4.5,2.4l-0.9-5l3.6-3.5l-5-0.7L829.8,179.7L829.8,179.7z"/>
	</g>
	<g>
		<path fill="#FFFFFF" d="M597.9,103.2c0-0.1,0-0.1-0.1-0.2l-3.3-3.2l4.6-0.7c0.1,0,0.1-0.1,0.2-0.1l2-4.1l2,4.1
			c0,0.1,0.1,0.1,0.2,0.1l4.6,0.7l-3.3,3.2c-0.1,0.1-0.1,0.1-0.1,0.2l0.8,4.5l-4.1-2.1c0,0-0.1,0-0.1,0s-0.1,0-0.1,0l-4.1,2.1
			L597.9,103.2z"/>
		<path fill="#FFFFFF" d="M601.3,95.4l1.8,3.7c0.1,0.1,0.2,0.2,0.3,0.2l4.1,0.6l-3,2.9c-0.1,0.1-0.2,0.3-0.1,0.4l0.7,4.1l-3.7-1.9
			c-0.1,0-0.1-0.1-0.2-0.1c-0.1,0-0.1,0-0.2,0.1l-3.7,1.9l0.7-4.1c0-0.1,0-0.3-0.1-0.4l-3-2.9l4.1-0.6c0.1,0,0.3-0.1,0.3-0.2
			L601.3,95.4 M601.3,94.4l-2.2,4.5l-5,0.7l3.6,3.5l-0.9,5l4.5-2.4l4.5,2.4l-0.9-5l3.6-3.5l-5-0.7L601.3,94.4L601.3,94.4z"/>
	</g>
	<g>
		<path fill="#FFFFFF" d="M725.2,598.8c0-0.1,0-0.1-0.1-0.2l-3.3-3.2l4.6-0.7c0.1,0,0.1-0.1,0.2-0.1l2-4.1l2,4.1
			c0,0.1,0.1,0.1,0.2,0.1l4.6,0.7l-3.3,3.2c-0.1,0.1-0.1,0.1-0.1,0.2l0.8,4.5l-4.1-2.1c0,0-0.1,0-0.1,0s-0.1,0-0.1,0l-4.1,2.1
			L725.2,598.8z"/>
		<path fill="#FFFFFF" d="M728.6,590.9l1.8,3.7c0.1,0.1,0.2,0.2,0.3,0.2l4.1,0.6l-3,2.9c-0.1,0.1-0.2,0.3-0.1,0.4l0.7,4.1l-3.7-1.9
			c-0.1,0-0.1-0.1-0.2-0.1c-0.1,0-0.1,0-0.2,0.1l-3.7,1.9l0.7-4.1c0-0.1,0-0.3-0.1-0.4l-3-2.9l4.1-0.6c0.1,0,0.3-0.1,0.3-0.2
			L728.6,590.9 M728.6,589.9l-2.2,4.5l-5,0.7l3.6,3.5l-0.9,5l4.5-2.4l4.5,2.4l-0.9-5l3.6-3.5l-5-0.7L728.6,589.9L728.6,589.9z"/>
	</g>
	
		<path fill="#FFFFFF" stroke="#FFFFFF" stroke-width="0.3384" stroke-linecap="round" stroke-linejoin="round" stroke-miterlimit="10" d="
		M1093.7,353.6L1093.7,353.6c0-11.3-9.2-20.5-20.5-20.5v0c11.3,0,20.5-9.2,20.5-20.5l0,0c0,11.3,9.2,20.5,20.5,20.5v0
		C1102.9,333.1,1093.7,342.3,1093.7,353.6z"/>
	
		<path fill="#FFFFFF" stroke="#FFFFFF" stroke-width="0.3384" stroke-linecap="round" stroke-linejoin="round" stroke-miterlimit="10" d="
		M583.3,693.4L583.3,693.4c0-8.7-7.1-15.8-15.8-15.8l0,0c8.7,0,15.8-7.1,15.8-15.8h0c0,8.7,7.1,15.8,15.8,15.8l0,0
		C590.5,677.6,583.3,684.7,583.3,693.4z"/>
	
		<path opacity="0.5" fill="#FFFFFF" stroke="#FFFFFF" stroke-width="0.3384" stroke-linecap="round" stroke-linejoin="round" stroke-miterlimit="10" d="
		M178.3,64.4L178.3,64.4c0-8.7-7.1-15.8-15.8-15.8v0c8.7,0,15.8-7.1,15.8-15.8h0c0,8.7,7.1,15.8,15.8,15.8v0
		C185.5,48.6,178.3,55.7,178.3,64.4z"/>
	
		<path opacity="0.5" fill="#FFFFFF" stroke="#FFFFFF" stroke-width="0.3384" stroke-linecap="round" stroke-linejoin="round" stroke-miterlimit="10" d="
		M531.2,439.4L531.2,439.4c0-6.4-5.3-11.7-11.7-11.7l0,0c6.4,0,11.7-5.3,11.7-11.7l0,0c0,6.4,5.3,11.7,11.7,11.7l0,0
		C536.5,427.7,531.2,433,531.2,439.4z"/>
	
		<path fill="#FFFFFF" stroke="#FFFFFF" stroke-width="0.3384" stroke-linecap="round" stroke-linejoin="round" stroke-miterlimit="10" d="
		M251,384.7L251,384.7c0-6.4-5.3-11.7-11.7-11.7l0,0c6.4,0,11.7-5.3,11.7-11.7h0c0,6.4,5.3,11.7,11.7,11.7l0,0
		C256.3,373,251,378.3,251,384.7z"/>
	
		<path fill="#FFFFFF" stroke="#FFFFFF" stroke-width="0.3384" stroke-linecap="round" stroke-linejoin="round" stroke-miterlimit="10" d="
		M1166.9,702.8L1166.9,702.8c0-5.6-4.6-10.3-10.3-10.3l0,0c5.6,0,10.3-4.6,10.3-10.3l0,0c0,5.6,4.6,10.3,10.3,10.3l0,0
		C1171.5,692.5,1166.9,697.1,1166.9,702.8z"/>
	
		<path opacity="0.5" fill="#FFFFFF" stroke="#FFFFFF" stroke-width="0.3384" stroke-linecap="round" stroke-linejoin="round" stroke-miterlimit="10" d="
		M508.6,78.4L508.6,78.4c0-5.6-4.6-10.3-10.3-10.3v0c5.6,0,10.3-4.6,10.3-10.3h0c0,5.6,4.6,10.3,10.3,10.3v0
		C513.2,68.1,508.6,72.7,508.6,78.4z"/>
	
		<path fill="#FFFFFF" stroke="#FFFFFF" stroke-width="0.3384" stroke-linecap="round" stroke-linejoin="round" stroke-miterlimit="10" d="
		M184.6,646.8L184.6,646.8c0-5.6-4.6-10.3-10.3-10.3l0,0c5.6,0,10.3-4.6,10.3-10.3h0c0,5.6,4.6,10.3,10.3,10.3l0,0
		C189.3,636.6,184.6,641.2,184.6,646.8z"/>
	
		<path fill="#FFFFFF" stroke="#FFFFFF" stroke-width="0.3384" stroke-linecap="round" stroke-linejoin="round" stroke-miterlimit="10" d="
		M1294,364.3L1294,364.3c0-5.6-4.6-10.3-10.3-10.3l0,0c5.6,0,10.3-4.6,10.3-10.3l0,0c0,5.6,4.6,10.3,10.3,10.3l0,0
		C1298.6,354,1294,358.6,1294,364.3z"/>
	<circle fill="#FFFFFF" stroke="#FFFFFF" stroke-width="0.3384" stroke-miterlimit="10" cx="343.6" cy="368.3" r="4.1"/>
	
		<circle opacity="0.5" fill="#FFFFFF" stroke="#FFFFFF" stroke-width="0.3384" stroke-miterlimit="10" cx="158.1" cy="325" r="4.1"/>
	
		<circle opacity="0.5" fill="#FFFFFF" stroke="#FFFFFF" stroke-width="0.3384" stroke-miterlimit="10" cx="451.3" cy="112.3" r="4.1"/>
	
		<circle opacity="0.5" fill="#FFFFFF" stroke="#FFFFFF" stroke-width="0.3384" stroke-miterlimit="10" cx="617.7" cy="540.9" r="4.1"/>
	<circle fill="#FFFFFF" stroke="#FFFFFF" stroke-width="0.3384" stroke-miterlimit="10" cx="557.7" cy="199.6" r="4.1"/>
	
		<circle opacity="0.5" fill="#FFFFFF" stroke="#FFFFFF" stroke-width="0.3384" stroke-miterlimit="10" cx="1260.8" cy="95.5" r="4.1"/>
	<circle fill="#FFFFFF" stroke="#FFFFFF" stroke-width="0.3384" stroke-miterlimit="10" cx="260.7" cy="589.9" r="2.1"/>
	<circle fill="#FFFFFF" stroke="#FFFFFF" stroke-width="0.3384" stroke-miterlimit="10" cx="311.6" cy="53.8" r="2.1"/>
	
		<circle opacity="0.5" fill="#FFFFFF" stroke="#FFFFFF" stroke-width="0.3384" stroke-miterlimit="10" cx="464.5" cy="130.5" r="2.1"/>
	<circle fill="#FFFFFF" stroke="#FFFFFF" stroke-width="0.3384" stroke-miterlimit="10" cx="304.5" cy="528.5" r="2.1"/>
	<circle fill="#FFFFFF" stroke="#FFFFFF" stroke-width="0.3384" stroke-miterlimit="10" cx="33.2" cy="232.4" r="2.1"/>
	<circle fill="#FFFFFF" stroke="#FFFFFF" stroke-width="0.3384" stroke-miterlimit="10" cx="711" cy="153.9" r="2.1"/>
	<circle fill="#FFFFFF" stroke="#FFFFFF" stroke-width="0.3384" stroke-miterlimit="10" cx="173" cy="119" r="2.1"/>
	
		<circle opacity="0.5" fill="#FFFFFF" stroke="#FFFFFF" stroke-width="0.3384" stroke-miterlimit="10" cx="923.8" cy="281.3" r="2.1"/>
	<circle fill="#FFFFFF" stroke="#FFFFFF" stroke-width="0.3384" stroke-miterlimit="10" cx="1081.2" cy="504.5" r="2.1"/>
	<circle fill="#FFFFFF" stroke="#FFFFFF" stroke-width="0.3384" stroke-miterlimit="10" cx="1331.3" cy="663.8" r="2.1"/>
	<circle fill="#FFFFFF" cx="540.7" cy="589.9" r="1"/>
	<circle fill="#FFFFFF" cx="759.3" cy="212.4" r="1"/>
	<circle opacity="0.5" fill="#FFFFFF" cx="205.1" cy="478" r="1"/>
	<circle fill="#FFFFFF" cx="1156.6" cy="220.7" r="1"/>
	<circle fill="#FFFFFF" cx="513.3" cy="181.3" r="1"/>
	
		<circle opacity="0.5" fill="#FFFFFF" stroke="#FFFFFF" stroke-width="0.3384" stroke-miterlimit="10" cx="485.6" cy="379.2" r="2.1"/>
	<circle fill="#FFFFFF" stroke="#FFFFFF" stroke-width="0.3384" stroke-miterlimit="10" cx="44.9" cy="636.3" r="2.1"/>
	<circle fill="#FFFFFF" stroke="#FFFFFF" stroke-width="0.3384" stroke-miterlimit="10" cx="74.4" cy="737.2" r="2.1"/>
	<circle fill="#FFFFFF" cx="116.8" cy="679.1" r="1"/>
	<circle fill="#FFFFFF" stroke="#FFFFFF" stroke-width="0.3384" stroke-miterlimit="10" cx="61.6" cy="468.4" r="2.1"/>
	<circle fill="#FFFFFF" stroke="#FFFFFF" stroke-width="0.3384" stroke-miterlimit="10" cx="379.4" cy="240.7" r="2.1"/>
	<g>
		<path fill="#FFFFFF" d="M275.8,701.2c0-0.1-0.1-0.1-0.2-0.1l-4.5-1l3.5-3c0.1,0,0.1-0.1,0.1-0.2l-0.5-4.6l3.9,2.4c0,0,0.1,0,0.1,0
			c0,0,0.1,0,0.1,0l4.2-1.8l-1.1,4.5c0,0.1,0,0.1,0.1,0.2l3.1,3.4l-4.6,0.3c-0.1,0-0.1,0-0.2,0.1l-2.3,4L275.8,701.2z"/>
		<path fill="#FFFFFF" d="M274.6,692.8l3.5,2.2c0.1,0,0.2,0.1,0.2,0.1c0.1,0,0.1,0,0.2,0l3.8-1.7l-1,4c0,0.1,0,0.3,0.1,0.4l2.8,3.1
			l-4.1,0.3c-0.1,0-0.3,0.1-0.4,0.2l-2.1,3.6l-1.6-3.8c-0.1-0.1-0.2-0.2-0.3-0.3l-4-0.9l3.2-2.7c0.1-0.1,0.2-0.2,0.2-0.4
			L274.6,692.8 M274.1,691.9l0.5,5l-3.9,3.3l4.9,1.1l1.9,4.7l2.6-4.4l5-0.4l-3.4-3.8l1.2-4.9l-4.6,2L274.1,691.9L274.1,691.9z"/>
	</g>
	
		<path opacity="0.5" fill="#FFFFFF" stroke="#FFFFFF" stroke-width="0.3384" stroke-linecap="round" stroke-linejoin="round" stroke-miterlimit="10" d="
		M368.9,728.6L368.9,728.6c-0.4,5.6,3.9,10.6,9.5,11v0c-5.6-0.4-10.6,3.9-11,9.5l0,0c0.4-5.6-3.9-10.6-9.5-11l0,0
		C363.5,738.5,368.5,734.2,368.9,728.6z"/>
	<circle fill="#FFFFFF" stroke="#FFFFFF" stroke-width="0.3384" stroke-miterlimit="10" cx="1258.8" cy="736.4" r="4.1"/>
	<circle fill="#FFFFFF" stroke="#FFFFFF" stroke-width="0.3384" stroke-miterlimit="10" cx="328.6" cy="604.2" r="4.1"/>
	<circle fill="#FFFFFF" cx="371.5" cy="625.6" r="1"/>
	
		<circle opacity="0.5" fill="#FFFFFF" stroke="#FFFFFF" stroke-width="0.3384" stroke-miterlimit="10" cx="277.6" cy="123.8" r="2.1"/>
	<circle fill="#FFFFFF" stroke="#FFFFFF" stroke-width="0.3384" stroke-miterlimit="10" cx="326.9" cy="136.9" r="4.1"/>
	<circle fill="#FFFFFF" cx="366" cy="199.5" r="1"/>
	<circle fill="#FFFFFF" stroke="#FFFFFF" stroke-width="0.3384" stroke-miterlimit="10" cx="682.7" cy="482.2" r="4.1"/>
	<circle fill="#FFFFFF" cx="638.3" cy="463.8" r="1"/>
	<circle fill="#FFFFFF" stroke="#FFFFFF" stroke-width="0.3384" stroke-miterlimit="10" cx="560.6" cy="519.1" r="2.1"/>
	
		<circle opacity="0.5" fill="#FFFFFF" stroke="#FFFFFF" stroke-width="0.3384" stroke-miterlimit="10" cx="202" cy="740.1" r="4.1"/>
	<circle fill="#FFFFFF" stroke="#FFFFFF" stroke-width="0.3384" stroke-miterlimit="10" cx="35.9" cy="690" r="4.1"/>
	<circle fill="#FFFFFF" cx="222.6" cy="663.1" r="1"/>
	<circle fill="#FFFFFF" stroke="#FFFFFF" stroke-width="0.3384" stroke-miterlimit="10" cx="144.9" cy="718.3" r="2.1"/>
	<circle fill="#FFFFFF" stroke="#FFFFFF" stroke-width="0.3384" stroke-miterlimit="10" cx="489.3" cy="464.8" r="4.1"/>
	<circle opacity="0.5" fill="#FFFFFF" cx="581.3" cy="412.2" r="1"/>
	<circle fill="#FFFFFF" stroke="#FFFFFF" stroke-width="0.3384" stroke-miterlimit="10" cx="1074.4" cy="44.5" r="4.1"/>
	<circle fill="#FFFFFF" stroke="#FFFFFF" stroke-width="0.3384" stroke-miterlimit="10" cx="922.9" cy="44.5" r="2.1"/>
	
		<circle opacity="0.5" fill="#FFFFFF" stroke="#FFFFFF" stroke-width="0.3384" stroke-miterlimit="10" cx="918.5" cy="122.3" r="2.1"/>
	<circle fill="#FFFFFF" stroke="#FFFFFF" stroke-width="0.3384" stroke-miterlimit="10" cx="986.3" cy="136.5" r="4.1"/>
	<circle fill="#FFFFFF" cx="1029.3" cy="157.9" r="1"/>
	<g>
		<path fill="#FFFFFF" d="M974.4,247.3c0-0.1,0-0.1-0.1-0.2l-3.3-3.2l4.6-0.7c0.1,0,0.1-0.1,0.2-0.1l2-4.1l2,4.1
			c0,0.1,0.1,0.1,0.2,0.1l4.6,0.7l-3.3,3.2c-0.1,0.1-0.1,0.1-0.1,0.2l0.8,4.5l-4.1-2.1c0,0-0.1,0-0.1,0s-0.1,0-0.1,0l-4.1,2.1
			L974.4,247.3z"/>
		<path fill="#FFFFFF" d="M977.8,239.5l1.8,3.7c0.1,0.1,0.2,0.2,0.3,0.2l4.1,0.6l-3,2.9c-0.1,0.1-0.2,0.3-0.1,0.4l0.7,4.1l-3.7-1.9
			c-0.1,0-0.1-0.1-0.2-0.1c-0.1,0-0.1,0-0.2,0.1l-3.7,1.9l0.7-4.1c0-0.1,0-0.3-0.1-0.4l-3-2.9l4.1-0.6c0.1,0,0.3-0.1,0.3-0.2
			L977.8,239.5 M977.8,238.5l-2.2,4.5l-5,0.7l3.6,3.5l-0.9,5l4.5-2.4l4.5,2.4l-0.9-5l3.6-3.5l-5-0.7L977.8,238.5L977.8,238.5z"/>
	</g>
	<circle fill="#FFFFFF" stroke="#FFFFFF" stroke-width="0.3384" stroke-miterlimit="10" cx="1054.7" cy="221.8" r="4.1"/>
	<circle fill="#FFFFFF" stroke="#FFFFFF" stroke-width="0.3384" stroke-miterlimit="10" cx="903.2" cy="221.8" r="2.1"/>
	
		<circle opacity="0.5" fill="#FFFFFF" stroke="#FFFFFF" stroke-width="0.3384" stroke-miterlimit="10" cx="898.8" cy="299.5" r="2.1"/>
	<circle fill="#FFFFFF" stroke="#FFFFFF" stroke-width="0.3384" stroke-miterlimit="10" cx="507.8" cy="653.9" r="2.1"/>
	
		<circle opacity="0.5" fill="#FFFFFF" stroke="#FFFFFF" stroke-width="0.3384" stroke-miterlimit="10" cx="440.1" cy="692.3" r="2.1"/>
	<circle fill="#FFFFFF" stroke="#FFFFFF" stroke-width="0.3384" stroke-miterlimit="10" cx="966.6" cy="313.7" r="4.1"/>
	<circle fill="#FFFFFF" stroke="#FFFFFF" stroke-width="0.3384" stroke-miterlimit="10" cx="1162.2" cy="122.3" r="2.1"/>
	<g>
		<path fill="#FFFFFF" d="M1212.8,88.3c0-0.1,0-0.1-0.1-0.2l-3.3-3.2l4.6-0.7c0.1,0,0.1-0.1,0.2-0.1l2-4.1l2,4.1
			c0,0.1,0.1,0.1,0.2,0.1l4.6,0.7l-3.3,3.2c-0.1,0.1-0.1,0.1-0.1,0.2l0.8,4.5l-4.1-2.1c0,0-0.1,0-0.1,0s-0.1,0-0.1,0l-4.1,2.1
			L1212.8,88.3z"/>
		<path fill="#FFFFFF" d="M1216.2,80.5l1.8,3.7c0.1,0.1,0.2,0.2,0.3,0.2l4.1,0.6l-3,2.9c-0.1,0.1-0.2,0.3-0.1,0.4l0.7,4.1l-3.7-1.9
			c-0.1,0-0.1-0.1-0.2-0.1c-0.1,0-0.1,0-0.2,0.1l-3.7,1.9l0.7-4.1c0-0.1,0-0.3-0.1-0.4l-3-2.9l4.1-0.6c0.1,0,0.3-0.1,0.3-0.2
			L1216.2,80.5 M1216.2,79.5L1214,84l-5,0.7l3.6,3.5l-0.9,5l4.5-2.4l4.5,2.4l-0.9-5l3.6-3.5l-5-0.7L1216.2,79.5L1216.2,79.5z"/>
	</g>
	<circle fill="#FFFFFF" stroke="#FFFFFF" stroke-width="0.3384" stroke-miterlimit="10" cx="1141.7" cy="62.8" r="2.1"/>
	<circle fill="#FFFFFF" stroke="#FFFFFF" stroke-width="0.3384" stroke-miterlimit="10" cx="1137.3" cy="140.5" r="2.1"/>
	<circle fill="#FFFFFF" stroke="#FFFFFF" stroke-width="0.3384" stroke-miterlimit="10" cx="1205.1" cy="154.7" r="4.1"/>
	<circle fill="#FFFFFF" cx="1009.6" cy="335.2" r="1"/>
	<circle opacity="0.5" fill="#FFFFFF" cx="1043.3" cy="489.6" r="1"/>
	<circle fill="#FFFFFF" stroke="#FFFFFF" stroke-width="0.3384" stroke-miterlimit="10" cx="1186.2" cy="603.1" r="2.1"/>
	<circle fill="#FFFFFF" cx="1157.9" cy="570.2" r="1"/>
	
		<circle opacity="0.5" fill="#FFFFFF" stroke="#FFFFFF" stroke-width="0.3384" stroke-miterlimit="10" cx="1065.3" cy="533.4" r="2.1"/>
	
		<circle opacity="0.5" fill="#FFFFFF" stroke="#FFFFFF" stroke-width="0.3384" stroke-miterlimit="10" cx="1096.2" cy="602" r="2.5"/>
	<circle fill="#FFFFFF" stroke="#FFFFFF" stroke-width="0.6436" stroke-miterlimit="10" cx="1101" cy="607.7" r="4.8"/>
	<circle fill="#FFFFFF" stroke="#FFFFFF" stroke-width="0.3384" stroke-miterlimit="10" cx="1346.9" cy="744" r="4.1"/>
	
		<circle opacity="0.5" fill="#FFFFFF" stroke="#FFFFFF" stroke-width="0.3384" stroke-miterlimit="10" cx="1250.5" cy="251.2" r="4.1"/>
	<circle fill="#FFFFFF" stroke="#FFFFFF" stroke-width="0.6436" stroke-miterlimit="10" cx="1258.4" cy="260.7" r="7.9"/>
	
		<circle opacity="0.5" fill="#FFFFFF" stroke="#FFFFFF" stroke-width="0.3384" stroke-miterlimit="10" cx="71.6" cy="325.2" r="1.5"/>
	<circle fill="#FFFFFF" stroke="#FFFFFF" stroke-width="0.6436" stroke-miterlimit="10" cx="74.5" cy="328.6" r="2.9"/>
	
		<circle opacity="0.5" fill="#FFFFFF" stroke="#FFFFFF" stroke-width="0.3384" stroke-miterlimit="10" cx="172.3" cy="149.6" r="4.1"/>
	
		<circle opacity="0.5" fill="#FFFFFF" stroke="#FFFFFF" stroke-width="0.3384" stroke-miterlimit="10" cx="1301" cy="377.9" r="4.1"/>
	
		<circle opacity="0.5" fill="#FFFFFF" stroke="#FFFFFF" stroke-width="0.3384" stroke-miterlimit="10" cx="142" cy="119.8" r="4.1"/>
	<circle fill="#FFFFFF" stroke="#FFFFFF" stroke-width="0.6436" stroke-miterlimit="10" cx="158.1" cy="220.4" r="7.9"/>
	<circle fill="#FFFFFF" stroke="#FFFFFF" stroke-width="0.3384" stroke-miterlimit="10" cx="229.3" cy="189.4" r="4.1"/>
	
		<circle opacity="0.5" fill="#FFFFFF" stroke="#FFFFFF" stroke-width="0.6436" stroke-miterlimit="10" cx="233" cy="201.2" r="7.9"/>
	<circle fill="#FFFFFF" stroke="#FFFFFF" stroke-width="0.3384" stroke-miterlimit="10" cx="1073" cy="689.9" r="5.9"/>
	
		<circle opacity="0.5" fill="#FFFFFF" stroke="#FFFFFF" stroke-width="0.6436" stroke-miterlimit="10" cx="1090.3" cy="687.2" r="11.2"/>
	<circle fill="#FFFFFF" stroke="#FFFFFF" stroke-width="0.3384" stroke-miterlimit="10" cx="766.7" cy="120.8" r="4"/>
	
		<circle opacity="0.5" fill="#FFFFFF" stroke="#FFFFFF" stroke-width="0.6436" stroke-miterlimit="10" cx="768.3" cy="132.6" r="7.7"/>
	
		<circle opacity="0.5" fill="#FFFFFF" stroke="#FFFFFF" stroke-width="0.3384" stroke-miterlimit="10" cx="101" cy="593.9" r="2.1"/>
	
		<circle opacity="0.5" fill="#FFFFFF" stroke="#FFFFFF" stroke-width="0.6436" stroke-miterlimit="10" cx="101" cy="593.9" r="3.9"/>
	<circle fill="#FFFFFF" stroke="#FFFFFF" stroke-width="0.3384" stroke-miterlimit="10" cx="70.1" cy="86.1" r="4.1"/>
	<circle opacity="0.5" fill="#FFFFFF" stroke="#FFFFFF" stroke-width="0.6436" stroke-miterlimit="10" cx="78" cy="95.5" r="7.9"/>
	
		<circle opacity="0.5" fill="#FFFFFF" stroke="#FFFFFF" stroke-width="0.6436" stroke-miterlimit="10" cx="33.2" cy="55.2" r="7.9"/>
	<circle fill="#FFFFFF" stroke="#FFFFFF" stroke-width="0.3384" stroke-miterlimit="10" cx="449" cy="344.9" r="2.1"/>
	
		<circle opacity="0.5" fill="#FFFFFF" stroke="#FFFFFF" stroke-width="0.6436" stroke-miterlimit="10" cx="449" cy="344.9" r="3.9"/>
	<g opacity="0.5">
		<path fill="#FFFFFF" d="M981.9,662.3c-0.1,0-0.1,0-0.2-0.1l-5.2-5.5l-7.5,1.1c0,0,0,0,0,0c-0.1,0-0.1,0-0.2-0.1
			c0-0.1-0.1-0.2,0-0.2l3.7-6.6l-3.4-6.8c0-0.1,0-0.2,0-0.2c0-0.1,0.1-0.1,0.2-0.1c0,0,0,0,0,0l7.4,1.4l5.4-5.3c0,0,0.1-0.1,0.2-0.1
			c0,0,0,0,0.1,0c0.1,0,0.1,0.1,0.2,0.2l0.9,7.5l6.7,3.5c0.1,0,0.1,0.1,0.1,0.2c0,0.1-0.1,0.2-0.1,0.2l-6.9,3.2l-1.2,7.5
			C982.1,662.2,982.1,662.2,981.9,662.3C982,662.3,981.9,662.3,981.9,662.3z"/>
		<path fill="#FFFFFF" d="M982.3,640l1,7.6l6.8,3.5l-7,3.3l-1.3,7.6l-5.3-5.6l-7.6,1.2l3.7-6.7l-3.5-6.9l7.6,1.5L982.3,640
			 M982.3,639.5c-0.1,0-0.2,0-0.3,0.1l-5.3,5.2l-7.3-1.4c0,0-0.1,0-0.1,0c-0.1,0-0.3,0.1-0.4,0.2c-0.1,0.1-0.1,0.3,0,0.5l3.3,6.7
			l-3.6,6.5c-0.1,0.2-0.1,0.3,0,0.5c0.1,0.1,0.2,0.2,0.4,0.2c0,0,0,0,0.1,0l7.4-1.1l5.1,5.4c0.1,0.1,0.2,0.1,0.3,0.1
			c0,0,0.1,0,0.1,0c0.2,0,0.3-0.2,0.3-0.4l1.2-7.4l6.8-3.2c0.2-0.1,0.3-0.2,0.3-0.4c0-0.2-0.1-0.3-0.2-0.4l-6.6-3.4l-0.9-7.4
			c0-0.2-0.1-0.3-0.3-0.4C982.4,639.5,982.4,639.5,982.3,639.5L982.3,639.5z"/>
	</g>
	<g>
		<path fill="#FFFFFF" d="M857.6,416.4c0-0.1-0.1-0.1-0.1-0.2l-4.2-2l4.1-2.1c0.1,0,0.1-0.1,0.1-0.2l0.6-4.6l3.3,3.2
			c0,0,0.1,0.1,0.2,0.1c0,0,0,0,0,0l4.5-0.8L864,414c0,0.1,0,0.1,0,0.2l2.2,4c0,0-4.6-0.7-4.6-0.7c-0.1,0-0.1,0-0.2,0.1l-3.2,3.3
			L857.6,416.4z"/>
		<path fill="#FFFFFF" d="M858.3,407.9l2.9,2.9c0.1,0.1,0.2,0.1,0.3,0.1c0,0,0.1,0,0.1,0l4.1-0.8l-1.9,3.7c-0.1,0.1-0.1,0.3,0,0.4
			l2,3.6l-4.1-0.6c0,0,0,0-0.1,0c-0.1,0-0.2,0.1-0.3,0.1l-2.8,3l-0.7-4.1c0-0.1-0.1-0.3-0.3-0.3l-3.7-1.8l3.7-1.9
			c0.1-0.1,0.2-0.2,0.2-0.3L858.3,407.9 M857.9,406.9l-0.7,5l-4.5,2.3l4.6,2.2l0.8,5l3.5-3.7l5,0.8l-2.4-4.4l2.3-4.5l-5,0.9
			L857.9,406.9L857.9,406.9z"/>
	</g>
	<circle fill="#FFFFFF" stroke="#FFFFFF" stroke-width="0.3384" stroke-miterlimit="10" cx="779.6" cy="460.1" r="4.1"/>
	<circle fill="#FFFFFF" stroke="#FFFFFF" stroke-width="0.3384" stroke-miterlimit="10" cx="919.6" cy="725.6" r="4.1"/>
	<circle fill="#FFFFFF" stroke="#FFFFFF" stroke-width="0.3384" stroke-miterlimit="10" cx="1156.9" cy="473" r="4.1"/>
	<circle fill="#FFFFFF" stroke="#FFFFFF" stroke-width="0.3384" stroke-miterlimit="10" cx="825.5" cy="610.2" r="2.1"/>
	<circle fill="#FFFFFF" stroke="#FFFFFF" stroke-width="0.3384" stroke-miterlimit="10" cx="762.3" cy="694.3" r="2.1"/>
	<circle fill="#FFFFFF" cx="834.3" cy="693.4" r="1"/>
	<g>
		<path fill="#FFFFFF" d="M289.6,333.4c0,0-0.1,0-0.1,0s-0.1,0-0.1,0l-4.1,2.1l0.8-4.5c0-0.1,0-0.1-0.1-0.2l-3.3-3.2l4.6-0.7
			c0.1,0,0.1-0.1,0.2-0.1l2-4.1l2,4.1c0,0.1,0.1,0.1,0.2,0.1l4.6,0.7l-3.3,3.2c-0.1,0.1-0.1,0.1-0.1,0.2l0.8,4.5L289.6,333.4z"/>
		<path fill="#FFFFFF" d="M289.5,323.2l1.8,3.7c0.1,0.1,0.2,0.2,0.3,0.2l4.1,0.6l-3,2.9c-0.1,0.1-0.2,0.3-0.1,0.4l0.7,4.1l-3.7-1.9
			c-0.1,0-0.1-0.1-0.2-0.1s-0.1,0-0.2,0.1l-3.7,1.9l0.7-4.1c0-0.1,0-0.3-0.1-0.4l-3-2.9l4.1-0.6c0.1,0,0.3-0.1,0.3-0.2L289.5,323.2
			 M289.5,322.2l-2.2,4.5l-5,0.7l3.6,3.5l-0.9,5l4.5-2.4l4.5,2.4l-0.9-5l3.6-3.5l-5-0.7L289.5,322.2L289.5,322.2z"/>
	</g>
	<circle fill="#FFFFFF" stroke="#FFFFFF" stroke-width="0.3384" stroke-miterlimit="10" cx="386.4" cy="342.5" r="2.1"/>
	<circle fill="#FFFFFF" stroke="#FFFFFF" stroke-width="0.3384" stroke-miterlimit="10" cx="323.3" cy="426.6" r="2.1"/>
	<circle fill="#FFFFFF" cx="395.2" cy="425.7" r="1"/>
	<circle fill="#FFFFFF" stroke="#FFFFFF" stroke-width="0.3384" stroke-miterlimit="10" cx="308.6" cy="217.1" r="4.1"/>
	<circle fill="#FFFFFF" stroke="#FFFFFF" stroke-width="0.3384" stroke-miterlimit="10" cx="466.5" cy="218.6" r="2.1"/>
	
		<circle opacity="0.5" fill="#FFFFFF" stroke="#FFFFFF" stroke-width="0.6436" stroke-miterlimit="10" cx="466.5" cy="218.6" r="3.9"/>
	<circle fill="#FFFFFF" stroke="#FFFFFF" stroke-width="0.3384" stroke-miterlimit="10" cx="503.7" cy="304.1" r="2.1"/>
	<circle fill="#FFFFFF" stroke="#FFFFFF" stroke-width="0.3384" stroke-miterlimit="10" cx="267.4" cy="263" r="2.1"/>
	<circle fill="#FFFFFF" cx="334.1" cy="290" r="1"/>
	<circle fill="#FFFFFF" stroke="#FFFFFF" stroke-width="0.3384" stroke-miterlimit="10" cx="969.8" cy="523" r="2.1"/>
	<circle fill="#FFFFFF" stroke="#FFFFFF" stroke-width="0.3384" stroke-miterlimit="10" cx="1054.1" cy="397.4" r="2.1"/>
	
		<circle opacity="0.5" fill="#FFFFFF" stroke="#FFFFFF" stroke-width="0.3384" stroke-miterlimit="10" cx="898.5" cy="576.4" r="4.1"/>
	<circle fill="#FFFFFF" stroke="#FFFFFF" stroke-width="0.3384" stroke-miterlimit="10" cx="975.4" cy="473.1" r="2.1"/>
	
		<circle opacity="0.5" fill="#FFFFFF" stroke="#FFFFFF" stroke-width="0.6436" stroke-miterlimit="10" cx="975.4" cy="473.1" r="3.9"/>
	
		<circle opacity="0.5" fill="#FFFFFF" stroke="#FFFFFF" stroke-width="0.3384" stroke-miterlimit="10" cx="684.5" cy="185.3" r="2.5"/>
	<circle fill="#FFFFFF" stroke="#FFFFFF" stroke-width="0.6436" stroke-miterlimit="10" cx="679.1" cy="190.3" r="4.8"/>
	<g>
		<path fill="#FFFFFF" d="M796.6,302.5c-0.1,0-0.2-0.1-0.2-0.1l-4.2-9.3l-10-1.8c-0.1,0-0.2-0.1-0.2-0.2c0-0.1,0-0.2,0.1-0.2
			l7.5-6.8l-1.4-10.1c0-0.1,0-0.2,0.1-0.2c0,0,0.1,0,0.1,0c0,0,0.1,0,0.1,0l8.8,5l9.2-4.4c0,0,0.1,0,0.1,0c0,0,0.1,0,0.1,0
			c0.1,0.1,0.1,0.1,0.1,0.2l-2.1,10l7,7.3c0.1,0.1,0.1,0.2,0,0.2c0,0.1-0.1,0.1-0.2,0.1l-10.1,1.1l-4.8,9
			C796.8,302.4,796.7,302.5,796.6,302.5C796.6,302.5,796.6,302.5,796.6,302.5z"/>
		<path fill="#FFFFFF" d="M788.5,273.9l8.9,5.1l9.3-4.5l-2.1,10.1l7.1,7.4l-10.2,1.1l-4.9,9.1l-4.2-9.4l-10.1-1.8l7.6-6.9
			L788.5,273.9 M806.7,274.5L806.7,274.5 M788.5,273.5c-0.1,0-0.2,0-0.3,0.1c-0.1,0.1-0.2,0.3-0.2,0.4l1.4,10l-7.4,6.8
			c-0.1,0.1-0.2,0.3-0.1,0.5c0,0.2,0.2,0.3,0.4,0.3l9.9,1.8l4.1,9.2c0.1,0.2,0.2,0.3,0.4,0.3c0,0,0,0,0,0c0.2,0,0.3-0.1,0.4-0.2
			l4.8-8.9l10-1.1c0.2,0,0.3-0.1,0.4-0.3c0.1-0.2,0-0.3-0.1-0.5l-7-7.3l2-9.8c0,0,0-0.1,0-0.1c0-0.2-0.2-0.5-0.4-0.5h0c0,0,0,0,0,0
			c0,0,0,0,0,0c-0.1,0-0.1,0-0.2,0l-9,4.4l-8.7-5C788.6,273.5,788.5,273.5,788.5,273.5L788.5,273.5z"/>
	</g>
	<g>
		<path fill="#FFFFFF" d="M651.6,336.1c0-0.1,0-0.1-0.1-0.2l-3.3-3.2l4.6-0.7c0.1,0,0.1-0.1,0.2-0.1l2-4.1l2,4.1
			c0,0.1,0.1,0.1,0.2,0.1l4.6,0.7l-3.3,3.2c-0.1,0.1-0.1,0.1-0.1,0.2l0.8,4.5l-4.1-2.1c0,0-0.1,0-0.1,0s-0.1,0-0.1,0l-4.1,2.1
			L651.6,336.1z"/>
		<path fill="#FFFFFF" d="M655,328.3l1.8,3.7c0.1,0.1,0.2,0.2,0.3,0.2l4.1,0.6l-3,2.9c-0.1,0.1-0.2,0.3-0.1,0.4l0.7,4.1l-3.7-1.9
			c-0.1,0-0.1-0.1-0.2-0.1c-0.1,0-0.1,0-0.2,0.1l-3.7,1.9l0.7-4.1c0-0.1,0-0.3-0.1-0.4l-3-2.9l4.1-0.6c0.1,0,0.3-0.1,0.3-0.2
			L655,328.3 M655,327.3l-2.2,4.5l-5,0.7l3.6,3.5l-0.9,5l4.5-2.4l4.5,2.4l-0.9-5l3.6-3.5l-5-0.7L655,327.3L655,327.3z"/>
	</g>
	<circle fill="#FFFFFF" stroke="#FFFFFF" stroke-width="0.3384" stroke-miterlimit="10" cx="651.8" cy="709.7" r="3.2"/>
	
		<circle opacity="0.5" fill="#FFFFFF" stroke="#FFFFFF" stroke-width="0.6436" stroke-miterlimit="10" cx="657.9" cy="717" r="6.1"/>
	<circle fill="#FFFFFF" stroke="#FFFFFF" stroke-width="0.3384" stroke-miterlimit="10" cx="914.9" cy="491.7" r="3.2"/>
	<circle opacity="0.5" fill="#FFFFFF" stroke="#FFFFFF" stroke-width="0.6436" stroke-miterlimit="10" cx="921" cy="499" r="6.1"/>
	<circle fill="#FFFFFF" stroke="#FFFFFF" stroke-width="0.3384" stroke-miterlimit="10" cx="192.2" cy="539.2" r="3.2"/>
	
		<circle opacity="0.5" fill="#FFFFFF" stroke="#FFFFFF" stroke-width="0.6436" stroke-miterlimit="10" cx="184.6" cy="544.8" r="6.1"/>
	<g opacity="0.5">
		<path fill="#FFFFFF" d="M604,647.2c0,0-0.1,0-0.1,0s-0.1,0-0.1,0l-4.1,2.1l0.8-4.5c0-0.1,0-0.1-0.1-0.2l-3.3-3.2l4.6-0.7
			c0.1,0,0.1-0.1,0.2-0.1l2-4.1l2,4.1c0,0.1,0.1,0.1,0.2,0.1l4.6,0.7l-3.3,3.2c-0.1,0.1-0.1,0.1-0.1,0.2l0.8,4.5L604,647.2z"/>
		<path fill="#FFFFFF" d="M603.9,637l1.8,3.7c0.1,0.1,0.2,0.2,0.3,0.2l4.1,0.6l-3,2.9c-0.1,0.1-0.2,0.3-0.1,0.4l0.7,4.1l-3.7-1.9
			c-0.1,0-0.1-0.1-0.2-0.1s-0.1,0-0.2,0.1l-3.7,1.9l0.7-4.1c0-0.1,0-0.3-0.1-0.4l-3-2.9l4.1-0.6c0.1,0,0.3-0.1,0.3-0.2L603.9,637
			 M603.9,636l-2.2,4.5l-5,0.7l3.6,3.5l-0.9,5l4.5-2.4l4.5,2.4l-0.9-5l3.6-3.5l-5-0.7L603.9,636L603.9,636z"/>
	</g>
	
		<path fill="#FFFFFF" stroke="#FFFFFF" stroke-width="0.3384" stroke-linecap="round" stroke-linejoin="round" stroke-miterlimit="10" d="
		M562.3,311.3L562.3,311.3c0-5.6-4.6-10.3-10.3-10.3v0c5.6,0,10.3-4.6,10.3-10.3l0,0c0,5.6,4.6,10.3,10.3,10.3v0
		C566.9,301,562.3,305.6,562.3,311.3z"/>
	<circle fill="#FFFFFF" stroke="#FFFFFF" stroke-width="0.3384" stroke-miterlimit="10" cx="453.1" cy="559" r="4.1"/>
	<circle fill="#FFFFFF" stroke="#FFFFFF" stroke-width="0.3384" stroke-miterlimit="10" cx="764.6" cy="386.8" r="2.1"/>
	<circle fill="#FFFFFF" cx="812.9" cy="445.3" r="1"/>
	<circle fill="#FFFFFF" cx="369" cy="486" r="1"/>
	<circle fill="#FFFFFF" stroke="#FFFFFF" stroke-width="0.3384" stroke-miterlimit="10" cx="492.9" cy="734" r="4.1"/>
	<circle fill="#FFFFFF" stroke="#FFFFFF" stroke-width="0.3384" stroke-miterlimit="10" cx="535.7" cy="708.2" r="2.1"/>
	<circle opacity="0.5" fill="#FFFFFF" cx="972.3" cy="414.3" r="1"/>
	<circle fill="#FFFFFF" stroke="#FFFFFF" stroke-width="0.3384" stroke-miterlimit="10" cx="251.5" cy="511.3" r="4.1"/>
	<circle fill="#FFFFFF" stroke="#FFFFFF" stroke-width="0.3384" stroke-miterlimit="10" cx="236.5" cy="438" r="2.1"/>
	<circle fill="#FFFFFF" cx="284.8" cy="496.5" r="1"/>
	<circle fill="#FFFFFF" cx="408.7" cy="540.7" r="1"/>
	
		<circle opacity="0.5" fill="#FFFFFF" stroke="#FFFFFF" stroke-width="0.3384" stroke-miterlimit="10" cx="738.2" cy="418.2" r="2.5"/>
	<circle fill="#FFFFFF" stroke="#FFFFFF" stroke-width="0.6436" stroke-miterlimit="10" cx="732.7" cy="423.2" r="4.8"/>
	<circle fill="#FFFFFF" stroke="#FFFFFF" stroke-width="0.3384" stroke-miterlimit="10" cx="1276.1" cy="34.3" r="3.2"/>
	
		<circle opacity="0.5" fill="#FFFFFF" stroke="#FFFFFF" stroke-width="0.6436" stroke-miterlimit="10" cx="1282.2" cy="41.5" r="6.1"/>
	
		<circle opacity="0.5" fill="#FFFFFF" stroke="#FFFFFF" stroke-width="0.3384" stroke-miterlimit="10" cx="1311.5" cy="51.4" r="2.5"/>
	<circle fill="#FFFFFF" stroke="#FFFFFF" stroke-width="0.6436" stroke-miterlimit="10" cx="1306" cy="56.5" r="4.8"/>
	<g>
		<path fill="#FFFFFF" d="M1097.2,520c0-0.1,0-0.1-0.1-0.2l-3.3-3.2l4.6-0.7c0.1,0,0.1-0.1,0.2-0.1l2-4.1l2,4.1
			c0,0.1,0.1,0.1,0.2,0.1l4.5,0.7l-3.3,3.2c-0.1,0.1-0.1,0.1-0.1,0.2l0.8,4.5l-4.1-2.1c0,0-0.1,0-0.1,0s-0.1,0-0.1,0l-4.1,2.1
			L1097.2,520z"/>
		<path fill="#FFFFFF" d="M1100.6,512.2l1.8,3.7c0.1,0.1,0.2,0.2,0.3,0.2l4.1,0.6l-3,2.9c-0.1,0.1-0.2,0.3-0.1,0.4l0.7,4.1l-3.7-1.9
			c-0.1,0-0.1-0.1-0.2-0.1c-0.1,0-0.1,0-0.2,0.1l-3.7,1.9l0.7-4.1c0-0.1,0-0.3-0.1-0.4l-3-2.9l4.1-0.6c0.1,0,0.3-0.1,0.3-0.2
			L1100.6,512.2 M1100.6,511.2l-2.2,4.5l-5,0.7l3.6,3.5l-0.9,5l4.5-2.4l4.5,2.4l-0.9-5l3.6-3.5l-5-0.7L1100.6,511.2L1100.6,511.2z"
			/>
	</g>
	<circle fill="#FFFFFF" stroke="#FFFFFF" stroke-width="0.3384" stroke-miterlimit="10" cx="92.6" cy="512.2" r="2.1"/>
	<circle opacity="0.5" fill="#FFFFFF" cx="140.9" cy="570.7" r="1"/>
	
		<circle opacity="0.5" fill="#FFFFFF" stroke="#FFFFFF" stroke-width="0.3384" stroke-miterlimit="10" cx="66.1" cy="543.6" r="2.5"/>
	<circle fill="#FFFFFF" stroke="#FFFFFF" stroke-width="0.6436" stroke-miterlimit="10" cx="60.7" cy="548.6" r="4.8"/>
	<circle fill="#FFFFFF" stroke="#FFFFFF" stroke-width="0.3384" stroke-miterlimit="10" cx="1241" cy="602.4" r="2.1"/>
	<circle fill="#FFFFFF" stroke="#FFFFFF" stroke-width="0.3384" stroke-miterlimit="10" cx="1270.5" cy="703.4" r="2.1"/>
	<circle fill="#FFFFFF" cx="1312.9" cy="645.2" r="1"/>
	<circle fill="#FFFFFF" stroke="#FFFFFF" stroke-width="0.3384" stroke-miterlimit="10" cx="1257.7" cy="434.5" r="2.1"/>
	
		<circle opacity="0.5" fill="#FFFFFF" stroke="#FFFFFF" stroke-width="0.3384" stroke-miterlimit="10" cx="1191.5" cy="345.5" r="2.1"/>
	<circle fill="#FFFFFF" stroke="#FFFFFF" stroke-width="0.3384" stroke-miterlimit="10" cx="1231.9" cy="656.1" r="4.1"/>
	
		<circle opacity="0.5" fill="#FFFFFF" stroke="#FFFFFF" stroke-width="0.3384" stroke-miterlimit="10" cx="1297.1" cy="560.1" r="2.1"/>
	
		<circle opacity="0.5" fill="#FFFFFF" stroke="#FFFFFF" stroke-width="0.6436" stroke-miterlimit="10" cx="1297.1" cy="560.1" r="3.9"/>
	<circle fill="#FFFFFF" stroke="#FFFFFF" stroke-width="0.3384" stroke-miterlimit="10" cx="1288.7" cy="478.3" r="2.1"/>
	
		<circle opacity="0.5" fill="#FFFFFF" stroke="#FFFFFF" stroke-width="0.3384" stroke-miterlimit="10" cx="1262.2" cy="509.7" r="2.5"/>
	<circle fill="#FFFFFF" stroke="#FFFFFF" stroke-width="0.6436" stroke-miterlimit="10" cx="1256.8" cy="514.8" r="4.8"/>
	<circle opacity="0.5" fill="#FFFFFF" stroke="#FFFFFF" stroke-width="0.3384" stroke-miterlimit="10" cx="51" cy="381" r="2.1"/>
	<circle fill="#FFFFFF" stroke="#FFFFFF" stroke-width="0.3384" stroke-miterlimit="10" cx="672.5" cy="342.5" r="2.1"/>
	
		<circle opacity="0.5" fill="#FFFFFF" stroke="#FFFFFF" stroke-width="0.3384" stroke-miterlimit="10" cx="843.5" cy="510.5" r="2.1"/>
	<circle opacity="0.5" fill="#FFFFFF" stroke="#FFFFFF" stroke-width="0.3384" stroke-miterlimit="10" cx="665" cy="402" r="2.1"/>
	<circle fill="#FFFFFF" stroke="#FFFFFF" stroke-width="0.3384" stroke-miterlimit="10" cx="644.5" cy="342.5" r="2.1"/>
	
		<circle opacity="0.5" fill="#FFFFFF" stroke="#FFFFFF" stroke-width="0.3384" stroke-miterlimit="10" cx="640.1" cy="420.2" r="2.1"/>
	<circle fill="#FFFFFF" stroke="#FFFFFF" stroke-width="0.3384" stroke-miterlimit="10" cx="734" cy="530.4" r="2.1"/>
	<circle fill="#FFFFFF" cx="806" cy="529.5" r="1"/>
	<circle fill="#FFFFFF" cx="779.7" cy="589.7" r="1"/>
</g>
<g id="sattelite_1_">
	<g id="space">
		<g id="orbit" display="none">
			
				<circle display="inline" fill="none" stroke="#4F4BCE" stroke-width="2" stroke-miterlimit="10" cx="146.2" cy="310.3" r="84.2"/>
			
				<circle display="inline" fill="none" stroke="#4F4BCE" stroke-width="2" stroke-miterlimit="10" cx="146.2" cy="310.3" r="56.7"/>
			
				<circle display="inline" fill="none" stroke="#4F4BCE" stroke-width="2" stroke-miterlimit="10" cx="146.2" cy="310.3" r="39.3"/>
			
				<circle display="inline" fill="#FFFFFF" stroke="#4F4BCE" stroke-width="2" stroke-miterlimit="10" cx="146.2" cy="310.3" r="8.4"/>
			<circle display="inline" fill="#5AF1B8" cx="194.4" cy="240.1" r="5.6"/>
			
				<circle display="inline" fill="#5AF1B8" stroke="#5AF1B8" stroke-width="2" stroke-miterlimit="10" cx="110.3" cy="296.2" r="5.6"/>
			
				<circle display="inline" fill="#FFFFFF" stroke="#FFFFFF" stroke-width="2" stroke-miterlimit="10" cx="87.8" cy="251.3" r="5.6"/>
			
				<circle display="inline" fill="#FFFFFF" stroke="#FFFFFF" stroke-width="2" stroke-miterlimit="10" cx="183.2" cy="324.3" r="5.6"/>
			
				<circle display="inline" fill="#7C75FF" stroke="#7C75FF" stroke-width="2" stroke-miterlimit="10" cx="146.7" cy="366.4" r="5.6"/>
		</g>


	</g>
</g>

</svg>
